<svg xmlns="http://www.w3.org/2000/svg" width="16" height="16" viewBox="0 0 16 16"><path fill="var(--icon-color, #1c1c1c)"  d="M6.154 10.554l.707.707L4.121 14H2v-2.121l2.751-2.751.707.707L3 12.293V13h.707l2.447-2.446zM13 6.497c0 1.352-.791 2.578-2 3.152v4.843L9.5 16 8 14.492V9.65c-1.209-.575-2-1.801-2-3.153 0-1.932 1.57-3.503 3.5-3.503.739 0 1.422.233 1.988.626.002-.041.012-.079.012-.12C11.5 2.121 10.378 1 9 1c-.839 0-1.619.418-2.084 1.118l-.833-.553C6.735.585 7.825 0 9 0c1.93 0 3.5 1.57 3.5 3.5 0 .34-.064.661-.154.972.408.573.654 1.269.654 2.025zm-1 0c0-.332-.068-.647-.185-.937C11.177 6.429 10.157 7 9 7V6c.954 0 1.775-.543 2.196-1.33-.446-.416-1.04-.675-1.696-.675-1.378 0-2.5 1.122-2.5 2.502 0 1.05.67 1.993 1.667 2.348L9 8.963v5.114l.5.5.5-.5V8.963l.333-.118C11.33 8.49 12 7.547 12 6.497z"/></svg>