<svg xmlns="http://www.w3.org/2000/svg" width="24" height="24" viewBox="0 0 24 24"><path fill="var(--icon-color, #1c1c1c)" d="M17.5 11.999c-3.038 0-5.5 2.463-5.5 5.501s2.462 5.5 5.5 5.5 5.499-2.462 5.499-5.5-2.462-5.501-5.499-5.501zM13 17.5c0-2.481 2.018-4.5 4.5-4.5 1.06 0 2.023.384 2.793 1L14 20.294c-.616-.77-1-1.733-1-2.794zm4.5 4.501c-1.06 0-2.023-.384-2.793-1L21 14.706c.616.77 1 1.733 1 2.794-.001 2.482-2.019 4.501-4.5 4.501zM10 16.805v1.006c-.631.113-1.291.188-2 .189-3.314.001-5.998-1.335-5.999-2.992h1c0 .916 2.169 1.993 5 1.992.723-.001 1.39-.073 1.999-.195zm5.997-9.806c3.314-.001 5.999-1.343 5.998-3.001C21.994 2.341 19.314.999 16 1S9.996 2.345 9.996 4.003C9.997 5.66 12.683 7 15.997 6.999zM15.995 2c2.832-.001 5 1.082 5 1.999S18.828 6 15.996 6.001c-2.832.001-5-1.082-5-1.999 0-.916 2.167-2.001 4.999-2.002zM2 12.007h1c0 .916 2.169 2 5 1.999.724 0 1.392-.081 2-.203v1.018c-.626.113-1.295.178-2 .179-3.314.001-6-1.336-6-2.993zm18.999-5.009c0 .916-2.168 2-5 2-.737 0-1.408-.088-2.026-.214C13.752 7.228 11.164 6 7.995 6.001 4.682 6.002 1.998 7.343 1.999 9c.001 1.657 2.685 3.001 5.998 2.999 2.785-.001 5.119-.949 5.795-2.236.689.139 1.42.236 2.208.236 3.314 0 5.999-1.343 5.999-3.001h-1zM7.997 11.002c-2.832.001-5-1.082-5-1.999s2.167-2.001 4.999-2.002c2.832-.001 5 1.082 5 1.999s-2.167 2.001-4.999 2.002z"/></svg>