<svg height="24" viewBox="0 0 24 24" width="24" xmlns="http://www.w3.org/2000/svg"><path d="m10 16.805v1.006a11.335 11.335 0 0 1 -2 .189c-3.314 0-6-1.335-6-2.993h1c0 .916 2.169 1.993 5 1.993a10.236 10.236 0 0 0 2-.195zm-8-4.8h1c0 .916 2.168 2 5 2a10.147 10.147 0 0 0 2-.2v1.019a11.347 11.347 0 0 1 -2 .176c-3.314 0-6-1.336-6-2.993zm21 2.995-5-3v2h-4l-2 2h6v2zm-12 5 5 3v-2h5l2-2h-7v-2zm10-13c0 .917-2.168 2-5 2a9.976 9.976 0 0 1 -2.026-.215c-.222-1.557-2.81-2.785-5.974-2.785-3.318 0-6 1.343-6 3s2.685 3 6 3c2.785 0 5.12-.949 5.8-2.236a11.07 11.07 0 0 0 2.2.236c3.313 0 6-1.343 6-3zm-13 4c-2.835 0-5-1.081-5-2s2.164-2 5-2 5 1.083 5 2-2.171 2-5 2zm8-10c-3.314 0-6 1.345-6 3s2.687 3 6 3 6-1.343 6-3-2.686-3-6-3zm0 5c-2.831 0-5-1.083-5-2s2.167-2 5-2 5 1.083 5 2-2.172 2-5 2z" fill="var(--icon-color, #1c1c1c)"/></svg>