<?xml version="1.0" encoding="UTF-8"?>
<svg width="16px" height="16px" viewBox="0 0 16 16" version="1.1" xmlns="http://www.w3.org/2000/svg" xmlns:xlink="http://www.w3.org/1999/xlink">
    <!-- Generator: Sketch 61.2 (89653) - https://sketch.com -->
    <title>2 - General Display/16px/Apps</title>
    <desc>Created with Sketch.</desc>
    <defs>
        <path d="M5,11 L5,14 L2,14 L2,11 L5,11 Z M9.5,11 L9.5,14 L6.5,14 L6.5,11 L9.5,11 Z M14,11 L14,14 L11,14 L11,11 L14,11 Z M5,6.5 L5,9.5 L2,9.5 L2,6.5 L5,6.5 Z M9.5,6.5 L9.5,9.5 L6.5,9.5 L6.5,6.5 L9.5,6.5 Z M14,6.5 L14,9.5 L11,9.5 L11,6.5 L14,6.5 Z M5,2 L5,5 L2,5 L2,2 L5,2 Z M9.5,2 L9.5,5 L6.5,5 L6.5,2 L9.5,2 Z M14,2 L14,5 L11,5 L11,2 L14,2 Z" id="path-1"></path>
    </defs>
    <g id="2---General-Display/16px/Apps" stroke="none" stroke-width="1" fill="none" fill-rule="evenodd">
        <mask id="mask-2" fill="white">
            <use xlink:href="#path-1"></use>
        </mask>
        <use id="Combined-Shape" fill="var(--icon-color, #1c1c1c)" xlink:href="#path-1"></use>
    </g>
</svg>