<svg xmlns="http://www.w3.org/2000/svg" width="24" height="24" viewBox="0 0 24 24"><path d="M18.087 12.325l.074-.186.182-.466-.93-.365-.183.465-.095.241c-.045 0-.089-.014-.135-.014a2 2 0 0 0-1.567.757l-5.46-2.427a2 2 0 1 0-3.156 1.282l-2.562 6.4A1.962 1.962 0 0 0 4 18a2 2 0 1 0 1.183.388l2.562-6.4A1.951 1.951 0 0 0 8 12a2 2 0 0 0 1.567-.757l5.46 2.427a2 2 0 1 0 3.06-1.345zM19.058 7.119l-.731 1.862-.183.465.931.366.183-.466.731-1.861.183-.466-.931-.365-.183.465zM21.069 2l-.183.465-.731 1.862-.183.465.931.366.183-.465.731-1.862.183-.465L21.069 2z" fill="var(--icon-color, #1c1c1c)"/></svg>