<svg xmlns="http://www.w3.org/2000/svg" width="16" height="16" viewBox="0 0 16 16"><path fill="var(--icon-color, #1c1c1c)" d="M14 13H2v-.431c1.256-.858 2.006-2.283 2-3.805V7c0-2.206 1.794-4 4-4s4 1.794 4 4v1.764c0 1.544.752 2.952 2 3.805V13zM8 1c.551 0 1 .449 1 1 0 .035-.016.065-.02.099C8.663 2.036 8.336 2 8 2c-.336 0-.663.036-.98.099C7.016 2.065 7 2.035 7 2c0-.551.449-1 1-1zm5 7.764V7c0-2.007-1.2-3.819-3.047-4.603.028-.129.047-.26.047-.397 0-1.105-.895-2-2-2S6 .895 6 2c0 .137.019.268.047.397C4.2 3.181 3 4.993 3 7v1.764c0 1.37-.774 2.623-2 3.236v2h5c0 1.105.895 2 2 2s2-.895 2-2h5v-2c-1.226-.613-2-1.866-2-3.236z"/></svg>