<svg xmlns="http://www.w3.org/2000/svg" width="16" height="16" viewBox="0 0 16 16"><path fill="var(--icon-color, #1c1c1c)" d="M2 8h5v1H2V8zm-1 3.718c0 .181.002.245.007.275.03.005.094.007.275.007H6v1H1.282c-.446 0-.607-.046-.77-.134-.161-.085-.293-.217-.378-.378-.088-.163-.134-.324-.134-.77V4.282c0-.446.046-.607.134-.77.085-.161.217-.293.378-.378C.675 3.046.836 3 1.282 3h13.436c.446 0 .607.046.77.134.163.087.291.215.378.378.088.163.134.324.134.77V6h-1V4.282c0-.181-.002-.245-.007-.275-.091-.008-.183-.011-.275-.007H1.282c-.181 0-.245.002-.275.007-.005.03-.007.094-.007.275v7.436zM2 10h5v1H2v-1zm13.707-1.293c.713 1.495.08 3.286-1.416 4 0 0-.001 0-.001.001-.846.399-1.83.379-2.66-.053l-2.766 2.997c-.4.437-1.079.467-1.516.066-.437-.4-.467-1.079-.066-1.516.021-.023.043-.045.066-.066l2.991-2.761c-.761-1.47-.187-3.279 1.283-4.04.834-.432 1.823-.448 2.671-.043l-2 2 1.414 1.415 2-2z"/></svg>