<svg xmlns="http://www.w3.org/2000/svg" width="16" height="16" viewBox="0 0 16 16"><path fill-rule="evenodd" clip-rule="evenodd" d="M1 11.718c0 .181.002.245.007.275.03.005.094.007.275.007H6v1H1.282c-.446 0-.607-.046-.77-.134-.161-.085-.293-.217-.378-.378-.088-.163-.134-.324-.134-.77V4.282c0-.446.046-.607.134-.77.085-.161.217-.293.378-.378C.675 3.046.836 3 1.282 3h13.436c.446 0 .607.046.77.134.161.085.293.217.378.378.088.163.134.324.134.77V7h-1V4.282c0-.181-.002-.245-.007-.275-.091-.008-.183-.01-.275-.007H1.282c-.181 0-.245.002-.275.007-.005.03-.007.094-.007.275v7.436zM2 8h4v1H2V8zm9.5-1C9.015 7 7 9.015 7 11.5S9.015 16 11.5 16s4.5-2.015 4.5-4.5S13.985 7 11.5 7zm0 1c.785 0 1.502.269 2.086.707l-4.88 4.88C8.25 12.986 8.003 12.254 8 11.5 8 9.57 9.57 8 11.5 8zm0 7c-.754-.002-1.486-.251-2.086-.707l4.88-4.88c.437.585.706 1.302.706 2.087 0 1.93-1.57 3.5-3.5 3.5zM6 10H2v1h4v-1z"/></svg>