<svg xmlns="http://www.w3.org/2000/svg" width="16" height="16" viewBox="0 0 16 16"><path fill="var(--icon-color, #1c1c1c)" d="M10 4H7.915c-.276.781-1.133 1.19-1.914.914C5.22 4.638 4.81 3.781 5.087 3c.276-.781 1.133-1.19 1.914-.914.427.151.763.487.914.914H11v2h-1V4zm3 3V2c0-.552-.448-1-1-1H4c-.552 0-1 .448-1 1v5h10zm1 0h1v7c0 1.105-.895 2-2 2H3c-1.105 0-2-.895-2-2V7h1V1.75C2 .784 2.895 0 4 0h8c1.105 0 2 .784 2 1.75V7zM2 8v6c0 .552.448 1 1 1h10c.552 0 1-.448 1-1V8H2zm1 1h10v3H3V9zm1 1v1h8v-1H4zm2.5-7c-.276 0-.5.224-.5.5s.224.5.5.5.5-.224.5-.5-.224-.5-.5-.5z"/></svg>