<svg xmlns="http://www.w3.org/2000/svg" width="16" height="16" viewBox="0 0 16 16"><path fill="var(--icon-color, #1c1c1c)" d="M11 13v2l-4-2.5 4-2.5v2h3.647L16 13h-5zM2 8h5v1H2V8zm-1 3.718c0 .181.002.245.007.275.03.005.094.007.275.007H5v1H1.285c-.447 0-.608-.046-.772-.134-.161-.085-.293-.217-.379-.378-.088-.163-.134-.324-.134-.77V4.282c0-.446.046-.607.134-.77.086-.161.218-.293.379-.378C.677 3.046.838 3 1.285 3h13.433c.446 0 .607.046.77.134.163.087.291.215.378.378.088.163.134.324.134.77V10h-1V4.282c0-.181-.002-.245-.007-.275-.091-.008-.183-.01-.275-.007H1.282c-.181 0-.245.002-.275.007-.005.03-.007.094-.007.275v7.436zM2 10h5v1H2v-1z"/></svg>