<svg height="12" viewBox="0 0 12 12" width="12" xmlns="http://www.w3.org/2000/svg"><path d="m1.282 2h9.436a1.438 1.438 0 0 1 .77.134.906.906 0 0 1 .378.378 1.438 1.438 0 0 1 .134.77v5.436a1.438 1.438 0 0 1 -.134.77.906.906 0 0 1 -.378.378 1.438 1.438 0 0 1 -.77.134h-9.436a1.438 1.438 0 0 1 -.77-.134.906.906 0 0 1 -.378-.378 1.438 1.438 0 0 1 -.134-.77v-5.436a1.438 1.438 0 0 1 .134-.77.906.906 0 0 1 .378-.378 1.438 1.438 0 0 1 .77-.134zm-.282 1.282v5.436a2.373 2.373 0 0 0 .007.275 2.373 2.373 0 0 0 .275.007h9.436a2.373 2.373 0 0 0 .275-.007 2.373 2.373 0 0 0 .007-.275v-5.436a2.373 2.373 0 0 0 -.007-.275 2.291 2.291 0 0 0 -.275-.007h-9.436a2.373 2.373 0 0 0 -.275.007 2.373 2.373 0 0 0 -.007.275zm1 3.718h6v1h-6z" fill="var(--icon-color, #1c1c1c)"/></svg>