<svg xmlns="http://www.w3.org/2000/svg" width="16" height="16" viewBox="0 0 16 16"><path fill="var(--icon-color, #1c1c1c)"  fill-rule="evenodd" clip-rule="evenodd" d="M9 11v1h5v-1H9zm2.5 5C9.015 16 7 13.985 7 11.5S9.015 7 11.5 7 16 9.015 16 11.5 13.985 16 11.5 16zM2 10h4v1H2v-1zm-1 1.718c0 .181.002.245.007.275.03.005.094.007.275.007H6v1H1.282c-.446 0-.607-.046-.77-.134-.163-.087-.291-.215-.378-.378-.088-.163-.134-.324-.134-.77V4.282c0-.446.046-.607.134-.77.087-.163.215-.291.378-.378C.675 3.046.836 3 1.282 3h13.436c.446 0 .607.046.77.134.163.087.291.215.378.378.088.163.134.324.134.77V7h-1V4.282c0-.181-.002-.245-.007-.275-.03-.005-.094-.007-.275-.007H1.282c-.181 0-.245.002-.275.007-.005.03-.007.094-.007.275v7.436zM2 8h4v1H2V8z"/></svg>