<svg xmlns="http://www.w3.org/2000/svg" width="16" height="16" viewBox="0 0 16 16"><title>Card-credit-manager-16px</title><path d="M15.707,8.707a3,3,0,0,1-1.415,4h0a3,3,0,0,1-2.66-.053l-2.765,3A1.075,1.075,0,0,1,7.283,14.2c.021-.023.043-.046.066-.067l2.991-2.761A3,3,0,0,1,14.293,7.29l-2,2L13.707,10.7ZM2,8V9H4V8Zm0,3H7V10H2ZM5,9H7V8H5ZM15.866,3.512a.906.906,0,0,0-.378-.378A1.438,1.438,0,0,0,14.718,3H1.282a1.438,1.438,0,0,0-.77.134.906.906,0,0,0-.378.378A1.438,1.438,0,0,0,0,4.282v7.436a1.438,1.438,0,0,0,.134.77.906.906,0,0,0,.378.378,1.438,1.438,0,0,0,.77.134H6V12H1.282a2.373,2.373,0,0,1-.275-.007A2.373,2.373,0,0,1,1,11.718V4.282a2.373,2.373,0,0,1,.007-.275A2.373,2.373,0,0,1,1.282,4H14.718a2.291,2.291,0,0,1,.275.007A2.373,2.373,0,0,1,15,4.282V6h1V4.282A1.438,1.438,0,0,0,15.866,3.512Z" fill="var(--icon-color, #1c1c1c)"/><path d="M0,0H16V16H0Z" fill="none"/></svg>