<svg xmlns="http://www.w3.org/2000/svg" width="24" height="24" viewBox="0 0 24 24"><path fill="var(--icon-color, #1c1c1c)"  d="M20 20H3v-1h17v1zm1-2H2v-1h19v1zM2 15h20V5H2v10zm21 1H1V4h22v12zM11 9h1v4h-1V9zm8 2.5c0 .276-.224.5-.5.5s-.5-.224-.5-.5v-1c0-.276.224-.5.5-.5s.5.224.5.5v1zM18.5 9c-.828 0-1.5.672-1.5 1.5v1c0 .828.672 1.5 1.5 1.5s1.5-.672 1.5-1.5v-1c0-.828-.672-1.5-1.5-1.5zM15 11.5c0 .276-.224.5-.5.5s-.5-.224-.5-.5v-1c0-.276.224-.5.5-.5s.5.224.5.5v1zM14.5 9c-.828 0-1.5.672-1.5 1.5v1c0 .828.672 1.5 1.5 1.5s1.5-.672 1.5-1.5v-1c0-.828-.672-1.5-1.5-1.5z"/></svg>