<svg enable-background="new 0 0 16 16" height="16" viewBox="0 0 16 16" width="16" xmlns="http://www.w3.org/2000/svg"><path d="m7.5 12-.5-1v-1h2v1l-.5 1h.002l.498 3-1 1-1-1zm.5-3c2.209 0 4-1.791 4-4s-1.791-4-4-4-4 1.791-4 4 1.791 4 4 4zm0-7c1.657 0 3 1.343 3 3s-1.343 3-3 3-3-1.343-3-3 1.343-3 3-3zm2 8.258v1.019c1.958.555 3.487 1.912 4.043 3.723l.957-.293c-.684-2.226-2.593-3.856-5-4.449zm-4 0c-2.407.593-4.316 2.224-5 4.449l.957.293c.556-1.811 2.085-3.169 4.043-3.723z" fill="var(--icon-color, #1c1c1c)"/></svg>