<svg xmlns="http://www.w3.org/2000/svg" width="16" height="16" viewBox="0 0 16 16"><path fill="var(--icon-color, #1c1c1c)" d="M11 6c2.761 0 5 2.239 5 5s-2.239 5-5 5-5-2.239-5-5h1c0 2.209 1.791 4 4 4s4-1.791 4-4-1.791-4-4-4V6zm-.188 8.129v-.55c-.013.004-.027.006-.041.006h-.035c-.316 0-.735-.063-1.254-.191l.092-.882c.169.091.347.164.535.219s.379.082.573.082c.044.001.087-.004.13-.014V11.49l-.323-.126c-.11-.043-.218-.092-.322-.147-.103-.054-.201-.117-.294-.188-.194-.144-.337-.347-.407-.578-.042-.139-.062-.284-.06-.43 0-.24.039-.447.115-.623.077-.175.18-.322.308-.44.129-.119.278-.212.448-.279s.348-.112.535-.135v-.52h.331v.506c.207 0 .405.015.593.043.188.028.37.072.549.132l-.093.806c-.157-.066-.319-.118-.485-.155-.167-.038-.338-.057-.51-.057h-.027c-.009.001-.018.003-.027.007v1.296c.285.116.467.191.545.225.079.034.185.096.32.186.134.09.244.194.328.311.084.118.144.243.18.375.035.132.052.267.052.406 0 .23-.036.431-.109.602-.073.17-.174.315-.303.432-.128.118-.28.21-.452.279-.174.068-.36.114-.56.137v.574h-.332zm.331-1.412c.111-.046.21-.117.289-.207.077-.091.118-.207.114-.326.004-.118-.036-.233-.112-.323-.082-.09-.18-.164-.29-.217l-.001 1.073zm-.331-2.256v-1.09c-.11.048-.201.12-.274.217-.078.115-.117.252-.11.391 0 .112.035.206.105.28.07.076.162.143.279.202zM5 9c2.209 0 4-1.791 4-4S7.209 1 5 1 1 2.791 1 5s1.791 4 4 4zm0 1c-2.761 0-5-2.239-5-5s2.237-5 4.998-5S10 2.239 10 5s-2.239 5-5 5zm.54-2.236c-.277 0-.552-.034-.82-.103-.264-.067-.514-.182-.738-.338-.233-.165-.431-.373-.586-.613-.179-.284-.304-.6-.367-.93h-.696l.258-.64h.36c-.009-.166-.009-.331 0-.497h-.618l.258-.64h.453c.07-.302.188-.577.352-.825.284-.44.699-.78 1.187-.97.355-.145.735-.221 1.118-.221.216 0 .42.02.613.062s.351.093.476.153l-.394.879c-.101-.037-.204-.069-.309-.094-.127-.028-.256-.042-.386-.04-.274 0-.517.056-.729.167-.212.11-.375.247-.488.408-.106.148-.192.309-.256.48h1.816l-.254.641H4.095c-.009.165-.009.331 0 .496h1.496l-.258.64H4.204c.105.35.274.608.508.774.235.167.521.25.86.25.198 0 .39-.029.578-.088.187-.058.37-.16.55-.306v1.098c-.14.067-.305.127-.496.18-.19.051-.411.077-.664.077z"/></svg>