<svg xmlns="http://www.w3.org/2000/svg" width="24" height="24" viewBox="0 0 24 24"><path fill="var(--icon-color, #1c1c1c)" d="M16 9c3.866 0 7 3.134 7 7s-3.134 7-7 7-7-3.134-7-7h1c0 3.314 2.686 6 6 6s6-2.686 6-6-2.686-6-6-6V9zm.007 11.398v-.786c-.019.007-.039.01-.059.01h-.049c-.452 0-1.05-.091-1.792-.273l.132-1.26c.241.13.496.234.764.312.269.078.542.118.818.118.063.001.125-.005.186-.02v-1.87l-.462-.18c-.157-.061-.31-.131-.459-.21-.147-.078-.288-.168-.42-.27-.277-.206-.48-.495-.581-.825-.06-.199-.088-.407-.085-.615 0-.342.055-.638.164-.888.109-.251.255-.461.44-.63.183-.17.396-.302.639-.398.242-.096.497-.16.764-.193v-.742h.474v.722c.296 0 .578.02.847.061.268.041.53.104.783.188l-.131 1.153c-.224-.095-.456-.169-.694-.222-.239-.054-.482-.081-.727-.081h-.04c-.013.001-.026.004-.038.01v1.85c.406.166.666.274.778.323.113.048.265.137.457.266.192.128.348.276.469.444.12.168.206.346.256.535.05.189.076.382.076.58 0 .33-.052.616-.157.86-.104.244-.248.45-.432.618s-.4.3-.647.398c-.257.1-.526.165-.8.195v.82h-.474zm.555-2.016c.166-.072.303-.17.412-.296.111-.13.169-.296.164-.466.006-.168-.052-.333-.161-.461-.117-.129-.258-.235-.415-.31v1.533zm-.474-3.223v-1.557c-.155.067-.289.174-.39.31-.105.138-.157.324-.157.559 0 .16.05.293.149.4.1.108.232.204.398.288zM8 14c3.314 0 6-2.686 6-6s-2.686-6-6-6-6 2.686-6 6 2.686 6 6 6zm0 1c-3.866 0-7-3.134-7-7s3.134-7 7-7 7 3.134 7 7-3.134 7-7 7zm.91-3c-.383 0-.76-.047-1.128-.143-.364-.093-.707-.252-1.015-.468-.32-.229-.593-.517-.806-.849-.23-.349-.398-.778-.505-1.287H4.5l.354-.887h.495c-.007-.123-.011-.245-.011-.368 0-.105.003-.211.01-.319H4.5l.354-.887h.624c.096-.418.257-.798.483-1.141.39-.61.962-1.08 1.633-1.344.304-.121.586-.201.846-.244.508-.092 1.028-.083 1.533.025.265.058.484.128.655.211l-.542 1.216c-.139-.051-.28-.095-.424-.13-.175-.038-.353-.056-.532-.053-.376 0-.71.077-1.002.23-.292.153-.515.342-.671.564-.146.205-.264.429-.352.665h2.498l-.35.888h-2.33c-.008.105-.011.212-.011.319 0 .122.003.245.01.368H8.98l-.354.886H7.073c.143.483.376.841.698 1.071.322.232.716.346 1.182.346.272 0 .537-.04.795-.121.257-.082.51-.224.757-.425v1.519c-.219.103-.448.187-.682.249-.298.077-.605.114-.913.109z"/></svg>