<svg xmlns="http://www.w3.org/2000/svg" width="16" height="16" viewBox="0 0 16 16"><path fill="var(--icon-color, #1c1c1c)"  d="M10 0H0v12h1V1h9V0zM6 13H3V3h8v2h1V2H2v12h4v-1zM4 8h3V7H4v1zm0 2h3V9H4v1zm0-4h5V5H4v1zm10.767 10c-.251-.245-.67-.709-1.013-1.069C12.986 15.626 11.979 16 11 16c-1.732 0-2.591-1.211-2.591-2.512 0-1.186.728-1.996 1.746-2.537v-.039c-.463-.566-.74-1.197-.74-1.815 0-1.057.78-2.138 2.262-2.138 1.111 0 1.972.721 1.972 1.841 0 .915-.543 1.636-1.958 2.318v.039c.754.85 1.601 1.803 2.169 2.421.41-.605.969-1.474 1.141-2.569h.997c-.238 1.365-.841 2.479-1.502 3.238.494.561.936 1.117 1.502 1.752h-1.231zm-1.582-1.714c-.528-.566-1.521-1.622-2.514-2.729-.476.296-1.15.85-1.15 1.764 0 .992.761 1.679 1.832 1.679.767-.001 1.409-.263 1.832-.714zm-2.712-5.293c0 .618.291 1.095.675 1.559.899-.502 1.481-.966 1.481-1.7 0-.529-.207-.852-.934-.852-.741 0-1.222.323-1.222.993z"/></svg>