<svg xmlns="http://www.w3.org/2000/svg" width="24" height="24" viewBox="0 0 24 24"><path fill="var(--icon-color, #1c1c1c)" d="M3 17h7v1H3v2.5c0 .828.672 1.5 1.5 1.5h7c.828 0 1.5-.672 1.5-1.5V19h1v1.5c0 1.381-1.119 2.5-2.5 2.5h-7C3.119 23 2 21.881 2 20.5v-17C2 2.119 3.119 1 4.5 1h7C12.881 1 14 2.119 14 3.5V6h-1V3.5c0-.828-.672-1.5-1.5-1.5h-7C3.672 2 3 2.672 3 3.5V17zm5 4c-.552 0-1-.448-1-1s.448-1 1-1 1 .448 1 1-.448 1-1 1zm13-7c0 1 .8 1 1 1v1h-3c0 1.1-.9 2-2 2s-2-.9-2-2h-3v-1c.2 0 1-.1 1-1v-2.5c0-1.4.8-2.8 2-3.5 0-1.1.9-2 2-2s2 .9 2 2c1.2.7 2 2.1 2 3.5V14zm-6 1h5.2c-.1-.3-.2-.6-.2-1v-2.5c0-1.2-.7-2.2-1.7-2.8l-.3-.1V8c0-.5-.5-1-1-1s-1 .5-1 1v.6l-.3.1c-1 .6-1.7 1.6-1.7 2.8V14c0 .4-.1.7-.2 1H15z"/></svg>