<svg xmlns="http://www.w3.org/2000/svg" width="16" height="16" viewBox="0 0 16 16"><path fill="var(--icon-color, #1c1c1c)" d="M15.2 5.4l-6-5C8.844.133 8.422 0 8 0s-.844.133-1.2.4l-6 5C.296 5.778 0 6.37 0 7v9h16V7c0-.63-.296-1.222-.8-1.6zM7.417 1.187C7.588 1.065 7.789 1 8 1s.412.065.583.187l5.75 4.792L10.293 10H5.74L1.679 5.969l5.738-4.782zM5.707 11h4.585l4 4H1.707l4-4zM1 7c0-.085.037-.162.058-.244l3.753 3.726L1 14.293V7zm10.206 3.499l3.741-3.724c.018.076.053.146.053.225v7.293l-3.794-3.794z"/></svg>