<svg xmlns="http://www.w3.org/2000/svg" width="24" height="24" viewBox="0 0 24 24"><path fill="var(--icon-color, #1c1c1c)" d="M17.5 12c-3.038 0-5.5 2.462-5.5 5.5s2.462 5.5 5.5 5.5 5.5-2.462 5.5-5.5-2.462-5.5-5.5-5.5zM13 17.5c0-2.481 2.019-4.5 4.5-4.5 1.06 0 2.023.384 2.793 1L14 20.293c-.616-.77-1-1.733-1-2.793zm4.5 4.5c-1.06 0-2.023-.384-2.793-1L21 14.707c.616.77 1 1.733 1 2.793 0 2.481-2.019 4.5-4.5 4.5zM1 1v16h9v-1H2.707L9 9.706l1.94 1.855c.586.585 1.534.585 2.12 0L22 2.707V12h1V1H1zm1 14.293V2.707L8.293 9 2 15.293zm10.354-4.43c-.195.195-.512.195-.707 0L2.707 2h18.586l-8.939 8.863z"/></svg>