<svg xmlns="http://www.w3.org/2000/svg" width="24" height="24" viewBox="0 0 24 24"><path fill="var(--icon-color, #1c1c1c)" d="M22.276 9.4l-9.1-8.015c-.35-.255-.763-.383-1.176-.383s-.826.128-1.176.383L1.724 9.4c-.459.38-.724.944-.724 1.54v12.063h22V10.94c0-.596-.265-1.16-.724-1.54zM11.444 2.172c.165-.111.356-.169.556-.169s.391.058.556.169l9.082 7.998c.091.076.154.174.212.274l-5.556 5.557H7.638L2.15 10.446c.062-.106.131-.21.235-.296l9.059-7.978zM7.707 17.001h8.586l5 5.001H2.707l5-5.001zM2 11.727l4.755 4.813L2 21.295v-9.568zm15.208 4.775L22 11.709v9.586l-4.792-4.793z"/></svg>