<svg viewBox="0 0 12 12" xmlns="http://www.w3.org/2000/svg"><path d="m12 6s-2 4-6 4a5.7 5.7 0 0 1 -1.64-.24l.83-.83a4.28 4.28 0 0 0 .81.07c2.58 0 4.22-2.07 4.84-3a8.08 8.08 0 0 0 -1.24-1.48l.71-.71a8.62 8.62 0 0 1 1.69 2.19zm-7.89 2.6-.76.76-2 2-.7-.7 1.82-1.84a8.79 8.79 0 0 1 -2.47-2.82s2-4 6-4a5.73 5.73 0 0 1 2.65.65l2-2 .7.7-1.82 1.83-.72.72zm-.91-.5 1.08-1.1a2 2 0 0 1 -.28-1 2 2 0 0 1 2-2 2 2 0 0 1 1 .28l.88-.87a4.63 4.63 0 0 0 -1.88-.41c-2.58 0-4.22 2.07-4.84 3a7.51 7.51 0 0 0 2.04 2.1z" fill="var(--icon-color, #1c1c1c)"/></svg>