<?xml version="1.0" encoding="UTF-8"?>
<svg width="16px" height="16px" viewBox="0 0 16 16" version="1.1" xmlns="http://www.w3.org/2000/svg" xmlns:xlink="http://www.w3.org/1999/xlink">
    <!-- Generator: Sketch 61.2 (89653) - https://sketch.com -->
    <title>6 - Favicon/Gear</title>
    <desc>Created with Sketch.</desc>
    <defs>
        <path d="M9.6,0.444453125 L9.6,2.57778125 L9.63853125,2.58785937 C10.0087656,2.70048437 10.3622656,2.85154687 10.6666719,3.02221875 L10.6666719,3.02221875 L12.1777813,1.51110937 L14.4888906,3.82221875 L12.9777813,5.33332812 L12.971125,5.32290625 C13.1844844,5.63767187 13.3390156,5.99554687 13.4222344,6.4 L13.4222344,6.4 L15.5555625,6.4 L15.5555625,9.6 L13.42225,9.6 L13.4121875,9.63846875 C13.2996094,10.0087344 13.1485469,10.3622344 12.9777969,10.6666719 L12.9777969,10.6666719 L13.8666875,11.5555625 L14.5777969,12.1777812 L12.2666875,14.4888906 L10.7554531,12.9774531 L10.5811858,13.0705134 C10.3759674,13.1734366 10.1606139,13.2645946 9.92780488,13.3451585 L9.68890625,13.4222344 L9.68890625,15.5555625 L6.40001563,15.5555625 L6.40001563,13.4222344 L6.36154688,13.4121719 C5.99128125,13.2995937 5.63778125,13.1485312 5.33334375,12.9777812 L5.33334375,12.9777812 L3.82223438,14.4888906 L1.511125,12.1777812 L3.02223438,10.6666719 L3.02960938,10.6782187 C2.83167188,10.3862187 2.67945313,10.0607187 2.57778125,9.68889062 L2.57778125,9.68889062 L0.444453125,9.68889062 L0.444453125,6.4 L2.57778125,6.4 L2.58110938,6.38076562 C2.661,5.9955625 2.81551563,5.63767187 3.02221875,5.33334375 L3.02221875,5.33334375 L1.51110938,3.82223437 L3.82221875,1.511125 L5.33332813,3.02223437 L5.32290625,3.02889062 C5.63767188,2.81553125 5.99554688,2.661 6.4,2.57778125 L6.4,2.57778125 L6.4,0.444453125 L9.6,0.444453125 Z M8.71110938,1.33334375 L7.28889062,1.33334375 L7.28889062,3.20001562 L7.25246875,3.2060625 C6.47951562,3.36001562 5.76273437,3.66985937 5.1555625,4.08890625 L5.1555625,4.08890625 L3.82223437,2.75557812 L2.7555625,3.82225 L4.17778125,5.15557812 L4.03654512,5.35078537 C3.65364063,5.91182292 3.39237674,6.56486458 3.28889063,7.28890625 L3.28889063,7.28890625 L1.33332813,7.28890625 L1.33332813,8.88890625 L3.2,8.88890625 L3.20604688,8.92532812 C3.36,9.69828125 3.66984375,10.4150625 4.08889063,11.0222344 L4.08889063,11.0222344 L2.7555625,12.3555625 L3.82223438,13.4222344 L5.15545313,12.0884531 L5.35076974,12.2301424 C5.8416776,12.5651838 6.40302611,12.8070942 7.02074415,12.9316643 L7.28889063,12.9777969 L7.28889063,14.9333594 L8.71110938,14.9333594 L8.71110938,12.9777969 L8.74753125,12.97175 C9.52048438,12.8177969 10.2372656,12.5079531 10.8444375,12.0889062 L10.8444375,12.0889062 L12.1777656,13.4222344 L13.2444375,12.3555625 L11.9111094,11.0222344 L11.903125,11.0330625 C12.3674688,10.4281406 12.6835781,9.70345312 12.8,8.88890625 L12.8,8.88890625 L14.7555625,8.88890625 L14.7555625,7.37779687 L12.8,7.37779687 L12.7939531,7.341375 C12.64,6.56842187 12.3301563,5.85164062 11.9111094,5.24446875 L11.9111094,5.24446875 L13.2444375,3.91114062 L12.1777656,2.84446875 L10.8444375,4.17779687 L10.6492303,4.03656074 C10.0881927,3.65365625 9.43515104,3.39239236 8.71110938,3.28890625 L8.71110938,3.28890625 L8.71110938,1.33334375 Z M8,4.4444375 C9.9636875,4.4444375 11.5555625,6.03632813 11.5555625,8 L11.5555625,8 L11.550634,8.18883262 C11.452473,10.0647326 9.90032762,11.5555625 8,11.5555625 C6.0363125,11.5555625 4.4444375,9.9636875 4.4444375,8 C4.4444375,6.0363125 6.03632812,4.4444375 8,4.4444375 Z M8,6.22221875 C7.01815625,6.22221875 6.22221875,7.01815625 6.22221875,8 C6.22221875,8.98184375 7.01815625,9.77778125 8,9.77778125 C8.98184375,9.77778125 9.77778125,8.98184375 9.77778125,8 L9.77778125,8 L9.77188797,7.85419399 C9.69772273,6.94055234 8.93275156,6.22221875 8,6.22221875 Z" id="path-1"></path>
    </defs>
    <g id="6---Favicon/Gear" stroke="none" stroke-width="1" fill="none" fill-rule="evenodd">
        <mask id="mask-2" fill="white">
            <use xlink:href="#path-1"></use>
        </mask>
        <use id="Combined-Shape" fill="var(--icon-color, #1c1c1c)" xlink:href="#path-1"></use>
    </g>
</svg>