<svg xmlns="http://www.w3.org/2000/svg" width="16" height="16" viewBox="0 0 16 16"><path d="M13 6V1H3v5H1v9h14V6zM4 2h8v4H4zm10 12H2V7h12zM5 3h6v1H5zm7 8.18c.07.43 0 .63-.15.74a.45.45 0 0 1-.34.07l-1.59-.23a.35.35 0 0 1-.33-.32v-.36c0-.33-.62-.64-1.4-.64h-.42c-.78 0-1.37.3-1.36.63v.36a.35.35 0 0 1-.33.33L4.5 12a.463.463 0 0 1-.33-.07 1 1 0 0 1-.17-.76 1.787 1.787 0 0 1 .37-1.07A5.15 5.15 0 0 1 7.78 9h.37a5.439 5.439 0 0 1 3.44 1.09c.21.21.28.42.41 1.09z" fill="var(--icon-color, #1c1c1c)"/></svg>