<svg xmlns="http://www.w3.org/2000/svg" width="24" height="24" viewBox="0 0 24 24"><path d="M19 18.63c.12.72 0 1.06-.27 1.24a.828.828 0 0 1-.58.12l-2.79-.39a.6.6 0 0 1-.58-.53v-.6c0-.56-1.09-1.07-2.45-1.07h-.67c-1.35 0-2.39.5-2.38 1v.6a.6.6 0 0 1-.58.55L5.87 20a.855.855 0 0 1-.57-.11 1.52 1.52 0 0 1-.3-1.27c.15-.95.29-1.48.65-1.8A9.428 9.428 0 0 1 11.61 15h.65a9.779 9.779 0 0 1 6 1.82c.4.34.51.7.74 1.81zM7 5h10V4H7zm0 3h10V7H7zm16 2v13H1V10h3V1h16v9zM5 12h14V2H5zm17-1h-2v2H4v-2H2v11h20z" fill="var(--icon-color, #1c1c1c)"/></svg>