<svg xmlns="http://www.w3.org/2000/svg" width="16" height="16" viewBox="0 0 16 16"><path fill="var(--icon-color, #1c1c1c)"  d="M3 6.172v1.38L2 8.5l.002-1.371L3 6.172zm7.379-4.784l1.785 1.778L9.22 6.101 6.208 3.096 3 6.172v1.38L6.208 4.51 9.22 7.515l3.652-3.643 1.762 1.755L16.039 0l-5.66 1.388zM1 8H0v7h1V8zm9.153 8c1.228 0 2.385-.553 3.163-1.478l2.417-2.662c.288-.385.355-.884.119-1.322-.186-.345-.467-.585-.822-.662-.396-.087-.823.034-1.167.315L11 12.162l.562.838 2.9-2.008c.154-.125.285-.157.358-.139.02.004.092.004.149.119.045.09.025.209-.005.252l-2.4 2.64c-.6.713-1.479 1.136-2.414 1.136H7.659c-.734 0-1.444-.218-2.008-.596l-1.092-.937c-.452-.305-.98-.467-1.526-.467H2v1h1.033c.346 0 .68.103.919.261l1.092.937c.775.525 1.68.802 2.618.802h2.491zM10 11.5c0-.827-.673-1.5-1.5-1.5H6.121c-.235 0-.464-.05-.679-.146L4.177 9.28C3.769 9.095 3.333 9 2.883 9H2v1h.883c.306 0 .602.064.881.19l1.266.573c.345.158.713.237 1.091.237H8.5c.276 0 .5.225.5.5s-.224.5-.5.5H6v1h2.5c.827 0 1.5-.673 1.5-1.5z"/></svg>