<svg enable-background="new 0 0 24 24" height="24" viewBox="0 0 24 24" width="24" xmlns="http://www.w3.org/2000/svg"><path d="m8.157 16.045c-.356 0-.677-.137-.917-.357l.003.023c0 .099.001.524.002.932.001.393.32.712.713.712h.87v.358h-3.651v-.358h.844c.393 0 .711-.318.713-.711.002-.408.003-.833.003-.932l.002-.013c-.238.214-.554.347-.904.347-.739 0-1.337-.582-1.337-1.3 0-.239.071-.461.187-.653l-.006-.001.024-.032c.031-.047.065-.091.102-.134l2.191-2.636 2.216 2.666c.024.03.048.059.069.091l.02.027-.005.001c.123.197.198.425.198.672 0 .716-.598 1.298-1.337 1.298zm14.575-8.036-6.496 11.264c-.37.642-1.042 1.001-1.733 1.001-.119 0-.238-.021-.355-.045-.252.485-.671.843-1.178.996-.111 1-.948 1.776-1.977 1.776h-8c-1.104-.001-1.993-.892-1.993-1.997v-13.006c0-1.105.889-1.998 1.993-1.998h8c1.104 0 1.999.893 1.999 1.998v12.12c.176-.131.31-.318.37-.542l3.362-12.563c.143-.533-.174-1.083-.707-1.225l-7.722-2.072c-.085-.022-.172-.034-.259-.034-.451 0-.847.305-.964.742l-.142.573h-1.036l.212-.832c.239-.894 1.047-1.483 1.929-1.484.171 0 .345.022.519.069l7.722 2.072c1.066.286 1.699 1.383 1.413 2.451l-3.211 11.997c.008 0 .016.003.025.003.357 0 .689-.192.867-.501l6.496-11.264c.276-.478.111-1.091-.366-1.367l-6.923-4.001c-.154-.089-.322-.134-.498-.134-.357 0-.689.192-.867.501l-.287.49h-1.159l.581-.99c.37-.643 1.041-1.007 1.732-1.007.339 0 .683.092.997.273l6.924 4.002c.956.553 1.284 1.777.732 2.734zm-10.739-.011c0-.552-.448-1-.999-1h-7.995c-.551 0-1.006.449-1.006 1v13.006c0 .552.455 1 1.006 1h7.995c.551 0 .999-.449.999-1z" fill="var(--icon-color, #1c1c1c)"/></svg>