<?xml version="1.0" encoding="UTF-8"?>
<svg width="24px" height="24px" viewBox="0 0 24 24" version="1.1" xmlns="http://www.w3.org/2000/svg" xmlns:xlink="http://www.w3.org/1999/xlink">
    <!-- Generator: Sketch 61.2 (89653) - https://sketch.com -->
    <title>Ideas-Recommendations-24px</title>
    <desc>Created with Sketch.</desc>
    <g id="Ideas-Recommendations-24px" stroke="none" stroke-width="1" fill="none" fill-rule="evenodd">
        <path d="M20,1 C21.6568542,1 23,2.34314575 23,4 L23,4 L23,16 C23,17.6568542 21.6568542,19 20,19 L20,19 L10,19 L5,24 L5,19 L4,19 C2.34314575,19 1,17.6568542 1,16 L1,16 L1,4 C1,2.34314575 2.34314575,1 4,1 L4,1 Z M20,2 L4,2 C2.8954305,2 2,2.8954305 2,4 L2,4 L2,16 C2,17.1045695 2.8954305,18 4,18 L4,18 L6,18 L6,21.59 L9.59,18 L20,18 C21.1045695,18 22,17.1045695 22,16 L22,16 L22,4 C22,2.8954305 21.1045695,2 20,2 L20,2 Z M12,6 C14.2064037,6.0065896 15.9934104,7.79359627 16,10 C16,11.8 14.5,13.2 14,13.7 L14,13.7 L14,14.1 C14,15.2045695 13.1045695,16.1 12,16.1 C10.8954305,16.1 10,15.2045695 10,14.1 L10,14.1 L10,13.7 C8.85942626,12.7886978 8.13765479,11.4534206 8,10 C8.0065896,7.79359627 9.79359627,6.0065896 12,6 Z M13,14 L11,14 L11,14.1 C11.0054558,14.3547208 11.115958,14.5958574 11.3053339,14.7662957 C11.4947098,14.9367339 11.7461138,15.021313 12,15 C12.2538862,15.021313 12.5052902,14.9367339 12.6946661,14.7662957 C12.884042,14.5958574 12.9945442,14.3547208 13,14.1 L13,14.1 L13,14 Z M12,7 C10.3600184,7.04004299 9.04004299,8.36001842 9,10 C9,11.4 10.3,12.6 10.7,13 L10.7,13 L13.3,13 C13.7,12.6 15,11.4 15,10 C14.959957,8.36001842 13.6399816,7.04004299 12,7 Z M7,10 L7,11 L6,11 L6,10 L7,10 Z M18,10 L18,11 L17,11 L17,10 L18,10 Z M8,6 L8,7 L7,7 L7,6 L8,6 Z M17,6 L17,7 L16,7 L16,6 L17,6 Z M12.5,4 L12.5,5 L11.5,5 L11.5,4 L12.5,4 Z" id="Combined-Shape" fill="var(--icon-color, #1c1c1c)" fill-rule="nonzero"></path>
    </g>
</svg>