<svg xmlns="http://www.w3.org/2000/svg" width="24" height="24" viewBox="0 0 24 24"><path fill="var(--icon-color, #1c1c1c)" fill-rule="evenodd" clip-rule="evenodd" d="M19.997 3c-1.316.78-2.664 1.105-3.98 1.105-2.679 0-5.342-1.101-8.021-1.101-.994 0-1.997.159-2.996.573V2H4v20h1v-7.504c.993-.409 1.986-.559 2.98-.559 2.679 0 5.361 1.063 8.04 1.063 1.326 0 2.651-.206 3.977-1.001-.011-3.965.011-7.033 0-10.999zM16.02 14.008c-1.239 0-2.496-.233-3.823-.502-1.365-.276-2.777-.562-4.217-.562-1.059 0-2.037.158-2.954.478L5.008 7.84 5 4.804v-.136c.903-.444 1.88-.67 2.997-.67 1.239 0 2.476.27 3.803.539 1.366.276 2.778.562 4.218.562 1.059 0 2.063-.17 2.98-.491l-.01 6.192.01 2.575c-.904.444-1.862.633-2.978.633z"/></svg>