<svg xmlns="http://www.w3.org/2000/svg" width="16" height="16" viewBox="0 0 16 16"><path fill="var(--icon-color, #1c1c1c)" d="M16 7.502l-1.436 5.631-1.752-1.756-.071-.071-3.234 3.43-3.008-3.056L2.002 16 2 14.58l4.501-4.323 2.991 3.037 2.542-2.697-1.702-1.706L16 7.502zM6 6.999V5.681h.009c.015-1.228.492-2.386 1.365-3.266C8.278 1.502 9.479 1 10.757 1H11v.179c0 2.378-1.734 4.411-4 4.802V7c2.821-.4 5-2.89 5-5.821V0h-1.243c-1.547 0-3 .607-4.094 1.71C5.578 2.806 4.987 4.253 5 5.786V9h1V6.999zm-1.97-.008l-.052-.995C2.336 5.782 1 3.994 1 2.01L1.033 2c1.518 0 2.403.459 3.269 1.692l.026-.018c.085-.38.21-.747.37-1.1C3.744 1.465 2.639 1 1.033 1H0v1.01c0 2.511 1.691 4.697 3.842 4.978l.188.003z"/></svg>