<svg enable-background="new 0 0 16 16" height="16" viewBox="0 0 16 16" width="16" xmlns="http://www.w3.org/2000/svg"><path d="m7.431 15c-.443 0-.891-.029-1.345-.086-.454-.058-.918-.168-1.395-.332l.158-1.55c.404.213.848.365 1.333.455.484.09.975.135 1.473.135.371 0 .718-.067 1.042-.201s.567-.321.73-.562c.164-.24.245-.494.245-.762 0-.295-.125-.534-.374-.717s-.56-.344-.934-.483c-.373-.14-.781-.283-1.224-.431-.443-.147-.851-.33-1.224-.549-.373-.218-.684-.494-.933-.827s-.374-.765-.374-1.294c0-.481.105-.887.315-1.218s.52-.618.93-.865c-.387-.213-.68-.489-.88-.828-.199-.338-.298-.727-.298-1.164 0-.639.213-1.177.639-1.615.426-.437.917-.73 1.473-.88.556-.151 1.042-.226 1.457-.226.775 0 1.591.107 2.449.319l-.149 1.526c-.31-.131-.652-.242-1.025-.333-.374-.09-.724-.135-1.05-.135-.432 0-.823.05-1.174.151-.353.102-.61.246-.774.435-.163.188-.244.42-.244.693 0 .334.127.601.382.803.254.203.569.378.942.528.374.15.785.295 1.233.435.448.139.859.315 1.233.528.373.213.688.482.942.807s.382.744.382 1.258c0 .502-.108.905-.324 1.209-.216.303-.509.605-.88.905.327.213.589.488.789.824.199.337.299.701.299 1.095 0 .716-.232 1.311-.697 1.787-.465.475-1 .788-1.606.938-.608.152-1.121.227-1.542.227zm1.851-5.41c.41-.481.614-.899.614-1.255 0-.447-.21-.805-.631-1.073-.42-.268-.891-.483-1.411-.647s-.893-.312-1.12-.443c-.42.312-.631.746-.631 1.304 0 .338.125.62.374.845.249.223.543.413.884.568.34.156.688.287 1.046.393.356.108.648.21.875.308z" fill="var(--icon-color, #1c1c1c)"/></svg>