<svg enable-background="new 0 0 24 24" height="24" viewBox="0 0 24 24" width="24" xmlns="http://www.w3.org/2000/svg"><path d="m11.161 23c-.653 0-1.314-.045-1.983-.135-.67-.09-1.355-.264-2.057-.521l.233-2.434c.595.334 1.251.573 1.965.715.715.142 1.439.212 2.173.212.546 0 1.059-.106 1.537-.316s.837-.505 1.077-.882.361-.777.361-1.198c0-.464-.184-.839-.551-1.127-.368-.288-.826-.541-1.377-.76s-1.153-.444-1.806-.676-1.255-.519-1.806-.863c-.551-.343-1.01-.777-1.377-1.301-.366-.527-.55-1.205-.55-2.037 0-.756.155-1.394.465-1.913s.767-.972 1.371-1.358c-.571-.333-1.004-.768-1.298-1.3s-.441-1.143-.441-1.829c0-1.004.314-1.85.942-2.538s1.353-1.148 2.173-1.385c.821-.236 1.537-.354 2.149-.354 1.143 0 2.346.167 3.612.503l-.22 2.396c-.458-.206-.961-.379-1.512-.521s-1.067-.212-1.548-.212c-.636 0-1.214.079-1.732.239-.518.159-.897.386-1.139.683s-.363.656-.363 1.085c0 .524.188.945.563 1.263s.839.595 1.389.83c.551.236 1.156.464 1.818.683s1.267.496 1.818.83 1.014.758 1.389 1.268.563 1.17.563 1.977c0 .79-.159 1.423-.477 1.9-.319.476-.751.951-1.298 1.423.482.334.869.767 1.163 1.295s.441 1.101.441 1.719c0 1.125-.343 2.061-1.028 2.808s-1.475 1.239-2.369 1.475c-.894.238-1.649.356-2.27.356zm2.731-8.501c.604-.756.906-1.412.906-1.971 0-.704-.31-1.266-.931-1.687s-1.314-.76-2.081-1.017-1.318-.489-1.653-.695c-.62.488-.931 1.171-.931 2.047 0 .532.184.975.551 1.327s.802.65 1.304.895c.501.245 1.017.451 1.543.618s.957.328 1.292.483z" fill="var(--icon-color, #1c1c1c)"/></svg>