<svg xmlns="http://www.w3.org/2000/svg" width="16" height="16" viewBox="0 0 16 16"><path fill="var(--icon-color, #1c1c1c)" d="M15 8c0-3.866-3.134-7-7-7S1 4.134 1 8s3.134 7 7 7c1.648 0 3.161-.573 4.357-1.527l.015-.006.007-.01C13.976 12.174 15 10.208 15 8zm-3.697 3.5L9.74 10.019l.571-1.756 2.333-1.292 1.35.922c.001.036.006.071.006.107 0 1.307-.425 2.514-1.137 3.5h-1.56zm1.609-6.935l-.496 1.388-2.281 1.263L9 6.253V3.369l1.043-1.003c1.168.425 2.167 1.198 2.869 2.199zm-6.8-2.256L8 3.527v2.421L5.942 7.254 3.579 5.939l-.491-1.374C3.821 3.52 4.877 2.72 6.112 2.309zM2.005 7.893l1.359-.928L5.655 8.24l.016-.03.587 1.807L4.709 11.5H3.137C2.425 10.514 2 9.307 2 8c0-.036.005-.071.005-.107zm4.045 5.775l-.468-1.62 1.57-1.503h1.69l1.578 1.495-.47 1.627C9.338 13.88 8.683 14 8 14s-1.338-.12-1.95-.332z"/></svg>