<svg height="16" viewBox="0 0 16 16" width="16" xmlns="http://www.w3.org/2000/svg"><path d="m13.645 10.013a5.885 5.885 0 0 0 0-4.026 3.488 3.488 0 0 0 1-.187 6.939 6.939 0 0 1 0 4.4 3.5 3.5 0 0 0 -1-.187zm.355 2.079a1.4 1.4 0 0 0 -1 0 1.5 1.5 0 0 0 -.908.908 1.4 1.4 0 0 0 0 1 1.5 1.5 0 1 0 1.908-1.908zm-.5-11.092a1.5 1.5 0 0 0 -1.408 1 1.483 1.483 0 0 0 -.092.5 1.483 1.483 0 0 0 .092.5 1.5 1.5 0 0 0 .908.908 1.4 1.4 0 0 0 1 0 1.5 1.5 0 0 0 -.5-2.908zm-7.513 1.355a5.885 5.885 0 0 1 4.026 0 3.5 3.5 0 0 1 .187-1 6.939 6.939 0 0 0 -4.4 0 3.488 3.488 0 0 1 .187 1zm-2.079-.355a1.5 1.5 0 1 0 -1.908 1.908 1.483 1.483 0 0 0 .5.092 1.483 1.483 0 0 0 .5-.092 1.5 1.5 0 0 0 .908-.908 1.483 1.483 0 0 0 .092-.5 1.483 1.483 0 0 0 -.092-.5zm6.105 11.645a5.885 5.885 0 0 1 -4.026 0 3.5 3.5 0 0 1 -.187 1 6.939 6.939 0 0 0 4.4 0 3.488 3.488 0 0 1 -.187-1zm-6.105-.645a1.5 1.5 0 0 0 -.908-.908 1.483 1.483 0 0 0 -.5-.092 1.483 1.483 0 0 0 -.5.092 1.5 1.5 0 1 0 1.908 1.908 1.4 1.4 0 0 0 0-1zm-2.55-7.2a6.939 6.939 0 0 0 0 4.4 3.488 3.488 0 0 1 1-.187 5.885 5.885 0 0 1 0-4.026 3.5 3.5 0 0 1 -1-.187z" fill="var(--icon-color, #1c1c1c)"/></svg>