<svg xmlns="http://www.w3.org/2000/svg" width="12" height="12" viewBox="0 0 12 12"><path fill="var(--icon-color, #1c1c1c)" d="M12 8h-2V7h2v1zM10.784.761C10.297.273 9.635-.001 8.945 0c-.665 0-1.33.254-1.838.761L5.345 2.523l.708.707 1.761-1.761c.299-.301.706-.47 1.131-.469.428 0 .83.166 1.132.468l.45.45c.302.303.469.704.469 1.132s-.167.829-.469 1.131L8.765 5.942l.708.707 1.761-1.76c.488-.488.762-1.149.762-1.839s-.274-1.351-.762-1.839l-.45-.45zM3.051 10.997c-.428 0-.829-.167-1.132-.469l-.45-.45c-.301-.3-.47-.707-.469-1.132 0-.427.167-.829.469-1.131l1.756-1.756-.707-.708L.762 7.108C.274 7.595 0 8.257 0 8.946s.274 1.351.762 1.839l.45.45c.487.489 1.149.763 1.839.762.665 0 1.33-.254 1.838-.762l1.756-1.756-.707-.708-1.756 1.757c-.299.301-.707.47-1.131.469zm7.638.388L9.067 9.764l.707-.707 1.622 1.622-.707.706zM8 12H7v-2h1v2zM2.237 2.933L.615 1.312l.707-.707 1.622 1.622-.707.706zM2 5H0V4h2v1zm3-3H4V0h1v2z"/><path fill="none" d="M0 0h12v12H0z"/></svg>