<?xml version="1.0" encoding="UTF-8"?>
<svg width="24px" height="24px" viewBox="0 0 24 24" version="1.1" xmlns="http://www.w3.org/2000/svg" xmlns:xlink="http://www.w3.org/1999/xlink">
    <!-- Generator: Sketch 61.2 (89653) - https://sketch.com -->
    <title>2 - General Display/24px/List-add</title>
    <desc>Created with Sketch.</desc>
    <defs>
        <path d="M20,14 L20,17 L23,17 L23,18 L20,18 L20,21 L19,21 L19,18 L16,18 L16,17 L19,17 L19,14 L20,14 Z M13,17 L13,18 L3,18 L3,17 L13,17 Z M17,13 L17,14 L3,14 L3,13 L17,13 Z M17,9 L17,10 L3,10 L3,9 L17,9 Z M17,5 L17,6 L3,6 L3,5 L17,5 Z" id="path-1"></path>
    </defs>
    <g id="2---General-Display/24px/List-add" stroke="none" stroke-width="1" fill="none" fill-rule="evenodd">
        <mask id="mask-2" fill="white">
            <use xlink:href="#path-1"></use>
        </mask>
        <use id="Combined-Shape" fill="var(--icon-color, #1c1c1c)" xlink:href="#path-1"></use>
        <g id="Grays-/-900" mask="url(#mask-2)" fill="var(--icon-color, #1c1c1c)">
            <rect id="NW900" x="0" y="0" width="24" height="24"></rect>
        </g>
    </g>
</svg>