<svg xmlns="http://www.w3.org/2000/svg" width="24" height="24" viewBox="0 0 24 24"><path fill="var(--icon-color, #1c1c1c)"  d="M20 21.474c-.001.29-.236.525-.526.526H4.526c-.29-.001-.525-.236-.526-.526V10.526c.001-.29.236-.525.526-.526h14.948c.29.001.525.236.526.526v10.948zM8 6c0-2.209 1.791-4 4-4s4 1.791 4 4v3H8V6zm11.474 3H17V6c0-2.761-2.239-5-5-5S7 3.239 7 6v3H4.526c-.842.001-1.525.684-1.526 1.526v10.948c.001.842.684 1.525 1.526 1.526h14.948c.842-.001 1.525-.684 1.526-1.526V10.526c-.001-.842-.684-1.525-1.526-1.526z"/></svg>