<svg xmlns="http://www.w3.org/2000/svg" width="16" height="16" viewBox="0 0 16 16"><path fill="var(--icon-color, #1c1c1c)" d="M3.929 2.929L3.08 1.118c.31-.145.825-.353 1.479-.56C5.582.235 6.608.03 7.589.003c1.53-.042 2.835.354 3.836 1.392.945 1.169 1.326 2.742.926 3.977-.223.766-.599 1.417-1.111 2.025-.264.313-.928.977-.975 1.046-.096.132-.538.633-.642.778-.42.582-.655 1.378-.655 2.779h-2c0-1.805.356-3.011 1.033-3.949.18-.249.625-.754.615-.738.154-.238.95-1.033 1.093-1.203.344-.409.583-.822.73-1.324.187-.578-.027-1.461-.51-2.066-.496-.512-1.267-.746-2.285-.718-.771.022-1.622.192-2.483.463-.328.104-.634.215-.908.326-.161.065-.272.113-.324.138zM7 14h2v2H7v-2z"/></svg>