<svg xmlns="http://www.w3.org/2000/svg" width="24" height="24" viewBox="0 0 24 24"><path d="M9.875 2h-6.75A1.125 1.125 0 0 0 2 3.125v6.75A1.125 1.125 0 0 0 3.125 11h6.75A1.125 1.125 0 0 0 11 9.875v-6.75A1.125 1.125 0 0 0 9.875 2zM10 9.875a.125.125 0 0 1-.125.125h-6.75A.125.125 0 0 1 3 9.875v-6.75A.125.125 0 0 1 3.125 3h6.75a.125.125 0 0 1 .125.125zM23.663 5.19L18.744.333a1 1 0 0 0-1.412-.078.957.957 0 0 0-.078.078L12.335 5.19a.977.977 0 0 0-.1 1.378 1.065 1.065 0 0 0 .1.1l4.919 5a1 1 0 0 0 1.412.078.718.718 0 0 0 .078-.078l4.919-4.858a1.142 1.142 0 0 0 0-1.616zM9.875 13h-6.75A1.125 1.125 0 0 0 2 14.125v6.75A1.125 1.125 0 0 0 3.125 22h6.75A1.125 1.125 0 0 0 11 20.875v-6.75A1.125 1.125 0 0 0 9.875 13zM10 20.875a.125.125 0 0 1-.125.125h-6.75A.125.125 0 0 1 3 20.875v-6.75A.125.125 0 0 1 3.125 14h6.75a.125.125 0 0 1 .125.125zM20.875 13h-6.75A1.125 1.125 0 0 0 13 14.125v6.75A1.125 1.125 0 0 0 14.125 22h6.75A1.125 1.125 0 0 0 22 20.875v-6.75A1.125 1.125 0 0 0 20.875 13zM21 20.875a.125.125 0 0 1-.125.125h-6.75a.125.125 0 0 1-.125-.125v-6.75a.125.125 0 0 1 .125-.125h6.75a.125.125 0 0 1 .125.125z" fill="var(--icon-color, #1c1c1c)"/></svg>