<svg xmlns="http://www.w3.org/2000/svg" width="24" height="24" viewBox="0 0 24 24"><path fill="var(--icon-color, #1c1c1c)" d="M19 5v4h-2.825c-.126-.344-.27-.678-.436-1H18V6h-3.688c-.348-.366-.728-.699-1.134-1H19zm-2.524 5c.077.327.139.66.178 1H22v2h-5.346c-.039.34-.101.673-.178 1H23v-4h-6.524zm-.301 5c-.126.344-.27.678-.436 1H19v2h-4.689c-.348.366-.728.699-1.134 1H20v-4h-3.825zM15 12c0 3.866-3.134 7-7 7s-7-3.134-7-7 3.134-7 7-7 7 3.134 7 7zm-1 0c0-3.314-2.686-6-6-6s-6 2.686-6 6 2.686 6 6 6 6-2.686 6-6zm-6.325 3.81c.677-.038 1.376-.224 1.91-.659.27-.22.484-.491.642-.813s.237-.693.237-1.112c0-.336-.084-.688-.254-1.055-.346-.751-1.175-1.214-1.973-1.306-.207-.024-.412-.015-.619-.003-.056.003-.618.051-.618.084V9h3V8H6.002L6 12c0-.024.626-.112.679-.12.245-.036.491-.062.739-.067.274-.006.559-.005.823.073.295.088.544.264.747.526.203.264.305.59.305.98 0 .244-.065.484-.194.723-.329.604-1.109.811-1.749.797-.445-.01-.954-.09-1.346-.308L6 15.634c0 .04.332.091.365.096.146.023.293.042.44.057.235.023.472.035.708.03.054-.002.108-.004.162-.007z"/></svg>