<svg xmlns="http://www.w3.org/2000/svg" width="16" height="16" viewBox="0 0 16 16"><path fill="var(--icon-color, #1c1c1c)"  d="M7 9H6V7h1v2zm-3 3h1v-2H4v2zm2 0h1v-2H6v2zM5 7H4v2h1V7zm11 7v1H0v-1h2V4.949C2 4.425 2.425 4 2.949 4H7v1H3v9h5v-1h1v1h2v-2.115c-1.692-.245-3-1.691-3-3.449V4.5C8 2.57 9.57 1 11.5 1S15 2.57 15 4.5v3.936c0 1.758-1.308 3.204-3 3.449V14h4zm-5-3.115v-.761L9.615 8.303l.796-.605.589.774V4h1v1.703l.589-.775.796.605L12 7.355v3.53c1.14-.232 2-1.242 2-2.449V4.5C14 3.122 12.878 2 11.5 2S9 3.122 9 4.5v3.936c0 1.207.86 2.217 2 2.449z"/></svg>