<svg xmlns="http://www.w3.org/2000/svg" width="16" height="16" viewBox="0 0 16 16"><path fill="var(--icon-color, #1c1c1c)" d="M6.996 7L2.321 2.343C3.581 1.085 5.226.22 6.996 0v7zm8.983 1.992c-.278 4.133-3.831 7.267-7.981 6.99C4.236 15.732 1.252 12.748 1 9V8h7V1h1.004v.016c4.149.276 7.253 3.843 6.975 7.976zm-.983-.998C14.748 4.799 12.208 2.247 9 2v7H1.995c.277 3.579 3.415 6.257 7.008 5.98 3.594-.276 6.27-3.407 5.993-6.986zM2.316 3.931l-.726-.702C.784 4.309.175 5.596 0 7h1c.163-1.134.676-2.178 1.316-3.069z"/><path fill="none" d="M0 0h16v16H0z"/></svg>