<svg enable-background="new 0 0 16 16" height="16" viewBox="0 0 16 16" width="16" xmlns="http://www.w3.org/2000/svg"><path d="m6.996 7-4.675-4.657c1.26-1.258 2.905-2.123 4.675-2.343zm-4.68-3.069-.726-.702c-.806 1.08-1.415 2.367-1.59 3.771h1c.163-1.134.676-2.178 1.316-3.069zm13.392 4.776-2.001 2-1.415-1.415 2.001-2c-.868-.414-1.88-.387-2.725.071-1.433.776-1.98 2.561-1.23 4.011-1.191 1.099-2.992 2.761-2.992 2.761-.023.02-.045.042-.066.065-.398.439-.367 1.118.07 1.518s1.114.37 1.513-.068l2.767-2.997c1.139.597 2.531.397 3.457-.499s1.175-2.283.621-3.447zm-13.713.293h7.005v-7c2.5.192 4.579 1.793 5.499 4h1.075c-.962-2.739-3.474-4.778-6.57-4.984v-.016h-1.004v7h-7v1c.205 3.053 2.224 5.599 5 6.573v-1.075c-2.193-.909-3.809-2.977-4.005-5.498z" fill="var(--icon-color, #1c1c1c)"/></svg>