<svg xmlns="http://www.w3.org/2000/svg" width="24" height="24" viewBox="0 0 24 24"><path fill="var(--icon-color, #1c1c1c)"  d="M6 12.5c0 .828-.672 1.5-1.5 1.5S3 13.328 3 12.5 3.672 11 4.5 11s1.5.672 1.5 1.5zm5 0c0 .828-.672 1.5-1.5 1.5S8 13.328 8 12.5 8.672 11 9.5 11s1.5.672 1.5 1.5zm5 0c0 .828-.672 1.5-1.5 1.5s-1.5-.672-1.5-1.5.672-1.5 1.5-1.5 1.5.672 1.5 1.5zm5 0c0 .828-.672 1.5-1.5 1.5s-1.5-.672-1.5-1.5.672-1.5 1.5-1.5 1.5.672 1.5 1.5zm1.454 5.5H1.546C.694 18 0 17.306 0 16.453V8.547C0 7.694.694 7 1.546 7h20.907C23.306 7 24 7.694 24 8.547v7.906c0 .853-.694 1.547-1.546 1.547zM1.546 8C1.245 8 1 8.245 1 8.547v7.906c0 .302.245.547.546.547h20.907c.302 0 .547-.245.547-.547V8.547c0-.302-.245-.547-.546-.547H1.546z"/></svg>