<svg enable-background="new 0 0 16 16" height="16" viewBox="0 0 16 16" width="16" xmlns="http://www.w3.org/2000/svg"><path d="m15.996 7.508-1.435 5.627-1.752-1.755-.071-.071-3.233 3.427-3.008-3.054-4.497 4.318-.002-1.419 4.5-4.319 2.991 3.035 2.542-2.695-1.702-1.705s5.667-1.389 5.667-1.389zm-9.996-1.508 3.534-3.533c.001.001.002.001.002.002l.709-.709c-.001-.001-.002-.001-.002-.002-.656-.656-1.465-1.157-2.366-1.454-.031-.011-.061-.024-.092-.034-.177-.055-.358-.1-.541-.139-.012-.003-.022-.007-.034-.009-.102-.021-.208-.032-.312-.048-.293-.044-.592-.074-.898-.074-.359 0-.709.037-1.051.098-.133.023-.264.052-.393.084-1.076.267-2.04.816-2.798 1.575zm-2.579 5.411.19-.19 7.032-7.031c.223.563.357 1.169.357 1.81 0 .342-.035.677-.101 1h1.011c.055-.326.09-.658.09-1 0-1.294-.414-2.49-1.111-3.47l-.72.72-6.905 6.905c-.283-.187-.548-.396-.788-.635l2.815-2.815-.707-.707-2.747 2.747c-.192-.287-.348-.599-.477-.925l2.523-2.523-.707-.707-2.121 2.12c-.033-.232-.055-.468-.055-.71 0-.234.02-.463.052-.689l1.423-1.423-.642-.641-.72-.72c-.698.981-1.113 2.177-1.113 3.473 0 2.389 1.4 4.446 3.421 5.411z" fill="var(--icon-color, #1c1c1c)"/></svg>