<svg xmlns="http://www.w3.org/2000/svg" width="16" height="16" viewBox="0 0 16 16"><path fill="var(--icon-color, #1c1c1c)" d="M16 13h-3.5L10 16V7l6 6zM6 6l3.534-3.533c.001.001.002.001.002.002l.709-.709c-.001-.001-.002-.001-.002-.002C9.587 1.102 8.778.601 7.877.304 7.846.293 7.816.28 7.785.27c-.177-.055-.358-.1-.541-.139C7.232.128 7.221.124 7.21.122 7.108.101 7.002.09 6.898.074 6.605.03 6.306 0 6 0c-.359 0-.709.037-1.051.098-.133.023-.264.052-.393.084-1.076.267-2.04.816-2.798 1.575L6 6zm-1.814 4.647l6.458-6.458c.11.285.2.579.259.885l1.089 1.089C11.993 6.109 12 6.055 12 6c0-1.294-.414-2.49-1.111-3.47l-.72.72-6.919 6.919c-.282-.187-.547-.398-.785-.637l2.827-2.827-.708-.707-2.752 2.753c-.191-.289-.347-.6-.476-.927l2.527-2.527-.707-.707L1.07 6.696C1.038 6.466 1 6.238 1 6c0-.234.02-.463.052-.689l1.423-1.423-.642-.641-.72-.72C.415 3.508 0 4.704 0 6c0 3.314 2.686 6 6 6 .704 0 1.373-.134 2-.356v-1.08c-.613.272-1.285.436-2 .436-.641 0-1.25-.132-1.814-.353z"/></svg>