<svg xmlns="http://www.w3.org/2000/svg" width="16" height="16" viewBox="0 0 16 16"><path fill="none" d="M0 0h16v16H0z"/><defs><path id="a" d="M.002 0h16v16h-16z"/></defs><g><path fill="var(--icon-color, #1c1c1c)" d="M12.002 0h-8v8h8V0zm-1 7.006h-6v-6h6v6z"/><path fill="var(--icon-color, #1c1c1c)" d="M7.002 2.006h2v1h-2zM3.766 10.19l1.266.574c.345.157.713.236 1.091.236h2.379c.276 0 .5.225.5.5s-.224.5-.5.5h-2.5v1h2.5c.827 0 1.5-.673 1.5-1.5s-.673-1.5-1.5-1.5H6.123c-.235 0-.464-.05-.679-.146L4.179 9.28C3.77 9.095 3.335 9 2.885 9h-.883v1h.883c.306 0 .602.064.881.19z"/><path fill="var(--icon-color, #1c1c1c)" d="M15.854 10.538c-.186-.345-.466-.585-.821-.662-.396-.087-.824.034-1.167.315l-2.864 1.971.562.838 2.9-2.008c.154-.125.285-.157.358-.138.02.003.092.003.149.118.045.09.024.209-.006.253l-2.4 2.639c-.599.713-1.478 1.136-2.413 1.136H7.661c-.735 0-1.445-.218-2.008-.596l-1.092-.936c-.452-.306-.98-.468-1.526-.468H2.002v1h1.033c.345 0 .679.103.919.261l1.092.936c.775.526 1.68.803 2.618.803h2.491c1.228 0 2.386-.553 3.163-1.478l2.418-2.662c.288-.384.355-.883.118-1.322zM.002 8h1v7h-1z"/></g></svg>