<svg xmlns="http://www.w3.org/2000/svg" width="24" height="24" viewBox="0 0 24 24"><path fill="var(--icon-color, #1c1c1c)" d="M16 14l7-2-2 7-1.311-1.265-.506-.504-4.674 4.674L10.497 18 5 23v-2.761l5.491-5.036 4 3.892 3.277-3.277-.223-.223L16 14zM10.5 1c-.415 0-.82.036-1.221.088l-.021-.019c-.006.008-.012.017-.019.025C4.596 1.714 1 5.69 1 10.5c0 3.189 1.583 6.011 4 7.734V16.94c-.651-.561-1.224-1.21-1.685-1.94H7.42v-1h-.004c-.231-.965-.353-1.974-.387-3h6.955c-.022.679-.103 1.344-.211 2h1.014c.101-.658.177-1.323.197-2h4.991c.011-.167.025-.333.025-.5C20 5.262 15.738 1 10.5 1zm-.731 1.037c.242-.021.484-.037.731-.037.249 0 .494.016.738.037.901 1.12 1.603 2.473 2.073 3.963H7.69c.471-1.491 1.175-2.841 2.079-3.963zM2.763 7h3.629c-.215.969-.34 1.974-.371 3H2.025c.063-1.064.318-2.076.738-3zm.01 7c-.422-.924-.677-1.935-.74-3h3.994c.032 1.023.148 2.03.366 3h-3.62zm3.876-8H3.302c1.135-1.809 2.929-3.158 5.046-3.713C7.617 3.39 7.046 4.647 6.649 6zm.371 4c.033-1.029.162-2.037.39-3h6.181c.229.964.356 1.973.389 3H7.02zm5.64-7.711c2.114.557 3.904 1.904 5.038 3.711H14.35c-.397-1.35-.962-2.61-1.69-3.711zM14.98 10c-.031-1.024-.156-2.03-.371-3h3.628c.42.924.675 1.936.738 3H14.98z"/></svg>