<svg xmlns="http://www.w3.org/2000/svg" width="24" height="24" viewBox="0 0 24 24"><path fill="var(--icon-color, #1c1c1c)" d="M9.512 5c-.326-.432-.513-.955-.512-1.5C9 2.119 10.119 1 11.5 1S14 2.119 14 3.5c0 .541-.176 1.067-.5 1.5H9.512zM24 12v6h-2.007c-.69 1.113-1.71 2.072-2.993 2.814V24h-4v-1.763c-.95.174-1.954.263-3 .263s-2.05-.089-3-.263V24H5v-3.186c-2.533-1.464-4-3.75-4-6.314 0-1.655.545-3.131 1.535-4.351C2.195 9.864 1.999 9.443 2 9V8C.895 8 0 7.104 0 6h1c0 .552.448 1 1 1v-.5C2 5.672 2.672 5 3.5 5S5 5.672 5 6.5 4.328 8 3.5 8H3v1c0 .165.082.32.218.413C5.148 7.587 8.227 6.5 12 6.5c1.51 0 2.925.205 4.224.594C16.832 5.248 18.556 4 20.5 4h.5l-.905 5.075c1.086.862 1.91 1.881 2.387 2.925H24zM3 7h.5c.276 0 .5-.224.5-.5S3.776 6 3.5 6s-.5.224-.5.5V7zm20.032 5.997h-1.197l-.124-.321c-.406-1.053-1.261-2.126-2.445-3.006l-.255-.19.776-4.453c-1.424.257-2.43 1.361-2.709 2.782l-.11.567-.546-.188c-1.334-.461-2.819-.707-4.424-.707-6.068 0-10.031 2.911-10.031 7.021 0 2.27 1.356 4.305 3.749 5.597l.263.142v2.787h2.006V21.02l.486.11c.627.142 1.262.264 1.903.321 1.807.158 3.503.054 5.023-.292l.612-.139v2.008h2.006v-2.787l.265-.141c1.351-.73 2.383-1.706 3.019-2.835l.144-.256h1.589v-4.012zM18 11c-.552 0-1 .448-1 1s.448 1 1 1 1-.448 1-1-.448-1-1-1z"/><path fill="none" d="M0 0h24v24H0z"/></svg>