<svg xmlns="http://www.w3.org/2000/svg" width="16" height="16" viewBox="0 0 16 16"><path fill="var(--icon-color, #1c1c1c)" d="M14.875 8c-.251-.728-.712-1.44-1.347-2.049.058-.731.214-1.858.466-3.371l.104-.623-.63.042c-1.354.09-2.502 1.03-2.858 2.34-.793-.223-1.665-.34-2.61-.34-2.472 0-4.513.693-5.839 1.869C2.06 5.775 2 5.643 2 5.5V5h.5C3.328 5 4 4.328 4 3.5S3.328 2 2.5 2 1 2.671 1 3.5V4H0v1h1v.5c0 .417.173.814.478 1.098C.847 7.418.5 8.401.5 9.5c0 1.683.914 3.193 2.5 4.202V16h3v-1.172c.634.114 1.303.172 2 .172.708 0 1.376-.06 2-.18V16h3v-2.45c.564-.421 1.042-.947 1.406-1.55H16V8h-1.125zM2 3.5c0-.276.224-.5.5-.5s.5.224.5.5-.224.5-.5.5H2v-.5zM15 11h-1.189l-.14.268c-.344.649-.844 1.203-1.454 1.612l-.217.15V15h-1v-1.46l-.63.17C9.66 13.9 8.866 14 8 14c-.802.004-1.601-.088-2.38-.276L5 13.57V15H4v-1.868l-.25-.144C2.306 12.153 1.5 10.894 1.5 9.5 1.5 6.873 4.05 5 8 5c1.061 0 2.008.16 2.835.46l.625.227.045-.663c.057-.843.597-1.576 1.384-1.882-.214 1.345-.34 2.339-.377 2.987l-.014.243.183.161c.696.612 1.158 1.359 1.333 2.084l.092.383H15v2zM6.276 3c-.177-.304-.277-.648-.276-1 0-1.105.896-2 2.001-2s2 .896 1.999 2.001c0 .352-.1.695-.276.999H6.276zM12 8c0 .552-.448 1-1 1s-1-.448-1-1 .448-1 1-1 1 .448 1 1z"/><path fill="none" d="M0 0h16v16H0z"/></svg>