<svg xmlns="http://www.w3.org/2000/svg" width="16" height="16" viewBox="0 0 16 16"><path fill="var(--icon-color, #1c1c1c)"  fill-rule="evenodd" clip-rule="evenodd" d="M10 12h1v1h-1v-1zm2 0h1v1h-1v-1zm1 1h1v1h-1v-1zm-2 0h1v1h-1v-1zm-2 0h1v1H9v-1zm4-2h1v1h-1v-1zm-2 0h1v1h-1v-1zm-2 0h1v1H9v-1zm1-1h1v1h-1v-1zm2 0h1v1h-1v-1zm1-1h1v1h-1V9zm-2 0h1v1h-1V9zm0-5h1v1h-1V4zM4 4h1v1H4V4zm0 7h1v1H4v-1zm5-2h1v1H9V9zm1-6v3h3V3h-3zM9 2h5v5H9V2zm-6 8v3h3v-3H3zM2 9h5v5H2V9zm1-6v3h3V3H3zM2 2h5v5H2V2zM1 1v4H0V0h5v1H1zm15 0v4h-1V1h-4V0h5v1zm-1 14v-4h1v5h-5v-1h4zM1 15h4v1H0v-5h1v4z"/></svg>