<svg xmlns="http://www.w3.org/2000/svg" width="16" height="16" viewBox="0 0 16 16"><path fill="var(--icon-color, #1c1c1c)" d="M2.697 12.596l.707.707 1.389-1.389.668.394c.402.237.835.417 1.288.534l.751.194V15h1v-1.964l.751-.193c.454-.117.887-.297 1.288-.534l.668-.394 1.389 1.389.707-.707-1.389-1.389.394-.668c.237-.402.417-.835.534-1.288l.194-.752H15v-1h-1.964l-.193-.751c-.117-.454-.297-.887-.534-1.288l-.394-.668 1.389-1.389-.707-.707-1.389 1.389-.668-.394c-.402-.237-.835-.417-1.288-.534L8.5 2.964V1h-1v1.964l-.751.193c-.453.117-.886.297-1.288.535l-.668.394-1.389-1.389-.707.707 1.389 1.389-.394.668c-.238.402-.418.835-.535 1.288l-.193.751H1v1h1.964l.193.751c.117.454.297.887.534 1.288l.394.668-1.388 1.389zm.134-1.548c-.282-.477-.5-.997-.642-1.548H0v-3h2.189c.142-.551.36-1.07.642-1.548L1.282 3.404l2.121-2.121 1.548 1.548c.479-.282.998-.5 1.549-.642V0h3v2.189c.551.142 1.07.36 1.548.642l1.548-1.548 2.121 2.121-1.548 1.548c.282.477.5.997.642 1.548H16v3h-2.189c-.142.551-.36 1.07-.642 1.548l1.548 1.548-2.121 2.121-1.548-1.548c-.477.282-.997.5-1.548.642V16h-3v-2.189c-.551-.142-1.07-.36-1.548-.642l-1.548 1.548-2.121-2.121 1.548-1.548zM8 11c-1.654 0-3-1.346-3-3s1.346-3 3-3 3 1.346 3 3-1.346 3-3 3zm0-5c-1.103 0-2 .897-2 2s.897 2 2 2 2-.897 2-2-.897-2-2-2z"/><path fill="none" d="M0 0h16v16H0z"/></svg>