<svg height="12" viewBox="0 0 12 12" width="12" xmlns="http://www.w3.org/2000/svg"><path d="m10.762 6.674c-.063.058-.131.11-.2.164a4.135 4.135 0 0 1 -.351.265c-.015.009-.031.015-.046.025a3.836 3.836 0 0 1 -1.4.524 3.546 3.546 0 0 1 -.623.062 3.609 3.609 0 0 1 -.642-.065c-.09-.015-.177-.033-.265-.055s-.17-.05-.254-.078a3.872 3.872 0 0 1 -.686-.294l-3.858 4.313a1.4 1.4 0 0 1 -1.972.109l-.056-.053a1.4 1.4 0 0 1 0-1.975l.056-.053 4.313-3.856a3.7 3.7 0 0 1 -.293-.683c-.029-.084-.057-.169-.08-.256s-.039-.174-.054-.264a3.609 3.609 0 0 1 -.065-.646 3.8 3.8 0 0 1 .2-1.163v-.011a3.89 3.89 0 0 1 .257-.613l.025-.046a3.906 3.906 0 0 1 .332-.516l.076-.092a3.831 3.831 0 0 1 .374-.4c.05-.047.108-.087.161-.131a3.875 3.875 0 0 1 .378-.286c.086-.055.179-.1.27-.147a3.885 3.885 0 0 1 .348-.17 3.821 3.821 0 0 1 .41-.128c.094-.026.183-.061.283-.08a3.91 3.91 0 0 1 .743-.075 3.844 3.844 0 0 1 1.47.293l-2.593 2.6 2.087 2.087 2.6-2.6a3.77 3.77 0 0 1 .221 2.2c-.016.082-.043.159-.064.239a3.736 3.736 0 0 1 -.135.436c-.037.095-.082.184-.126.275a3.727 3.727 0 0 1 -.182.335c-.059.1-.122.189-.19.28s-.135.17-.207.251a3.768 3.768 0 0 1 -.262.278z" fill="var(--icon-color, #1c1c1c)"/></svg>