<svg xmlns="http://www.w3.org/2000/svg" width="16" height="16" viewBox="0 0 16 16"><path fill="var(--icon-color, #1c1c1c)"  d="M13 15c-1.103 0-2-.897-2-2s.897-2 2-2 2 .897 2 2-.897 2-2 2zM3 10c-1.103 0-2-.897-2-2s.897-2 2-2 2 .897 2 2-.897 2-2 2zm10-9c1.103 0 2 .897 2 2s-.897 2-2 2-2-.897-2-2 .897-2 2-2zm0 9c-.955.002-1.852.461-2.413 1.234l-4.73-2.366C5.941 8.592 6 8.304 6 8s-.059-.592-.143-.869l4.73-2.366C11.148 5.539 12.045 5.998 13 6c1.654 0 3-1.346 3-3s-1.346-3-3-3-3 1.346-3 3c0 .304.059.592.143.869l-4.73 2.366C4.852 5.461 3.955 5.002 3 5 1.346 5 0 6.346 0 8s1.346 3 3 3c.955-.002 1.852-.461 2.413-1.234l4.73 2.366c-.091.281-.139.573-.143.868 0 1.654 1.346 3 3 3s3-1.346 3-3-1.346-3-3-3z"/></svg>