<svg xmlns="http://www.w3.org/2000/svg" width="24" height="24" viewBox="0 0 24 24"><path fill="var(--icon-color, #1c1c1c)" d="M11.5 1L22 4l-1.637 5.729C18.833 15.084 16.5 23 11.5 23 6 23 4.167 15.084 2.637 9.729L1 4l10.5-3zm0 1.04L2.236 4.687l1.362 4.767c.102.354.204.72.309 1.094C5.339 15.65 7.121 22 11.5 22c4.317 0 6.561-7.854 7.902-12.546l1.362-4.767L11.5 2.04zM11 11V4.36L5.183 6.178 6.296 11H11zm1 1v7.638c1.288-.891 2.422-3.181 2.853-4.052.322-.651.879-2.306 1.288-3.586H12zm0-1h5.5s-1.16 3.836-1.751 5.03C14.552 18.447 13 21 11 21v-9H5.5L4 5.5 12 3v8z"/></svg>