<svg xmlns="http://www.w3.org/2000/svg" width="24" height="24" viewBox="0 0 24 24"><path fill="var(--icon-color, #1c1c1c)" d="M10.34 20.229l1.897-.508-2.478-2.478-.508 1.897 1.089 1.089zm-.05-3.869l2.829 2.829 8.465-8.465-2.829-2.829-8.465 8.465zm8.465-9.921l4.243 4.243-9.765 9.765-5.794 1.551 1.551-5.794 9.765-9.765zM6.196 18.951l-.684.73c-1.948-1.823-2.775-4.99-2.315-8.274-.118.005-.236.009-.355.013-.383.012-.752.018-1.13.019-.212.001-.726-.002-.713-.002v-1c-.009 0 .502.002.71.002.369-.001.728-.007 1.101-.019.19-.005.38-.013.568-.022.223-1.015.57-2.03 1.046-3.008 2.41-4.992 6.084-6.485 8.24-4.612 1.999 1.736.721 5.323-2.925 7.232-.993.563-2.323.938-3.914 1.165-.522.075-1.059.132-1.608.173-.479 3.051.248 5.983 1.979 7.603zm-.513-8.767c1.478-.211 2.697-.555 3.577-1.053 3.118-1.633 4.109-4.417 2.748-5.599-1.579-1.371-4.528-.173-6.684 4.293-.397.816-.696 1.659-.903 2.502.431-.037.852-.084 1.262-.143z"/></svg>