<svg xmlns="http://www.w3.org/2000/svg" width="16" height="16" viewBox="0 0 16 16"><path fill="var(--icon-color, #1c1c1c)" d="M4.42 3.206c.863-1.528 2.528-2.197 3.84-2.197l.114.002c.814.024 1.449.304 1.656.729.233.478-.093 1.089-.407 1.516-1.435 1.949-3.897 2.539-6.068 2.702.048-.834.3-1.752.865-2.752zm-.997 3.762l.17-.008c2.386-.171 5.156-.829 6.836-3.112.866-1.178.75-2.034.501-2.546C10.553.53 9.606.01 8.401 0 6.896-.012 4.718.645 3.549 2.714c-.672 1.19-.953 2.295-.99 3.293C1.998 6 .228 5.998 0 5.998v1.004c.204 0 1.706-.001 2.42.003-.096 2.073-.161 5.281 1.711 7.332l.738-.674c-1.622-1.777-1.536-4.782-1.446-6.695zm4.802 5.013l4.852-4.848 1.516 1.517-4.852 4.846-1.516-1.515zm4.852-6.262l-5.56 5.555-.822.821L5.718 16l3.908-.976.115-.115L16 8.653l-2.923-2.934z"/></svg>