<svg xmlns="http://www.w3.org/2000/svg" width="24" height="24" viewBox="0 0 24 24"><path fill="var(--icon-color, #1c1c1c)"  d="M15.777 6.341C14.365 5.197 12.516 4.759 10.7 5.14c-2.24.471-4.021 2.215-4.537 4.441-.372 1.606-.104 3.24.754 4.601.801 1.273 1.399 2.707 1.943 4.066l.139.346v2.903c0 .827.673 1.499 1.5 1.499h3c.827 0 1.5-.673 1.5-1.499v-2.903l.186-.464c.518-1.293 1.184-2.557 1.829-3.78l.306-.582c.445-.849.68-1.806.68-2.768-.001-1.815-.811-3.513-2.223-4.659zm-1.778 15.156c0 .276-.224.5-.5.5h-3c-.276 0-.5-.224-.5-.5v-.5h4v.5zm-4-1.499v-1h4v1h-4zm6.434-6.693l-.305.58c-.656 1.246-1.335 2.533-1.873 3.875l-.095.239H9.837l-.048-.121c-.561-1.402-1.18-2.884-2.026-4.228-.714-1.134-.937-2.499-.625-3.843.421-1.82 1.936-3.303 3.768-3.688 1.52-.321 3.064.045 4.241.999C16.324 8.073 17 9.488 17 11.001c-.001.812-.192 1.587-.567 2.304zM9.18 3.186l-.518-1.931.966-.254.518 1.926-.966.259zm-4.631.421L5.963 5.02l-.707.708-1.414-1.414.707-.707zm-.95 6.351L1.668 9.44l.259-.965 1.932.518-.26.965zm.479 3.375l.259.965-1.932.517-.259-.965 1.932-.517zm16.32-3.375l-.259-.965 1.932-.518.259.965-1.932.518zm-.478 3.375l1.932.517-.259.965-1.932-.517.259-.965zm.215-8.969l-1.414 1.413-.707-.707 1.414-1.413.707.707zm-5.32-1.16l-.966-.259.518-1.931.966.259-.518 1.931z"/></svg>