<svg height="16" viewBox="0 0 16 16" width="16" xmlns="http://www.w3.org/2000/svg"><path d="m5 9a3 3 0 1 0 -3-3 3 3 0 0 0 3 3zm0-5a2 2 0 1 1 -2 2 2.006 2.006 0 0 1 2-2zm4.18.18-.74-.74a2.965 2.965 0 0 1 2.56-1.44 3 3 0 1 1 -2.12 5.12l.71-.71a1.955 1.955 0 0 0 1.41.59 2 2 0 1 0 -1.82-2.82zm6.52 7.82h-1.13a3.662 3.662 0 0 0 -3.57-2 4.851 4.851 0 0 0 -1.71.29l-.75-.75a5.53 5.53 0 0 1 2.46-.54 4.731 4.731 0 0 1 4.7 3zm-6 1h-1.13a3.391 3.391 0 0 0 -1.108-1.3 3.349 3.349 0 0 0 -.452-.269c-.025-.013-.049-.026-.075-.038a3.686 3.686 0 0 0 -.432-.166c-.052-.017-.1-.036-.154-.051a4.4 4.4 0 0 0 -.455-.1c-.063-.011-.121-.026-.186-.035a5.638 5.638 0 0 0 -.708-.041 5.287 5.287 0 0 0 -.842.071c-.061.009-.119.021-.178.033a4.383 4.383 0 0 0 -.583.157 3.378 3.378 0 0 0 -1.967 1.739h-1.13a4.366 4.366 0 0 1 2.242-2.458l.022-.009c.11-.053.225-.1.341-.143s.214-.083.326-.118.2-.06.3-.086c.147-.037.3-.067.451-.093.085-.014.168-.03.254-.041a6.325 6.325 0 0 1 .764-.052 6.3 6.3 0 0 1 .916.07c.088.013.169.036.254.053a5.538 5.538 0 0 1 .594.144c.09.029.176.063.263.1a4.682 4.682 0 0 1 .506.22c.082.041.161.084.239.13a4.422 4.422 0 0 1 .445.3c.042.032.092.056.133.089l-.01.006a4.319 4.319 0 0 1 1.36 1.888z" fill="var(--icon-color, #1c1c1c)"/></svg>