<svg height="24" viewBox="0 0 24 24" width="24" xmlns="http://www.w3.org/2000/svg"><path d="m7.99 5a5 5 0 1 0 5.01 5 5 5 0 0 0 -5.01-5zm0 9a4 4 0 1 1 4.01-4 3.99 3.99 0 0 1 -4.01 4zm5.2-8.83-.708-.71a5 5 0 1 1 3.535 8.54 5.067 5.067 0 0 1 -1.827-.34l.459-.91a3.909 3.909 0 0 0 1.368.25 4 4 0 1 0 -2.825-6.83zm10.81 13.83h-1.247a8.813 8.813 0 0 0 -6.886-3 10.123 10.123 0 0 0 -2.724.37l-.8-.8a10.937 10.937 0 0 1 3.524-.57 9.611 9.611 0 0 1 8.133 4zm-7.734 2h-1.247a7.645 7.645 0 0 0 -1.7-1.5 9.32 9.32 0 0 0 -1.075-.605 8.126 8.126 0 0 0 -.818-.33c-.06-.02-.11-.05-.159-.06-.24-.08-.479-.14-.719-.2-.083-.025-.166-.047-.249-.067l-.054-.014c-.228-.049-.457-.079-.685-.109-.12-.02-.229-.04-.349-.05a9.6 9.6 0 0 0 -1.078-.065 9.032 9.032 0 0 0 -1.277.09c-.089.009-.178.025-.267.036-.16.024-.312.065-.469.1-.185.038-.373.067-.552.117a8.22 8.22 0 0 0 -4.321 2.657h-1.247a8.9 8.9 0 0 1 4.61-3.43c.31-.105.629-.193.954-.27.107-.024.219-.044.324-.07.024 0 .05-.007.075-.012q.46-.091.938-.144c.035 0 .07-.011.1-.014h.027c.361-.035.727-.059 1.1-.059a11.354 11.354 0 0 1 1.327.079h.02c.16.02.32.06.479.08l.1.02a10.136 10.136 0 0 1 3.172 1.094.807.807 0 0 1 .12.056l-.008.008a8.574 8.574 0 0 1 2.928 2.662z" fill="var(--icon-color, #1c1c1c)"/></svg>