<svg xmlns="http://www.w3.org/2000/svg" width="24" height="24" viewBox="0 0 24 24"><path fill="var(--icon-color, #1c1c1c)" d="M17.5 12.01c-3.038 0-5.5 2.462-5.5 5.5S14.462 23 17.5 23s5.5-2.452 5.5-5.49c0-3.037-2.462-5.5-5.5-5.5zm-4.5 5.5c0-2.481 2.019-4.5 4.5-4.5 1.06 0 2.023.384 2.793 1L14 20.303c-.616-.77-1-1.733-1-2.793zM17.5 22c-1.06 0-2.023-.374-2.793-.99L21 14.717c.616.77 1 1.733 1 2.793 0 2.481-2.019 4.49-4.5 4.49zM23 7.998V5.01h-5.991L13 1 8.968 5.01H3.5C2.119 5.01 1 6.129 1 7.51v13.585C1 22.153 1.857 23 2.915 23h7.048v-.99H2.915c-.505 0-.915-.41-.915-.915V9.499c.419.316.935.501 1.5.501H23v-.99h-4.012L19.998 8l-1.989-2H22v1.998h1zM3.5 9.01c-.827 0-1.5-.673-1.5-1.5S2.673 6 3.5 6h4.468l-3 3.01H3.5zM18.584 8l-1.01 1.01H6.383l6.606-6.606L18.584 8z"/></svg>