<svg xmlns="http://www.w3.org/2000/svg" width="16" height="16" viewBox="0 0 16 16"><path fill="var(--icon-color, #1c1c1c)" d="M12 13c0-.552.448-1 1-1s1 .448 1 1-.448 1-1 1-1-.448-1-1zm3-8V3h-3.004L14 5.004 13.004 6H16v8.085C16 15.143 15.143 16 14.085 16H1.915C.857 16 0 15.143 0 14.085V4.5l.042.034c-.003-.213.016-.432.07-.655C.387 2.743 1.497 2 2.673 2h4.323l2-2 2 2H16v3h-1zM1.043 4.5c0 .827.677 1.5 1.509 1.5h.443l3-3H2.552c-.832 0-1.509.673-1.509 1.5zM15 7H2.552C1.966 7 1.428 6.798 1 6.463v7.622c0 .505.41.915.915.915h12.17c.505 0 .915-.41.915-.915V7zm-2.414-1.996l-3.59-3.59L4.41 6h7.181l.995-.996z"/></svg>