<?xml version="1.0" encoding="UTF-8"?>
<svg width="24px" height="24px" viewBox="0 0 24 24" version="1.1" xmlns="http://www.w3.org/2000/svg" xmlns:xlink="http://www.w3.org/1999/xlink">
    <!-- Generator: Sketch 61.2 (89653) - https://sketch.com -->
    <title>2 - General Display/24px/Zoom</title>
    <desc>Created with Sketch.</desc>
    <g id="2---General-Display/24px/Zoom" stroke="none" stroke-width="1" fill="none" fill-rule="evenodd">
        <path d="M9.5,2 C13.642,2 17,5.358 17,9.5 C17,11.21 16.421,12.782 15.457,14.044 L15.457,14.044 L22,20.586 L20.586,22 L14.043,15.458 C12.782,16.421 11.21,17 9.5,17 C5.358,17 2,13.642 2,9.5 C2,5.358 5.358,2 9.5,2 Z M9.5,3 C5.916,3 3,5.916 3,9.5 C3,13.084 5.916,16 9.5,16 C13.084,16 16,13.084 16,9.5 C16,5.916 13.084,3 9.5,3 Z M10,6 L10,9 L13,9 L13,10 L10,10 L10,13 L9,13 L9,10 L6,10 L6,9 L9,9 L9,6 L10,6 Z" id="Combined-Shape" fill="var(--icon-color, #1c1c1c)"></path>
    </g>
</svg>