<?xml version="1.0" encoding="UTF-8"?>
<svg width="16px" height="16px" viewBox="0 0 16 16" version="1.1" xmlns="http://www.w3.org/2000/svg" xmlns:xlink="http://www.w3.org/1999/xlink">
    <!-- Generator: Sketch 55 (78076) - https://sketchapp.com -->
    <title>Group 17</title>
    <desc>Created with Sketch.</desc>
    <g id="0705" stroke="none" stroke-width="1" fill="none" fill-rule="evenodd">
        <g id="BS-0705" transform="translate(-1283.000000, -1119.000000)" fill="#000000" fill-rule="nonzero">
            <g id="Group-17" transform="translate(1283.000000, 1119.000000)">
                <circle id="Oval" cx="7.89444444" cy="4.66488889" r="1"></circle>
                <path d="M7.89444444,0.789333333 C11.812,0.789333333 14.9993333,3.97666667 14.9993333,7.89422222 C14.9993333,11.8117778 11.812,14.9991111 7.89444444,14.9991111 C3.97688889,14.9991111 0.789333333,11.812 0.789333333,7.89422222 C0.789333333,3.97644444 3.97666667,0.789333333 7.89444444,0.789333333 L7.89444444,0.789333333 Z M7.89444444,-5.59552404e-14 C3.53444444,-5.59552404e-14 -5.59552404e-14,3.53444444 -5.59552404e-14,7.89444444 C-5.59552404e-14,12.2544444 3.53444444,15.7888889 7.89444444,15.7888889 C12.2544444,15.7888889 15.7888889,12.2544444 15.7888889,7.89444444 C15.7888889,3.53444444 12.2542222,-5.59552404e-14 7.89444444,-5.59552404e-14 L7.89444444,-5.59552404e-14 Z" id="Shape"></path>
                <rect id="Rectangle" x="7.34177778" y="6.50644444" width="1.10511111" height="5.39644444"></rect>
            </g>
        </g>
    </g>
</svg>