<?xml version="1.0" encoding="UTF-8"?>
<svg width="24px" height="23px" viewBox="0 0 24 23" version="1.1" xmlns="http://www.w3.org/2000/svg" xmlns:xlink="http://www.w3.org/1999/xlink">
    <!-- Generator: Sketch 55 (78076) - https://sketchapp.com -->
    <title>Printer</title>
    <desc>Created with Sketch.</desc>
    <defs>
        <path d="M17.8473896,14.0897436 L17.8473896,21 L4.24096386,21 L4.24096386,14.0897436 L2.12048193,14.0897436 L2.12048193,13.0128205 L19.9678715,13.0128205 L19.9678715,14.0897436 L17.8473896,14.0897436 Z M17.3172691,14.0897436 L4.77108434,14.0897436 L4.77108434,20.4615385 L17.3172691,20.4615385 L17.3172691,14.0897436 Z M22,17.4102564 L18.8192771,17.4102564 L18.8192771,16.8717949 L21.4698795,16.8717949 L21.4698795,7.60217949 C21.4693715,7.02230128 21.0069739,6.5523141 20.4362329,6.55128205 L20.4361446,6.55128205 L1.56385542,6.55128205 C0.993026104,6.5523141 0.530628514,7.02230128 0.530120482,7.60213462 L0.530120482,7.60217949 L0.530120482,16.8717949 L3.26907631,16.8717949 L3.26907631,17.4102564 L0,17.4102564 L0,7.60217949 C0.000508032129,6.72491346 0.70024498,6.01385256 1.56376707,6.01282051 L20.4361446,6.01282051 C21.299755,6.01385256 21.999492,6.72491346 22,7.60213462 L22,7.60217949 L22,17.4102564 Z M20.2329317,9.33333333 L19.7028112,9.33333333 L19.7028112,8.43589744 L17.8473896,8.43589744 L17.8473896,7.8974359 L20.2329317,7.8974359 L20.2329317,9.33333333 Z M17.8473896,5.02564103 L17.3172691,5.02564103 L17.3172691,0.538461538 L4.77108434,0.538461538 L4.77108434,5.02564103 L4.24096386,5.02564103 L4.24096386,0 L17.8473896,0 L17.8473896,5.02564103 Z" id="path-printer"></path>
    </defs>
    <g id="0700" stroke="none" stroke-width="1" fill="none" fill-rule="evenodd">
        <g id="BS-0700" transform="translate(-1868.000000, -436.000000)">
            <g id="Printer" transform="translate(1869.000000, 437.000000)">
                <mask id="mask-2" fill="white">
                    <use xlink:href="#path-printer"></use>
                </mask>
                <use id="Combined-Shape" stroke="#000000" stroke-width="0.4" fill="#1C1C1C" fill-rule="nonzero" xlink:href="#path-printer"></use>
            </g>
        </g>
    </g>
</svg>
