<svg xmlns="http://www.w3.org/2000/svg" width="24" height="24" viewBox="0 0 24 24"><path fill="var(--icon-color, #1c1c1c)" d="M7 16H5.915c-.276.781-1.133 1.19-1.914.914S2.81 15.781 3.087 15s1.133-1.19 1.914-.914c.427.151.763.487.914.914H9v1H8v1H7v-1zM2 4h20c1.105 0 2 .895 2 2v12c0 1.105-.895 2-2 2H2c-1.105 0-2-.895-2-2V6c0-1.105.895-2 2-2zm0 1c-.552 0-1 .448-1 1v12c0 .552.448 1 1 1h20c.552 0 1-.448 1-1V6c0-.552-.448-1-1-1H2zm2.5 10c-.276 0-.5.224-.5.5s.224.5.5.5.5-.224.5-.5-.224-.5-.5-.5zM3 7h6v2H3V7zm11 7h1v1h-1v-1zm2 0h1v1h-1v-1zm2 0h1v1h-1v-1zm2 0h1v1h-1v-1zm-6 2h1v1h-1v-1zm2 0h1v1h-1v-1zm2 0h1v1h-1v-1zm2 0h1v1h-1v-1z"/></svg>