<svg xmlns="http://www.w3.org/2000/svg" width="16" height="16" viewBox="0 0 16 16"><path fill="var(--icon-color, #1c1c1c)" d="M6 10H4.915c-.276.781-1.133 1.19-1.914.914C2.22 10.638 1.81 9.781 2.087 9s1.133-1.19 1.914-.914c.427.151.763.487.914.914H7v2H6v-1zM1.333 3h13.334C15.403 3 16 3.597 16 4.333v7.334c0 .736-.597 1.333-1.333 1.333H1.333C.597 13 0 12.403 0 11.667V4.333C0 3.597.597 3 1.333 3zm0 1C1.149 4 1 4.149 1 4.333v7.334c0 .184.15.333.333.333h13.334c.184 0 .333-.15.333-.333V4.333c0-.184-.149-.333-.333-.333H1.333zM3.5 9c-.276 0-.5.224-.5.5s.224.5.5.5.5-.224.5-.5-.224-.5-.5-.5zM2 5h4v1H2V5zm11 5h1v1h-1v-1zm-2 0h1v1h-1v-1zm-2 0h1v1H9v-1zm0-2h1v1H9V8zm2 0h1v1h-1V8zm2 0h1v1h-1V8z"/></svg>