<svg xmlns="http://www.w3.org/2000/svg" width="16" height="16" viewBox="0 0 16 16"><path fill="var(--icon-color, #1c1c1c)" d="M4.915 9H7v2H6v-1H4.915c-.276.781-1.133 1.19-1.914.914C2.22 10.638 1.81 9.781 2.087 9s1.133-1.19 1.914-.914c.427.151.763.487.914.914zM1 3h14c.552 0 1 .448 1 1v8c0 .552-.448 1-1 1H1c-.552 0-1-.448-1-1V4c0-.552.448-1 1-1zm0 1v8h14V4H1zm2.5 5c-.276 0-.5.224-.5.5s.224.5.5.5.5-.224.5-.5-.224-.5-.5-.5zm7.646-1.146c-.196-.196-.196-.512 0-.708s.512-.196.708 0l1.5 1.5c.196.195.196.512.001.707l-.001.001-1.5 1.5c-.196.196-.512.196-.708 0s-.196-.512 0-.708L12.293 9l-1.147-1.146z"/></svg>