<svg xmlns="http://www.w3.org/2000/svg" width="24" height="24" viewBox="0 0 24 24"><path fill="var(--icon-color, #1c1c1c)" d="M17.5 12c-3.038 0-5.5 2.462-5.5 5.5s2.462 5.5 5.5 5.5 5.5-2.462 5.5-5.5-2.462-5.5-5.5-5.5zm2.5 7h-3v-4h1v3h2v1zM1 8h1c0 .916 2.168 2 5 2s5-1.084 5-2h1c0 1.657-2.686 3-6 3S1 9.657 1 8zm0 3h1c0 .916 2.168 2 5 2s5-1.084 5-2h1c0 1.657-2.686 3-6 3s-6-1.343-6-3zm9 5.595c-.883.256-1.906.405-3 .405-3.314 0-6-1.343-6-3h1c0 .916 2.168 2 5 2 1.146 0 2.171-.182 3-.454v1.049zM18 4V2l5 3-5 3V6h-8l2-2h6zM7 7c.718 0 1.392-.071 2-.19v1.015C8.374 7.937 7.702 8 7 8 3.686 8 1 6.657 1 5s2.686-3 6-3c1.094 0 2.117.149 3 .405v1.049C9.171 3.182 8.146 3 7 3 4.168 3 2 4.084 2 5s2.168 2 5 2z"/></svg>