<svg xmlns="http://www.w3.org/2000/svg" width="16" height="16" viewBox="0 0 16 16"><path d="M6,7a9.947,9.947,0,0,0,4.035-.784L9.4,5.4A9.357,9.357,0,0,1,6,6C3.168,6,1,4.916,1,4S3.168,2,6,2c.344,0,.677.017,1,.047v-1C6.674,1.018,6.342,1,6,1,2.686,1,0,2.343,0,4S2.686,7,6,7Zm6-3V6l4-2.5L12,1V3H8.353L7,4ZM1,7H0c0,1.657,2.686,3,6,3,.342,0,.674-.02,1-.048V8.943A9.717,9.717,0,0,1,6,9C3.168,9,1,7.916,1,7ZM12.5,9A3.5,3.5,0,1,0,16,12.5,3.5,3.5,0,0,0,12.5,9ZM15,13H13v2H12V13H10V12h2V10h1v2h2ZM1,10H0c0,1.657,2.686,3,6,3,.342,0,.674-.02,1-.048V11.943A9.717,9.717,0,0,1,6,12C3.168,12,1,10.916,1,10Z" fill="var(--icon-color, #1c1c1c)"/></svg>