<svg xmlns="http://www.w3.org/2000/svg" width="16" height="16" viewBox="0 0 16 16"><title>Account-information-16px</title><path d="M7,7c3.314,0,6-1.343,6-3S10.314,1,7,1,1,2.343,1,4,3.686,7,7,7ZM7,2c2.832,0,5,1.084,5,2S9.832,6,7,6,2,4.916,2,4,4.168,2,7,2ZM6,8.953v1C3.163,9.716,1,8.486,1,7H2C2,7.8,3.674,8.737,6,8.953Zm0,3v1C3.163,12.716,1,11.486,1,10H2C2,10.8,3.674,11.737,6,11.953ZM11.5,8A3.5,3.5,0,1,0,15,11.5,3.5,3.5,0,0,0,11.5,8Zm.5,6H11V11h1Zm0-4H11V9h1Z" fill="var(--icon-color, #1c1c1c)"/><rect width="16" height="16" fill="none"/></svg>