<svg xmlns="http://www.w3.org/2000/svg" width="24" height="24" viewBox="0 0 24 24"><path fill="var(--icon-color, #1c1c1c)" d="M17.5 12c-3.038 0-5.5 2.462-5.5 5.5s2.462 5.5 5.5 5.5 5.5-2.462 5.5-5.5-2.462-5.5-5.5-5.5zM13 17.5c0-2.481 2.019-4.5 4.5-4.5 1.06 0 2.023.384 2.793 1L14 20.293c-.616-.77-1-1.733-1-2.793zm4.5 4.5c-1.06 0-2.023-.384-2.793-1L21 14.707c.616.77 1 1.733 1 2.793 0 2.481-2.019 4.5-4.5 4.5zM15 6h5v1h-5V6zm0 3h5v1h-5V9zm-5 9v1H4c-1.657 0-3-1.343-3-3V7h4v1H2v8c0 1.105.895 2 2 2s2-.895 2-2V3h17v8h-1V4H7v12c0 .768-.289 1.469-.764 2H10zm-1-8h4V6H9v4zm1-3h2v2h-2V7z"/></svg>