<svg xmlns="http://www.w3.org/2000/svg" width="24" height="24" viewBox="0 0 24 24"><path fill="var(--icon-color, #1c1c1c)" d="M15 12v2l-5-3 5-3v2h5.971L23 12h-8zm.803 7.94l-2.533-3.765c-.305-.463-.908-.631-1.412-.394l-1.12.526c-1.006.472-2.622-.642-3.502-2.64l-.436-.99c-.884-2.011-.629-4.028.397-4.51l1.122-.527c.493-.238.751-.784.62-1.312L7.854 1.883c-.079-.327-.296-.604-.597-.754-.538-.27-1.234-.142-2.506.636C2.785 2.969 2.18 3.443 1.813 4.28.587 7.312.746 11.162 2.3 14.695l.424.96c1.557 3.537 4.266 6.199 7.284 7.238.832.26 1.923.033 3.789-.552.982-.307 2.042-.999 2.163-1.46.086-.32.03-.665-.157-.941zm-2.304 1.448c-1.017.318-2.051.612-2.729.612-.18 0-.332-.02-.463-.061-2.739-.943-5.242-3.446-6.668-6.687l-.423-.962c-1.427-3.24-1.605-6.843-.476-9.635.223-.508.585-.844 2.533-2.038C6.151 2.08 6.544 2 6.7 2c.053 0 .081.009.108.022.038.019.064.054.074.096l1.084 4.447c.019.074-.015.143-.082.175l-1.112.522c-1.601.752-1.991 3.308-.888 5.818l.437.989c.881 2.001 2.454 3.345 3.914 3.346.33 0 .643-.068.929-.203l1.119-.525c.021-.004.041-.006.059-.006.041 0 .072.012.093.044l2.539 3.773c.013.019.021.041.024.063-.191.201-.794.606-1.499.827z"/><path fill="none" d="M0 0h24v24H0V0z"/></svg>