<svg xmlns="http://www.w3.org/2000/svg" width="24" height="24" viewBox="0 0 24 24"><title>Card-credit-manager-24px</title><path d="M20.822,12.264l-2.39,2.391,1.912,1.912,2.391-2.39a3.5,3.5,0,0,1-4.922,4.4l-3.58,4a1.279,1.279,0,0,1-1.806.1l-.052-.049a1.278,1.278,0,0,1,0-1.809l.052-.049,4-3.581a3.5,3.5,0,0,1,4.4-4.922ZM13,13h2V11H13Zm-2-2H8v2h3ZM22,3H2A2,2,0,0,0,0,5V17a2,2,0,0,0,2,2H12V18H2a1,1,0,0,1-1-1V5A1,1,0,0,1,2,4H22a1,1,0,0,1,1,1v7h1V5A2,2,0,0,0,22,3ZM3,11v2H6V11Zm0,5h8V15H3Z" fill="var(--icon-color, #1c1c1c)"/><path d="M0,0H24V24H0Z" fill="none"/></svg>