<svg xmlns="http://www.w3.org/2000/svg" width="16" height="16" viewBox="0 0 16 16"><path fill="var(--icon-color, #1c1c1c)"  d="M13 11h1v1h-1v-1zM7 9H4v1h3V9zM3 5V2h8v3H3zm1-1h6V3H4v1zM2 1h10v5h1V0H1v6h1V1zm9 11h1v-1h-1v1zm2 2h1v-1h-1v1zm-2 0h1v-1h-1v1zm5-5.667v6.334c0 .736-.597 1.333-1.334 1.333H3.333C2.597 16 2 15.403 2 14.667V8.333C2 7.597 2.597 7 3.333 7h11.334C15.403 7 16 7.597 16 8.333zm-1 0c0-.184-.149-.333-.333-.333H3.333C3.149 8 3 8.149 3 8.333v6.334c0 .184.149.333.333.333h11.334c.184 0 .333-.149.333-.333V8.333zM6.915 12H9v2H8v-1H6.915c-.243.689-.948 1.102-1.668.978s-1.246-.747-1.246-1.478.526-1.355 1.246-1.478 1.425.289 1.668.978zM6 12.5c0-.276-.224-.5-.5-.5s-.5.224-.5.5.224.5.5.5.5-.224.5-.5z"/></svg>