<svg xmlns="http://www.w3.org/2000/svg" width="16" height="16" viewBox="0 0 16 16"><path fill="var(--icon-color, #1c1c1c)" d="M7 10v1H6v-1H4.915c-.276.781-1.133 1.19-1.914.914C2.22 10.638 1.81 9.781 2.087 9s1.133-1.19 1.914-.914c.427.151.763.487.914.914H7v1zm0-7v1H1.334C1.149 4 1 4.149 1 4.333v7.334c0 .183.15.333.333.333h13.334c.183 0 .333-.15.333-.333V4.333c0-.184-.149-.333-.332-.333H14V3h.667C15.403 3 16 3.597 16 4.333v7.334c0 .736-.597 1.333-1.333 1.333H1.335C.598 13 0 12.403 0 11.667V4.333C0 3.597.597 3 1.333 3H7zM2 5h4v1H2V5zm11 5h1v1h-1v-1zm-2 0h1v1h-1v-1zm-2 0h1v1H9v-1zM3.5 9c-.276 0-.5.224-.5.5s.224.5.5.5.5-.224.5-.5-.224-.5-.5-.5zm6.167-4L8.2 3.9l.6-.8L10 4V.293l3.261 3.261L11.333 5l1.928 1.446L10 9.707V6l-1.2.9-.6-.8L9.667 5zM11 6v1.293l.739-.739L11 6zm0-2l.739-.554L11 2.707V4z"/></svg>