<svg xmlns="http://www.w3.org/2000/svg" width="24" height="24" viewBox="0 0 24 24"><path fill="var(--icon-color, #1c1c1c)" d="M7 6V4.915c-.781-.276-1.19-1.133-.914-1.914C6.362 2.22 7.219 1.81 8 2.087s1.19 1.133.914 1.914c-.151.427-.487.763-.914.914V7H6V6h1zM4 8V1.778C4 .796 4.895 0 6 0h12c1.105 0 2 .796 2 1.778V8h2v14c0 1.105-.895 2-2 2H4c-1.105 0-2-.895-2-2V8h2zM3 9v13c0 .552.448 1 1 1h16c.552 0 1-.448 1-1V9H3zm1-1h16-1V2c0-.552-.448-1-1-1H6c-.552 0-1 .448-1 1v6H4zm3.5-5c-.276 0-.5.224-.5.5s.224.5.5.5.5-.224.5-.5-.224-.5-.5-.5zM5 18h4v1H5v-1zm5 0h4v1h-4v-1zm5 0h4v1h-4v-1zM5 16h4v1H5v-1zm5 0h4v1h-4v-1zm5 0h4v1h-4v-1zM5 20h4v1H5v-1zm5 0h4v1h-4v-1zm5 0h4v1h-4v-1zM5 11h14v3H5v-3zm1 1v1h12v-1H6z"/></svg>