<svg xmlns="http://www.w3.org/2000/svg" width="24" height="24" viewBox="0 0 24 24"><path fill="var(--icon-color, #1c1c1c)" d="M7 16H5.915c-.276.781-1.133 1.19-1.914.914S2.81 15.781 3.087 15s1.133-1.19 1.914-.914c.427.151.763.487.914.914H9v1H8v1H7v-1zm6-12v1H2c-.552 0-1 .448-1 1v12c0 .552.448 1 1 1h20c.552 0 1-.448 1-1V6c0-.552-.448-1-1-1h-2V4h2c1.105 0 2 .895 2 2v12c0 1.105-.895 2-2 2H2c-1.105 0-2-.895-2-2V6c0-1.105.895-2 2-2h11zM4.5 15c-.276 0-.5.224-.5.5s.224.5.5.5.5-.224.5-.5-.224-.5-.5-.5zM3 7h6v2H3V7zm11 7h1v1h-1v-1zm2 0h1v1h-1v-1zm2 0h1v1h-1v-1zm2 0h1v1h-1v-1zm-6 2h1v1h-1v-1zm2 0h1v1h-1v-1zm2 0h1v1h-1v-1zm2 0h1v1h-1v-1zM14.2 4.9l.6-.8L16 5V1.293l3.261 3.261L17.333 6l1.928 1.446L16 10.707V7l-1.2.9-.6-.8L15.667 6 14.2 4.9zM17 8.293l.739-.739L17 7v1.293zm.739-3.847L17 3.707V5l.739-.554z"/></svg>