<svg xmlns="http://www.w3.org/2000/svg" width="16" height="16" viewBox="0 0 16 16"><path fill="var(--icon-color, #1c1c1c)"  d="M15 14H1v-1h14v1zM1 11h14V2H1v9zm15 1H0V1h16v11zM4 5h1v4H4V5zm8 2.5c0 .276-.224.5-.5.5s-.5-.224-.5-.5v-1c0-.276.224-.5.5-.5s.5.224.5.5v1zM11.5 5c-.828 0-1.5.672-1.5 1.5v1c0 .828.672 1.5 1.5 1.5S13 8.328 13 7.5v-1c0-.828-.672-1.5-1.5-1.5zM8 7.5c0 .276-.224.5-.5.5S7 7.776 7 7.5v-1c0-.276.224-.5.5-.5s.5.224.5.5v1zM7.5 5C6.672 5 6 5.672 6 6.5v1C6 8.328 6.672 9 7.5 9S9 8.328 9 7.5v-1C9 5.672 8.328 5 7.5 5z"/></svg>