<svg xmlns="http://www.w3.org/2000/svg" width="15.978" height="15.998" viewBox="0 0 15.978 15.998"><path d="M2.89 9.998H2v-1h.89a3 3 0 0 1 1.29.28l1.26.57a1.644 1.644 0 0 0 .68.15H8.5a1.5 1.5 0 0 1 0 3H6v-1h2.5a.5.5 0 0 0 0-1H6.12a2.61 2.61 0 0 1-1.12-.24l-1.26-.57a2.079 2.079 0 0 0-.85-.19zm13 .54a1.18 1.18 0 0 0-.89-.66 1.369 1.369 0 0 0-1.16.31l-2.87 2 .56.84 2.9-2a.489.489 0 0 1 .36-.14.211.211 0 0 1 .21.11.269.269 0 0 1 0 .25l-2.4 2.64a3.148 3.148 0 0 1-2.45 1.11H7.66a3.654 3.654 0 0 1-2-.6l-1.09-.93a2.67 2.67 0 0 0-1.57-.47H2v1h1a1.683 1.683 0 0 1 .91.26l1.1.94a4.67 4.67 0 0 0 2.61.8h2.5a4.141 4.141 0 0 0 3.16-1.48l2.42-2.66a1.22 1.22 0 0 0 .15-1.32zM0 14.998h1v-7H0zm15-12.11a2.83 2.83 0 0 1-.86 2L10 8.998l-4.16-4.08A2.87 2.87 0 0 1 5.829.859L5.84.848a3 3 0 0 1 4.16 0 2.95 2.95 0 0 1 4.14 0 2.859 2.859 0 0 1 .86 2.04zm-1.6 1.31a1.82 1.82 0 0 0 .057-2.573q-.029-.03-.057-.057a1.91 1.91 0 0 0-2.68 0 .844.844 0 0 0-.13.15 7.618 7.618 0 0 0-.59 1.16 8.719 8.719 0 0 0-.6-1.16.947.947 0 0 0-.14-.15 1.9 1.9 0 0 0-2.67 0 1.82 1.82 0 0 0-.057 2.573q.028.03.057.057l.73.72.85.84 1.83 1.8 1.82-1.79.85-.84z" fill="var(--icon-color, #1c1c1c)"/></svg>