<svg xmlns="http://www.w3.org/2000/svg" width="24" height="24" viewBox="0 0 24 24"><path d="M1 11h1v10H1zm21.65 4.79a1.389 1.389 0 0 0-.91-.75 2 2 0 0 0-1.6.39l-3.46 2.34.55.83 3.47-2.35a1.079 1.079 0 0 1 .8-.24.409.409 0 0 1 .27.23.67.67 0 0 1-.1.6l-3.2 3.54A4.491 4.491 0 0 1 15 22h-3.83a5.094 5.094 0 0 1-2.92-.91l-2.16-1.47a3.468 3.468 0 0 0-2-.62H3v1h1.1a2.509 2.509 0 0 1 1.43.44l2.16 1.48A6.116 6.116 0 0 0 11.17 23H15a5.473 5.473 0 0 0 4.21-2l3.22-3.56a1.668 1.668 0 0 0 .22-1.65zM9 14.77l.19.2a3.5 3.5 0 0 0 2.46 1h2.74a.5.5 0 0 1 0 1H9.42v1h4.95a1.5 1.5 0 1 0 0-3h-2.74a2.509 2.509 0 0 1-1.76-.74l-.19-.19A6.93 6.93 0 0 0 4.76 12H3v1h1.76A6 6 0 0 1 9 14.77zm12.8-12.6a4.221 4.221 0 0 0-3-1.17A3.829 3.829 0 0 0 16 2.17l-.17.19-.17-.19A3.831 3.831 0 0 0 12.89 1a4.221 4.221 0 0 0-3 1.17A4.14 4.14 0 0 0 9.92 8l5.94 6 5.94-6a4.141 4.141 0 0 0 0-5.83zm-5.36 1.05a3.027 3.027 0 0 1 .29-.34 2.831 2.831 0 0 1 2.1-.88 3.22 3.22 0 0 1 2.27.88 3.131 3.131 0 0 1 0 4.41l-5.24 5.3-5.24-5.3a3.079 3.079 0 0 1-.9-2.07 3.139 3.139 0 0 1 .9-2.34A3.22 3.22 0 0 1 12.89 2a2.831 2.831 0 0 1 2.1.88 3.027 3.027 0 0 1 .29.34c.11.15.58.76.58.78" fill="var(--icon-color, #1c1c1c)"/>></svg>