<svg xmlns="http://www.w3.org/2000/svg" width="24" height="24" viewBox="0 0 24 24"><path d="M9.892,13,8,16.439,6.1,13A7.13,7.13,0,0,0,1,16.446C.925,16.592,3.194,18,8,18c.736,0,1.4-.036,2.023-.092-.008-.136-.021-.27-.021-.408a7.448,7.448,0,0,1,1.24-4.121A9.05,9.05,0,0,0,9.892,13ZM8,1a5,5,0,1,0,5,5A5,5,0,0,0,8,1Zm0,9a4,4,0,1,1,4-4A4,4,0,0,1,8,10Zm9.5,2A5.5,5.5,0,1,0,23,17.5,5.5,5.5,0,0,0,17.5,12ZM13,17.5A4.505,4.505,0,0,1,17.5,13a4.449,4.449,0,0,1,2.793,1L14,20.293A4.449,4.449,0,0,1,13,17.5ZM17.5,22a4.449,4.449,0,0,1-2.793-1L21,14.707A4.449,4.449,0,0,1,22,17.5,4.505,4.505,0,0,1,17.5,22Z" fill="var(--icon-color, #1c1c1c)"/></svg>