<svg xmlns="http://www.w3.org/2000/svg" width="16" height="16" viewBox="0 0 16 16"><path fill="var(--icon-color, #1c1c1c)"  d="M8.5 3.9999999999999996c-1.391 0-2.585.822-3.149 2h1.162C6.97 5.397 7.687 5 8.5 5 9.878 5 11 6.122 11 7.5c0 .171-.018.338-.051.5h1c.024-.165.051-.329.051-.5C12 5.57 10.43 4 8.5 4zM9 1H8v2h1V1zM6.683 3.353l-1-1.732-.866.5 1 1.732.866-.5zm-1.83 1.464l-1.732-1-.5.866 1.732 1 .5-.866zM15 7h-2v1h2V7zm-.621-2.317l-.5-.866-1.732 1 .5.866 1.732-1zm-2.196-2.562l-.866-.5-1 1.732.866.5 1-1.732zM15 12c0-1.654-1.346-3-3-3H8.65c-.576-1.209-1.8-2-3.15-2-1.625 0-3.023 1.117-3.397 2.683C1.409 10.251 1 11.103 1 12c0 1.654 1.346 3 3 3h8c1.654 0 3-1.346 3-3zM7.845 9.667l.118.333H12c1.103 0 2 .897 2 2s-.897 2-2 2H4c-1.103 0-2-.897-2-2 0-.642.315-1.25.844-1.626l.166-.118.036-.2C3.26 8.864 4.292 8 5.5 8c1.048 0 1.991.67 2.345 1.667z"/></svg>