<svg height="12" viewBox="0 0 12 12" width="12" xmlns="http://www.w3.org/2000/svg"><path d="m8.809 6.891-1.4.66a4.482 4.482 0 0 1 -.961-1.414 7.079 7.079 0 0 1 -.448-1.655l1.4-.66-1.589-3.452-2.927 1.381-.112.6a8.877 8.877 0 0 0 .4 5.255 7.678 7.678 0 0 0 3.584 3.755l.744.271 2.9-1.289zm-1.344 3.661-.31-.113a6.632 6.632 0 0 1 -3.055-3.218 7.881 7.881 0 0 1 -.356-4.635l.018-.05.019-.1 1.545-.729.75 1.633-.506.242-.7.33.143.756a7.893 7.893 0 0 0 .527 1.883 5.492 5.492 0 0 0 1.2 1.743l.494.445.6-.287.487-.23.742 1.615z" fill="var(--icon-color, #1c1c1c)"/><path d="m0 0h12v12h-12z" fill="none"/></svg>