<svg enable-background="new 0 0 16 16" height="16" viewBox="0 0 16 16" width="16" xmlns="http://www.w3.org/2000/svg"><path d="m8.46 15.803-.46.197h-.566c-.28-.535-.717-.973-1.265-1.236.348-.147.662-.358.927-.618v-.001c.592.403 1.07.973 1.364 1.658zm-4.629-1.039c-.347-.147-.662-.359-.927-.619v.001c-.604.411-1.077.986-1.364 1.657l.46.197h.566c.28-.535.717-.973 1.265-1.236zm5.169-9.264c0-1.381 1.119-2.5 2.5-2.5s2.5 1.119 2.5 2.5-1.119 2.5-2.5 2.5-2.5-1.119-2.5-2.5zm1 0c0 .828.672 1.5 1.5 1.5s1.5-.672 1.5-1.5-.672-1.5-1.5-1.5-1.5.672-1.5 1.5zm-5.5 1.5c1.044 0 2.004.539 2.622 1.419l.832-.554v-.001c-.798-1.148-2.062-1.864-3.454-1.864-1.744 0-3.288 1.124-3.964 2.814l.928.372c.529-1.322 1.716-2.186 3.036-2.186zm7 2c-.995.004-1.955.368-2.702 1.025v.001l.672.74c.57-.486 1.278-.766 2.03-.766 1.32 0 2.506.864 3.036 2.186l.928-.372c-.676-1.69-2.22-2.814-3.964-2.814zm-9.5-6.5c0-1.381 1.119-2.5 2.5-2.5s2.5 1.119 2.5 2.5-1.119 2.5-2.5 2.5-2.5-1.119-2.5-2.5zm1 0c0 .828.672 1.5 1.5 1.5s1.5-.672 1.5-1.5-.672-1.5-1.5-1.5-1.5.672-1.5 1.5zm2 11.5c-1.105 0-2-.895-2-2s.895-2 2-2 2 .895 2 2-.895 2-2 2zm0-1c.552 0 1-.448 1-1s-.448-1-1-1-1 .448-1 1 .448 1 1 1z" fill="var(--icon-color, #1c1c1c)"/></svg>