<svg xmlns="http://www.w3.org/2000/svg" width="24" height="24" viewBox="0 0 24 24"><path fill="var(--icon-color, #1c1c1c)"  d="M21 .997l-2 7-1.817-1.769-3.673 3.674-4.013-3.905-5.497 5v-2.76l5.491-5.036 4 3.892 2.277-2.277L14 2.997l7-2zM1.999 21h-1V11h1v10zm17.39.032l3.251-3.63c.316-.421.506-1.104.219-1.681-.192-.385-.522-.65-.926-.749-.513-.123-1.108.021-1.616.389L16.83 17.7l.558.83 3.501-2.35c.275-.199.583-.293.807-.236.121.029.206.101.268.224.079.158.024.437-.097.601l-3.234 3.607C17.765 21.408 16.494 22 15.146 22H11.27c-1.058 0-2.079-.313-2.954-.907l-2.18-1.478C5.54 19.213 4.846 19 4.129 19H3v1h1.129c.518 0 1.017.153 1.446.443l2.18 1.478c1.04.706 2.256 1.079 3.514 1.079h3.876c1.645 0 3.195-.722 4.244-1.968zM16 16.5c0-.827-.673-1.5-1.5-1.5h-2.769c-.661 0-1.307-.269-1.774-.738l-.194-.194C8.458 12.754 6.646 12 4.793 12H3v1h1.793c1.589 0 3.142.646 4.262 1.773l.194.194c.652.657 1.557 1.033 2.482 1.033H14.5c.276 0 .5.225.5.5s-.224.5-.5.5h-5v1h5c.827 0 1.5-.673 1.5-1.5z"/></svg>