<svg enable-background="new 0 0 16 16" height="16" viewBox="0 0 16 16" width="16" xmlns="http://www.w3.org/2000/svg"><path d="m7.842 8.661c.098.157.158.339.158.537 0 .574-.479 1.039-1.071 1.039-.285 0-.542-.11-.734-.286l.003.019c0 .08 0 .419.001.745.001.315.256.569.571.569h.656v.286h-2.853v-.286h.647c.314 0 .569-.254.571-.568.001-.327.002-.666.002-.745l.001-.01c-.191.171-.443.277-.723.277-.592-.001-1.071-.466-1.071-1.04 0-.191.057-.368.15-.522h-.005l.019-.026c.024-.038.052-.073.082-.107l1.754-2.109 1.774 2.132c.019.024.039.047.055.073l.017.021zm8.089-4.842-2.335 8.692c-.24.893-1.048 1.482-1.93 1.482-.172 0-.346-.022-.52-.069l-.146-.04v.118c0 1.105-.895 2-2 2h-6c-1.105 0-2-.895-2-2v-10c0-1.105.895-2 2-2h6c1.105 0 2 .895 2 2v8.846l.405.109c.086.023.174.035.261.035.451 0 .847-.305.965-.741l2.335-8.692c.069-.258.034-.527-.099-.759-.133-.231-.349-.397-.607-.466l-4.83-1.297c-.086-.023-.173-.034-.26-.034-.062 0-.17-.003-.17-.003h-1.494c.335-.666.917-.997 1.664-.997.172 0 .346.022.52.069l4.829 1.297c1.066.286 1.699 1.383 1.412 2.45zm-5.931.184c0-.551-.449-1-1-1h-6c-.551 0-1 .449-1 1v10c0 .551.449 1 1 1h6c.551 0 1-.449 1-1z" fill="var(--icon-color, #1c1c1c)"/></svg>