<svg xmlns="http://www.w3.org/2000/svg" width="16" height="16" viewBox="0 0 16 16"><path fill="var(--icon-color, #1c1c1c)" d="M6.998 13.993v-1.996h2v1.996h2v.998h-6v-.998h2zM3.988 1.021l.01.508c.112 6.194 1.37 9.473 4 9.473s3.888-3.28 4-9.472l.01-.509h-8.02zm4.01 8.984c-1.768 0-2.832-2.649-2.988-7.985h5.976c-.156 5.336-1.22 7.985-2.988 7.985zM3.352 1.548l-.674.738c-.408-.371-1.041-.342-1.413.066-.35.384-.347.972.008 1.352l2.608 2.984-.754.655-2.6-2.974c-.745-.814-.686-2.007.128-2.819.731-.73 1.933-.696 2.697-.002zm9.295-.035c.816-.743 2.081-.685 2.826.129.697.762.697 1.929 0 2.691l-2.6 2.974-.753-.655 2.608-2.983c.376-.403.354-1.035-.05-1.41-.381-.354-.97-.357-1.355-.008l-.674-.737-.002-.001z"/></svg>