<svg enable-background="new 0 0 16 16" height="16" viewBox="0 0 16 16" width="16" xmlns="http://www.w3.org/2000/svg"><path d="m8.832.043c-.028-.002-.057-.003-.085-.005-.246-.023-.495-.038-.747-.038s-.501.015-.747.038c-.028.002-.057.003-.085.005-4.027.417-7.168 3.82-7.168 7.957s3.141 7.54 7.168 7.957c.012.012.025.023.038.035.016-.01.032-.019.047-.029.246.022.495.037.747.037s.501-.015.747-.038c.016.011.032.019.047.029.013-.012.025-.023.038-.035 4.027-.416 7.168-3.819 7.168-7.956s-3.141-7.54-7.168-7.957zm5.469 4.957h-2.677c-.355-1.4-.945-2.67-1.719-3.73 1.947.552 3.536 1.935 4.396 3.73zm-6.713-3.979c.137-.008.273-.021.412-.021s.275.013.412.021c.988 1.034 1.753 2.407 2.187 3.979h-5.198c.434-1.572 1.199-2.945 2.187-3.979zm3.412 6.979c0 .688-.062 1.356-.176 2h-5.648c-.114-.644-.176-1.312-.176-2s.062-1.356.176-2h5.647c.115.644.177 1.312.177 2zm-4.905-6.73c-.774 1.06-1.364 2.33-1.719 3.73h-2.677c.86-1.795 2.449-3.178 4.396-3.73zm-4.785 4.73h2.855c-.106.646-.165 1.314-.165 2s.059 1.354.165 2h-2.855c-.191-.636-.31-1.303-.31-2s.119-1.364.31-2zm.389 5h2.677c.355 1.4.945 2.67 1.719 3.73-1.947-.552-3.536-1.935-4.396-3.73zm6.713 3.979c-.137.008-.273.021-.412.021s-.275-.013-.412-.021c-.988-1.034-1.753-2.407-2.187-3.979h5.198c-.434 1.572-1.199 2.945-2.187 3.979zm1.493-.249c.774-1.06 1.364-2.33 1.719-3.73h2.677c-.86 1.795-2.449 3.178-4.396 3.73zm4.785-4.73h-2.855c.106-.646.165-1.314.165-2s-.059-1.354-.165-2h2.855c.191.636.31 1.303.31 2s-.119 1.364-.31 2z" fill="var(--icon-color, #1c1c1c)"/></svg>