<svg enable-background="new 0 0 24 24" height="24" viewBox="0 0 24 24" width="24" xmlns="http://www.w3.org/2000/svg"><path d="m18 23v-2h-11l2-2h9v-2l5 3zm-12-5.302v1.166c-2.974-1.607-5-4.752-5-8.364 0-4.81 3.596-8.786 8.239-9.406.007-.008.012-.017.019-.024l.021.018c.401-.052.806-.088 1.221-.088 5.238 0 9.5 4.262 9.5 9.5 0 1.506-.361 3.005-1.045 4.336-.03.058-.069.107-.1.164h-4.499c-.207.697-.458 1.366-.758 2h-1.108c.323-.626.587-1.3.812-2h-5.591c.221.696.474 1.373.793 2h-1.106c-.293-.634-.526-1.31-.731-2h-3.352c.685 1.085 1.597 2.015 2.685 2.698zm.393-3.698c-.218-.97-.334-1.977-.366-3h-3.994c.063 1.065.318 2.076.74 3zm11.844-7h-3.628c.215.97.34 1.976.371 3h3.995c-.063-1.064-.318-2.076-.738-3zm-4.646 0h-6.181c-.228.963-.357 1.971-.39 3h6.96c-.033-1.027-.16-2.036-.389-3zm-7.199 0h-3.629c-.42.924-.675 1.936-.738 3h3.995c.032-1.026.157-2.031.372-3zm1.024 7h6.174c.23-.97.362-1.974.395-3h-6.956c.034 1.026.155 2.035.387 3zm11.555-3h-3.987c-.031 1.022-.153 2.026-.368 3h3.616c.432-.95.679-1.955.739-3zm-6.311-8.711c.728 1.101 1.293 2.361 1.689 3.711h3.348c-1.133-1.807-2.923-3.154-5.037-3.711zm-2.16-.289c-.247 0-.489.016-.731.037-.904 1.122-1.608 2.472-2.079 3.963h5.621c-.47-1.49-1.172-2.843-2.073-3.963-.244-.021-.489-.037-.738-.037zm-7.198 4h3.347c.397-1.353.967-2.61 1.698-3.713-2.116.555-3.91 1.904-5.045 3.713z" fill="var(--icon-color, #1c1c1c)"/></svg>