<svg xmlns="http://www.w3.org/2000/svg" width="24" height="24" viewBox="0 0 24 24"><path fill="var(--icon-color, #1c1c1c)" d="M12 1C5.925 1 1 5.925 1 12s4.925 11 11 11 11-4.925 11-11S18.075 1 12 1zm1.637 20.867L11.994 19l-1.633 2.867c-4.22-.703-7.526-4.01-8.228-8.23L5 11.994l-2.867-1.633c.703-4.218 4.009-7.524 8.227-8.227L11.995 5l1.641-2.867c4.22.702 7.527 4.008 8.23 8.228L19 11.994l2.867 1.643c-.702 4.22-4.009 7.528-8.23 8.23zM18 6L9.88 9.874l-.141.285L6 18l8.121-3.879-.002-.002.004-.002L18 6zm-4.152 6.428l-2.28-2.28L16 8l-2.152 4.428z"/></svg>