<svg xmlns="http://www.w3.org/2000/svg" width="24" height="24" viewBox="0 0 24 24"><path fill="var(--icon-color, #1c1c1c)" d="M20.189 19.326c.014-.016.029-.032.044-.048.234-.265.455-.54.663-.826.007-.01.015-.019.022-.029C22.222 16.614 23 14.4 23 12c0-.361-.02-.717-.054-1.068-.013-.133-.037-.261-.054-.392-.029-.215-.057-.429-.098-.639-.032-.163-.073-.323-.112-.483-.041-.17-.081-.339-.13-.505-.053-.18-.114-.356-.175-.532-.048-.137-.096-.274-.149-.408-.076-.193-.158-.381-.244-.568-.05-.107-.1-.213-.153-.318-.102-.203-.208-.401-.321-.597-.045-.078-.093-.154-.14-.231-.13-.211-.264-.419-.408-.621-.033-.047-.069-.091-.102-.137-1.591-2.164-3.947-3.731-6.677-4.28-.043-.009-.089-.012-.132-.02-.31-.058-.622-.11-.94-.142C12.745 1.019 12.375 1 12 1c-.377 0-.75.019-1.118.056-.315.032-.624.083-.93.141-.05.01-.102.014-.152.024-.708.144-1.391.357-2.043.629l-.006.003C5.204 2.92 3.152 4.923 2.005 7.427c-.019.04-.04.079-.058.12-.085.191-.16.387-.234.584-.046.121-.091.242-.133.365-.057.169-.109.341-.158.514-.046.163-.088.327-.126.493-.036.152-.071.304-.1.458-.039.207-.068.417-.096.627-.016.125-.036.248-.048.374C1.02 11.304 1 11.649 1 12c0 2.4.778 4.614 2.082 6.423.007.01.015.02.022.029.208.286.429.561.663.826.014.016.029.032.044.048.23.257.471.503.724.737.019.018.038.035.057.052.253.231.515.449.788.656.021.016.043.032.064.048.276.206.561.398.856.577.02.012.039.024.059.036.301.18.611.346.93.498.015.007.03.015.045.022.33.153.666.291 1.01.412l.024.009c.353.124.714.23 1.082.318h.001c.819.195 1.67.309 2.549.309s1.73-.114 2.549-.309h.001c.369-.088.729-.194 1.082-.318l.024-.009c.344-.121.68-.259 1.007-.413.015-.007.03-.015.045-.022.319-.152.629-.317.93-.498.02-.012.04-.024.059-.036.295-.179.58-.371.856-.577.021-.016.043-.032.064-.048.273-.207.536-.425.788-.656.019-.017.038-.034.057-.052.255-.233.497-.479.727-.736zM7.311 17.5H3.657c-1.007-1.522-1.603-3.333-1.646-5.28l2.972-2.03 3.254 1.82 1.13 3.479-2.1 1.966.044.045zm8.455-5.501l3.265-1.799 2.958 2.02c-.043 1.947-.639 3.758-1.646 5.28h-3.568l-2.138-2.027 1.129-3.474zm4.183-6.041l-1.154 3.231-3.224 1.777L13 8.857v-4.22l2.35-2.047c1.843.658 3.434 1.839 4.599 3.368zM8.757 2.55L12 4.798v3.908l-3.518 2.295L5.119 9.12l-.007.012-1.303-2.851c1.203-1.718 2.93-3.036 4.948-3.731zM12 22c-.998 0-1.961-.151-2.872-.425l-1.021-3.536L10.286 16h3.454l2.152 2.04-1.021 3.535c-.91.274-1.873.425-2.871.425z"/></svg>