<svg xmlns="http://www.w3.org/2000/svg" width="16" height="16" viewBox="0 0 16 16"><path fill="var(--icon-color, #1c1c1c)" fill-rule="evenodd" clip-rule="evenodd" d="M7.665 4.837l-.707-.707 2.247-2.247C9.795 1.294 10.567 1 11.339 1c.772 0 1.545.294 2.134.883l.645.645c1.178 1.178 1.178 3.089 0 4.267L11.87 9.042l-.708-.707 2.248-2.248c.787-.788.787-2.064.001-2.852l-.645-.645c-.378-.379-.892-.591-1.427-.59-.538 0-1.045.21-1.426.59L7.665 4.837zm.668 6.327l.707.707-2.245 2.245c-.589.589-1.361.883-2.133.883s-1.545-.294-2.134-.883l-.645-.645c-1.178-1.178-1.178-3.089 0-4.267l2.246-2.245.707.708-2.245 2.245c-.381.38-.591.887-.591 1.426 0 .538.209 1.045.59 1.426l.645.645c.381.38.888.59 1.427.59.538 0 1.045-.21 1.426-.59l2.245-2.245zm7.03 3.482l-2.589-2.59-.707.707 2.589 2.59.707-.707zM11 13h-1v3h1v-3zm5-3h-3v1h3v-1zM3.944 3.226L1.423.706l-.707.707 2.521 2.52.707-.707zM3 5H0v1h3V5zm3-5H5v3h1V0z"/></svg>