<svg xmlns="http://www.w3.org/2000/svg" width="16" height="16" viewBox="0 0 16 16"><path fill="var(--icon-color, #1c1c1c)" d="M7.739 11.775h1.434l-2.346 2.346c-1.171 1.172-3.071 1.172-4.242 0l-.707-.707c-1.171-1.172-1.171-3.071 0-4.243l2.826-2.824c1.171-1.172 3.071-1.172 4.242 0l1.021 1.021-.718.718-1.021-1.022c-.774-.774-2.034-.774-2.808 0L2.595 9.889c-.774.775-.774 2.034 0 2.807l.708.708c.774.773 2.034.773 2.808 0l1.628-1.629zm6.383-9.189c1.171 1.172 1.171 3.07 0 4.242l-2.828 2.826c-1.172 1.172-3.071 1.172-4.241 0L5.999 8.602l.718-.718L7.77 8.938c.774.773 2.034.773 2.808 0l2.828-2.828c.774-.774.774-2.034 0-2.806l-.707-.707c-.775-.775-2.034-.775-2.808 0l-1.632 1.63H6.825l2.348-2.348c1.172-1.172 3.071-1.172 4.242 0l.707.707z"/></svg>