<svg xmlns="http://www.w3.org/2000/svg" width="16" height="16" viewBox="0 0 16 16"><path fill="var(--icon-color, #1c1c1c)" d="M9 7.001H8v-2c0-.893-.399-1.74-1.086-2.31s-1.594-.805-2.473-.64C2.993 2.313 2 3.676 2 5.148v1.853H1c-.552 0-1 .448-1 1v6c0 .552.448 1 1 1h8c.552 0 1-.448 1-1v-6c0-.552-.447-1-1-1zm-6-2c.001-.647.315-1.254.841-1.63s1.203-.475 1.815-.265C6.488 3.373 7 4.216 7 5.089v1.912H3v-2zm6 9H1v-6h8v6zm7-8v6c0 .552-.448 1-1 1h-4v-1h4v-6h-5v-1h3V3.089c0-.873-.512-1.716-1.344-1.983-.993-.336-2.078.151-2.486 1.116L8.449 1.5C8.874.765 9.573.208 10.441.052c.878-.165 1.785.069 2.473.639S14 2.109 14 3.002v2h1c.265 0 .519.105.707.292.188.188.293.442.293.707z"/></svg>