<svg xmlns="http://www.w3.org/2000/svg" width="24" height="24" viewBox="0 0 24 24"><path fill="var(--icon-color, #1c1c1c)" d="M17.5 12c-3.038 0-5.5 2.462-5.5 5.5s2.462 5.5 5.5 5.5 5.5-2.462 5.5-5.5-2.462-5.5-5.5-5.5zM13 17.5c0-2.481 2.019-4.5 4.5-4.5 1.06 0 2.023.384 2.793 1L14 20.293c-.616-.77-1-1.733-1-2.793zm4.5 4.5c-1.06 0-2.023-.384-2.793-1L21 14.707c.616.77 1 1.733 1 2.793 0 2.481-2.019 4.5-4.5 4.5zM15 7h-2V5c0-2.209-1.791-4-4-4S5 2.791 5 5v2H3c-.552 0-1 .448-1 1v8c0 .552.448 1 1 1h7v-1H3V8h12v2h1V8c0-.552-.448-1-1-1zM6 7V5c0-1.654 1.346-3 3-3s3 1.346 3 3v2H6z"/></svg>