<svg xmlns="http://www.w3.org/2000/svg" width="16" height="16" viewBox="0 0 16 16"><path fill="none" d="M0 0h16v16H0z"/><path d="M14.3 9a.684.684 0 0 1 .7.7v4.6a.684.684 0 0 1-.7.7H9.7a.684.684 0 0 1-.7-.7V9.7a.684.684 0 0 1 .7-.7zm-.3 5v-4h-4v4zM6.3 9a.684.684 0 0 1 .7.7v4.6a.684.684 0 0 1-.7.7H1.7a.684.684 0 0 1-.7-.7V9.7a.684.684 0 0 1 .7-.7zM6 14v-4H2v4zm.3-13a.684.684 0 0 1 .7.7v4.6a.684.684 0 0 1-.7.7H1.7a.684.684 0 0 1-.7-.7V1.7a.684.684 0 0 1 .7-.7zM6 6V2H2v4zm9.776-2.54a.76.76 0 0 1 0 1.08L12.5 7.779a.669.669 0 0 1-.994 0L8.224 4.442a.65.65 0 0 1 0-.982L11.5.221a.669.669 0 0 1 .994 0z" fill="var(--icon-color, #1c1c1c)"/></svg>