<svg xmlns="http://www.w3.org/2000/svg" width="24" height="24" viewBox="0 0 24 24"><path fill="var(--icon-color, #1c1c1c)"  d="M7 13H6v2h1v-2zm2 0H8v2h1v-2zm-1 6h1v-2H8v2zm-4 0h1v-2H4v2zm1-6H4v2h1v-2zm1 6h1v-2H6v2zm17 2v1H1v-1h1V10.886c0-.489.397-.886.886-.886H8v1H3v10h7v-5h1v5h3v-5.037c-2.234-.189-4-2.046-4-4.327V5.364C10 2.958 11.958 1 14.364 1h.271C17.042 1 19 2.958 19 5.364V9h-1V5.364C18 3.509 16.491 2 14.636 2h-.271C12.509 2 11 3.509 11 5.364v6.271c0 1.73 1.318 3.143 3 3.327V13.39l-1.896-1.896.707-.707L14 11.976V6h1v2.37l1.104-1.104.707.707L15 9.784v5.179c.352-.039.689-.12 1-.258v1.055c-.319.106-.653.174-1 .203V21h4v-3.074c-1.135-.205-2-1.196-2-2.389v-3.136c0-1.341 1.091-2.433 2.432-2.433h.136c1.341 0 2.433 1.091 2.433 2.433v3.136c0 1.193-.865 2.184-2 2.389V21H23zm-2-5.463v-3.136c0-.79-.643-1.433-1.433-1.433h-.136c-.79 0-1.432.643-1.432 1.433v3.136c0 .79.643 1.433 1.432 1.433h.136c.79-.001 1.433-.643 1.433-1.433z"/></svg>