<?xml version="1.0" encoding="UTF-8"?>
<svg width="24px" height="24px" viewBox="0 0 24 24" version="1.1" xmlns="http://www.w3.org/2000/svg" xmlns:xlink="http://www.w3.org/1999/xlink">
    <!-- Generator: Sketch 61.2 (89653) - https://sketch.com -->
    <title>Profile-24px</title>
    <desc>Created with Sketch.</desc>
    <g id="Profile-24px" stroke="none" stroke-width="1" fill="none" fill-rule="evenodd">
        <path d="M12,2 C17.5228475,2 22,6.4771525 22,12 C22,17.5228475 17.5228475,22 12,22 C6.4771525,22 2,17.5228475 2,12 C2,6.4771525 6.4771525,2 12,2 Z M12,16 C9.68727736,15.8944879 7.54803577,17.1059697 6.43063272,19.0688737 C7.96343255,20.2790668 9.89752479,21 12,21 C14.1024752,21 16.0365674,20.2790668 17.568556,19.070921 C16.4520349,17.1060097 14.3127608,15.8944862 12,16 Z M12,3 C7.02943725,3 3,7.02943725 3,12 C3,14.4883073 4.00981379,16.7407599 5.64199064,18.3699072 L5.53744593,18.5431535 C6.84149566,16.2780987 9.31926504,14.8793212 12,15 C14.6108767,14.882466 17.0292283,16.206228 18.358232,18.3678522 C19.9901862,16.7407599 21,14.4883073 21,12 C21,7.02943725 16.9705627,3 12,3 Z M12,6 C13.060866,6 14.0782816,6.42142736 14.8284271,7.17157288 C15.5785726,7.92171839 16,8.93913404 16,10 C16,12.209139 14.209139,14 12,14 C9.790861,14 8,12.209139 8,10 C8,7.790861 9.790861,6 12,6 Z M12,7 C10.3431458,7 9,8.34314575 9,10 C9,11.6568542 10.3431458,13 12,13 C13.6568542,13 15,11.6568542 15,10 C15,8.34314575 13.6568542,7 12,7 Z" id="Shape" fill="var(--icon-color, #1c1c1c)"></path>
    </g>
</svg>