<?xml version="1.0" encoding="UTF-8"?>
<svg width="24px" height="24px" viewBox="0 0 24 24" version="1.1" xmlns="http://www.w3.org/2000/svg" xmlns:xlink="http://www.w3.org/1999/xlink">
    <!-- Generator: Sketch 61.2 (89653) - https://sketch.com -->
    <title>Refresh-24px</title>
    <desc>Created with Sketch.</desc>
    <g id="Refresh-24px" stroke="none" stroke-width="1" fill="none" fill-rule="evenodd">
        <path d="M3.5,9 L7,13 L4.06201291,13.0009551 C4.55453501,16.9468043 7.92071147,20 12,20 C14.119116,20 16.0457907,19.1760606 17.4771418,17.831064 L18.1357093,18.5843524 C16.5281526,20.0830293 14.3711613,21 12,21 C7.36768501,21 3.55276616,17.5003111 3.05500569,13.0006955 L0,13 L3.5,9 Z M12,3 C16.6326577,3 20.4477983,6.50020676 20.9451047,11.0003032 L24,11 L20.5,15 L17,11 L19.9379871,10.9990449 C19.445465,7.05319574 16.0792885,4 12,4 C9.88088397,4 7.9542093,4.8239394 6.52285815,6.16893603 L5.86429068,5.41564757 C7.47184737,3.91697074 9.62883869,3 12,3 Z" id="Shape" fill="var(--icon-color, #1c1c1c)"></path>
    </g>
</svg>