<svg xmlns="http://www.w3.org/2000/svg" width="16" height="16" viewBox="0 0 16 16"><path fill="var(--icon-color, #1c1c1c)"  d="M5 7.5l-.945-.546C4.03 7.135 4 7.313 4 7.5c.003 1.628.991 3.092 2.5 3.703v-1.12C5.575 9.551 5.004 8.567 5 7.5zm3-4c-.925 0-1.766.328-2.444.857l.958.553c.44-.254.943-.41 1.486-.41s1.046.156 1.486.41l.958-.553C9.749 3.805 8.888 3.503 8 3.5zm3.945 3.454L11 7.5c-.004 1.067-.575 2.051-1.5 2.583v1.12c1.509-.611 2.497-2.075 2.5-3.703 0-.187-.03-.365-.055-.546zm-6.36-.271l.5-.866-2.598-1.5-.5.866 2.598 1.5zm4.33-.866l.5.866 2.598-1.5-.5-.866-2.598 1.5zM8.5 10h-1v3h1v-3zM8 6.5c-.535.024-.956.465-.956 1s.421.976.956 1c.535-.024.956-.465.956-1s-.421-.976-.956-1zm0 3c-1.103 0-2-.897-2-2s.897-2 2-2 2 .897 2 2-.897 2-2 2zM2.429 2C2.192 2 2 2.192 2 2.429v11.143c0 .236.192.428.429.428h11.143c.237-.001.428-.192.428-.429V2.429c0-.114-.045-.223-.126-.303S13.685 2 13.571 2H2.429zm11.142 13H2.429c-.789-.001-1.428-.64-1.429-1.429V2.429C1.001 1.64 1.64 1.001 2.429 1h11.143c.789.001 1.427.64 1.428 1.429v11.143c-.001.789-.64 1.427-1.429 1.428z"/></svg>