<svg xmlns="http://www.w3.org/2000/svg" width="16" height="16" viewBox="0 0 16 16"><path fill="var(--icon-color, #1c1c1c)" d="M13.998 0l-1.435 5.625-1.752-1.754-.071-.071-3.233 3.426-3.009-3.053L.002 8.488 0 7.07l4.5-4.317 2.991 3.034 2.542-2.694-1.702-1.706L13.998 0zm-2.997 9.995h-3v1H13v-1h-1.999zm3.298-3.469l-.713.712c1.693 1.58 1.913 4.185.509 6.026s-3.974 2.321-5.947 1.108-2.706-3.721-1.697-5.805l-.751-.75c-1.396 2.494-.648 5.64 1.72 7.24s5.568 1.12 7.362-1.105 1.584-5.452-.483-7.426z"/></svg>