<svg xmlns="http://www.w3.org/2000/svg" width="24" height="24" viewBox="0 0 24 24"><path fill="var(--icon-color, #1c1c1c)"  d="M19 22c-1.654 0-3-1.346-3-3s1.346-3 3-3 3 1.346 3 3-1.346 3-3 3zM5 15c-1.654 0-3-1.346-3-3s1.346-3 3-3 3 1.346 3 3-1.346 3-3 3zM19 2c1.654 0 3 1.346 3 3s-1.346 3-3 3-3-1.346-3-3 1.346-3 3-3zm0 13c-1.336.001-2.583.668-3.324 1.779L8.758 13.32C8.905 12.905 9 12.465 9 12s-.095-.905-.242-1.32l6.918-3.459C16.417 8.332 17.664 8.999 19 9c2.206 0 4-1.794 4-4s-1.794-4-4-4-4 1.794-4 4c0 .465.095.905.242 1.32L8.324 9.779C7.582 8.668 6.335 8.001 5 8c-2.206 0-4 1.794-4 4s1.794 4 4 4c1.336-.001 2.583-.668 3.324-1.779l6.918 3.459c-.156.423-.237.869-.242 1.32 0 2.206 1.794 4 4 4s4-1.794 4-4-1.794-4-4-4z"/></svg>