<svg height="12.003" viewBox="0 0 12.002 12.003" width="12.002" xmlns="http://www.w3.org/2000/svg"><path d="m10 4-5 5v2h2l5-5zm-2.92-3.707a2.612 2.612 0 0 0 -2.2-.1c-.88.33-2.12 1.22-2.96 3.59a9.348 9.348 0 0 0 -.4 1.988c-.86.15-1.5.2-1.52.2v1.02c.06 0 .7-.06 1.48-.179.07 1.929.458 3.218 1.9 4.128l.53-.86c-1.192-.75-1.42-1.788-1.44-3.449a10.082 10.082 0 0 0 3.37-1.478 4.02 4.02 0 0 0 2.16-3.23 1.89 1.89 0 0 0 -.92-1.63zm-1.79 4.02a8.449 8.449 0 0 1 -2.74 1.268 8.129 8.129 0 0 1 .31-1.448 4.614 4.614 0 0 1 2.37-2.99 2.036 2.036 0 0 1 .69-.13 1.307 1.307 0 0 1 .66.16.883.883 0 0 1 .42.77 3.139 3.139 0 0 1 -1.71 2.37z" fill="var(--icon-color, #1c1c1c)"/><path d="m.002.003h12v12h-12z" fill="none"/></svg>