<svg xmlns="http://www.w3.org/2000/svg" width="24" height="24" viewBox="0 0 24 24"><path fill="var(--icon-color, #1c1c1c)" d="M15 20.111h.765c1.606 0 2.944-1.086 3.235-2.523V11c-.141-5.227-2.44-8-7-8s-6.859 2.773-7 8v7H3c-1.105 0-2-.895-2-2v-3c0-1.105.895-2 2-2h1c.15-5.735 2.876-9 8-9s7.85 3.265 8 9h1c1.105 0 2 .895 2 2v3c0 1.105-.895 2-2 2h-1.133c-.47 1.725-2.128 3-4.102 3H11v-3h4v2.111zM20 17h1c.552 0 1-.448 1-1v-3c0-.552-.448-1-1-1h-1v5zM4 17v-5H3c-.552 0-1 .448-1 1v3c0 .552.448 1 1 1h1z"/></svg>