<svg enable-background="new 0 0 16 16" height="16" viewBox="0 0 16 16" width="16" xmlns="http://www.w3.org/2000/svg"><path d="m6 6v4h-1v-4zm-6 7h1v-11h-1zm8.5-3c-.828 0-1.5-.672-1.5-1.5v-1c0-.828.672-1.5 1.5-1.5s1.5.672 1.5 1.5v1c0 .828-.672 1.5-1.5 1.5zm0-1c.276 0 .5-.224.5-.5v-1c0-.276-.224-.5-.5-.5s-.5.224-.5.5v1c0 .276.224.5.5.5zm4 1c-.828 0-1.5-.672-1.5-1.5v-1c0-.828.672-1.5 1.5-1.5s1.5.672 1.5 1.5v1c0 .828-.672 1.5-1.5 1.5zm0-1c.276 0 .5-.224.5-.5v-1c0-.276-.224-.5-.5-.5s-.5.224-.5.5v1c0 .276.224.5.5.5zm-8.5-7v1h11v9h-11v1h12v-11zm0 13h11v-1h-11zm-2-12h1v-2h-1zm0 4h1v-2h-1zm0 4h1v-2h-1zm0 4h1v-2h-1z" fill="var(--icon-color, #1c1c1c)"/></svg>