<?xml version="1.0" encoding="UTF-8"?>
<svg width="24px" height="24px" viewBox="0 0 24 24" version="1.1" xmlns="http://www.w3.org/2000/svg" xmlns:xlink="http://www.w3.org/1999/xlink">
    <!-- Generator: Sketch 61.2 (89653) - https://sketch.com -->
    <title>4 - Information &amp; Tooltip/Tooltip</title>
    <desc>Created with Sketch.</desc>
    <defs>
        <path d="M12,21 C7.02903363,21 3,16.9709664 3,12 C3,7.02903363 7.02903363,3 12,3 C16.9709664,3 21,7.02903363 21,12 C21,16.9709664 16.9709664,21 12,21 Z M12,19.6153846 C16.2062644,19.6153846 19.6153846,16.2062644 19.6153846,12 C19.6153846,7.7937356 16.2062644,4.38461538 12,4.38461538 C7.7937356,4.38461538 4.38461538,7.7937356 4.38461538,12 C4.38461538,16.2062644 7.7937356,19.6153846 12,19.6153846 Z M10.919344,15.9230769 L10.919344,14.3061148 L12.5363062,14.3061148 L12.5363062,15.9230769 L10.919344,15.9230769 Z M11.0151223,13.5680589 C11.0151223,13.2037241 11.0639499,12.8713206 11.1616066,12.5708383 C11.2592634,12.2703561 11.3738205,12.0299739 11.5052815,11.8496845 C11.6367425,11.6693951 11.7531777,11.5191563 11.8545904,11.3989633 L12.0116386,11.2278301 L12.0116386,11.2278301 L12.1672782,11.0637395 C12.270569,10.9566927 12.3625903,10.8477695 12.4433449,10.7369666 C12.5240995,10.6261638 12.5888901,10.5097287 12.6377184,10.3876578 C12.6865468,10.2655868 12.7109606,10.1294328 12.7109606,9.97919171 C12.7109606,9.71251369 12.6330242,9.4956063 12.477149,9.32846304 C12.3212738,9.16131978 12.1409872,9.05333558 11.9362836,9.00450721 C11.7315801,8.95567884 11.5465985,8.93126502 11.3813332,8.93126502 C11.0770949,8.93126502 10.7747392,8.97633669 10.4742569,9.06648137 C10.1737746,9.15662605 9.88456477,9.26554924 9.60661867,9.39325421 L9.47703634,8.11433293 C9.84888315,8.00540811 10.2263583,7.91432579 10.6094732,7.84108323 C10.9925881,7.76784068 11.3775753,7.73121995 11.7644462,7.73121995 C12.2940462,7.73121995 12.7710546,7.82230227 13.1954859,8.00446965 C13.6199171,8.18663703 13.9260288,8.43828716 14.1138302,8.75942758 C14.3016316,9.08056801 14.3955309,9.42705643 14.3955309,9.79890325 C14.3955309,10.0655813 14.3438863,10.3097194 14.2405955,10.5313251 C14.1373047,10.7529308 14.0086627,10.9613872 13.8546655,11.1567007 C13.7520008,11.2869097 13.6447464,11.4141961 13.5329009,11.5385615 L13.3616893,11.7229192 C13.187034,11.9050865 13.0264662,12.0900682 12.879981,12.2778696 C12.7334959,12.465671 12.6170608,12.6647375 12.5306722,12.8750751 C12.4442835,13.0854127 12.4123577,13.316405 12.4348939,13.5680589 L11.0151223,13.5680589 Z" id="path-1"></path>
    </defs>
    <g id="4---Information-&amp;-Tooltip/Tooltip" stroke="none" stroke-width="1" fill="none" fill-rule="evenodd">
        <mask id="mask-2" fill="white">
            <use xlink:href="#path-1"></use>
        </mask>
        <use id="Icon" fill="var(--icon-color, #1c1c1c)" xlink:href="#path-1"></use>
    </g>
</svg>