<svg xmlns="http://www.w3.org/2000/svg" width="24" height="24" viewBox="0 0 24 24"><path fill="var(--icon-color, #1c1c1c)" d="M17.5 12c-3.038 0-5.5 2.462-5.5 5.5s2.462 5.5 5.5 5.5 5.5-2.462 5.5-5.5-2.462-5.5-5.5-5.5zm2.5 6h-2v2h-1v-2h-2v-1h2v-2h1v2h2v1zM8.311 13.002c.932 0 1.849.194 2.689.545l-.576.856c-.673-.257-1.386-.403-2.113-.402-2.319 0-4.386 1.353-5.397 3.421l-.914-.4c1.18-2.4 3.607-4.02 6.311-4.02zM9 11c2.761 0 5-2.239 5-5s-2.239-5-5-5-5 2.239-5 5 2.239 5 5 5zm0-9c2.209 0 4 1.791 4 4s-1.791 4-4 4-4-1.791-4-4 1.791-4 4-4z"/></svg>