<svg xmlns="http://www.w3.org/2000/svg" width="16" height="16" viewBox="0 0 16 16"><title>User-manage-16px</title><path d="M0,13.707.957,14A6.091,6.091,0,0,1,7,10V9A7.083,7.083,0,0,0,0,13.707Z" fill="var(--icon-color, #1c1c1c)"/><path d="M11,4A4,4,0,1,0,7,8,4,4,0,0,0,11,4ZM7,7a3,3,0,1,1,3-3A3,3,0,0,1,7,7Z" fill="var(--icon-color, #1c1c1c)"/><path d="M15.707,8.707l-2,2L12.293,9.29l2-2a3,3,0,0,0-3.953,4.081L7.349,14.132c-.023.021-.045.044-.066.067a1.075,1.075,0,0,0,1.583,1.454l2.765-3a3,3,0,0,0,2.66.053h0A3,3,0,0,0,15.707,8.707Z" fill="var(--icon-color, #1c1c1c)"/><path d="M0,0H16V16H0Z" fill="none"/></svg>