<svg height="24" viewBox="0 0 24 24" width="24" xmlns="http://www.w3.org/2000/svg"><path d="m13 22h11l-2-2h-9v-2l-5 3 5 3zm-5-20a5 5 0 1 0 5 5 5 5 0 0 0 -5-5zm0 9a4 4 0 1 1 4-4 4 4 0 0 1 -4 4zm8-11a5.022 5.022 0 0 0 -3.54 1.46l.71.71a4 4 0 1 1 2.83 6.83 3.916 3.916 0 0 1 -1.37-.25l-.46.91a5.083 5.083 0 0 0 1.83.34 5 5 0 0 0 0-10zm8 16h-1.25a8.838 8.838 0 0 0 -6.9-3 10.168 10.168 0 0 0 -2.73.37l-.8-.8a10.975 10.975 0 0 1 3.53-.57 9.637 9.637 0 0 1 8.15 4zm-10.63-.66.01-.01a1.009 1.009 0 0 0 -.15-.07 7.6 7.6 0 0 0 -.76-.37c-.15-.07-.29-.13-.45-.19-.23-.09-.47-.16-.71-.23a4.444 4.444 0 0 0 -.52-.15c-.26-.07-.54-.11-.81-.16-.16-.02-.32-.06-.48-.08a11.94 11.94 0 0 0 -1.35-.08c-.38 0-.76.03-1.13.06-.12.01-.24.03-.36.05-.26.03-.51.07-.76.12-.12.03-.25.05-.37.08a9.456 9.456 0 0 0 -.91.26 8.917 8.917 0 0 0 -4.62 3.43h1.25a8.238 8.238 0 0 1 4.33-2.66 7.9 7.9 0 0 1 .99-.21c.1-.01.2-.03.3-.04a9.075 9.075 0 0 1 1.28-.09 9.639 9.639 0 0 1 1.08.06c.12.01.23.03.35.05.23.03.46.06.69.11.1.02.2.05.3.08.24.06.48.12.72.2a1.659 1.659 0 0 1 .16.06 8.257 8.257 0 0 1 .82.33 9.444 9.444 0 0 1 1.21.68l.71-.71a8.725 8.725 0 0 0 -.82-.52z" fill="var(--icon-color, #1c1c1c)"/></svg>