<svg xmlns="http://www.w3.org/2000/svg" width="24" height="24" viewBox="0 0 24 24"><path fill="var(--icon-color, #1c1c1c)"  d="M4 20l.328-3.156 4.078-4.077.707.707-3.825 3.825-.157 1.581 1.569-.166 3.587-3.587.707.707-3.837 3.837L4 20zM17.445 8c.344.59.555 1.268.555 2 0 1.477-.809 2.752-2 3.445v6.558L14 22l-2-1.997v-6.558c-1.191-.693-2-1.968-2-3.445 0-2.209 1.791-4 4-4 1.08 0 2.056.432 2.776 1.128C16.918 6.779 17 6.399 17 6c0-1.654-1.346-3-3-3-1.172 0-2.178.682-2.672 1.664l-.892-.446C11.093 2.908 12.435 2 14 2c2.209 0 4 1.791 4 4 0 .732-.211 1.41-.555 2zM17 10c0-.399-.082-.779-.224-1.128C16.056 9.568 15.08 10 14 10V9c.883 0 1.67-.391 2.22-1-.55-.609-1.337-1-2.22-1-1.654 0-3 1.346-3 3 0 .883.391 1.67 1 2.22.289.261.626.463 1 .596v6.774l1 1 1-1v-6.774c.374-.133.711-.336 1-.596.609-.55 1-1.337 1-2.22z"/></svg>