<?xml version="1.0" encoding="UTF-8"?>
<svg width="24px" height="24px" viewBox="0 0 24 24" version="1.1" xmlns="http://www.w3.org/2000/svg" xmlns:xlink="http://www.w3.org/1999/xlink">
    <!-- Generator: Sketch 61.2 (89653) - https://sketch.com -->
    <title>Apps-24px</title>
    <desc>Created with Sketch.</desc>
    <defs>
        <path d="M9,15 L9,18 L6,18 L6,15 L9,15 Z M13.5,15 L13.5,18 L10.5,18 L10.5,15 L13.5,15 Z M18,15 L18,18 L15,18 L15,15 L18,15 Z M9,10.5 L9,13.5 L6,13.5 L6,10.5 L9,10.5 Z M13.5,10.5 L13.5,13.5 L10.5,13.5 L10.5,10.5 L13.5,10.5 Z M18,10.5 L18,13.5 L15,13.5 L15,10.5 L18,10.5 Z M9,6 L9,9 L6,9 L6,6 L9,6 Z M13.5,6 L13.5,9 L10.5,9 L10.5,6 L13.5,6 Z M18,6 L18,9 L15,9 L15,6 L18,6 Z" id="path-1"></path>
    </defs>
    <g id="Apps-24px" stroke="none" stroke-width="1" fill="none" fill-rule="evenodd">
        <mask id="mask-2" fill="white">
            <use xlink:href="#path-1"></use>
        </mask>
        <use id="Combined-Shape" fill="var(--icon-color, #1c1c1c)" xlink:href="#path-1"></use>
    </g>
</svg>