<svg xmlns="http://www.w3.org/2000/svg" width="16" height="16" viewBox="0 0 16 16"><path fill="var(--icon-color, #1c1c1c)" d="M13.999 0l-1.435 5.627-1.752-1.755-.071-.071-3.233 3.428L4.5 4.175.003 8.492.001 7.073l4.5-4.319 2.991 3.035 2.542-2.695-1.702-1.706L13.999 0zm-2.997 7.993h-1v2h-2v1h2v2h1v-2h2v-1h-2v-2zM14.3 6.522l-.713.713c1.693 1.581 1.913 4.187.509 6.029s-3.974 2.322-5.947 1.109-2.706-3.723-1.697-5.808l-.751-.752c-1.396 2.495-.648 5.643 1.72 7.244s5.568 1.12 7.362-1.105 1.584-5.455-.483-7.43z"/></svg>