<svg xmlns="http://www.w3.org/2000/svg" width="24" height="24" viewBox="0 0 24 24"><path fill="var(--icon-color, #1c1c1c)" d="M7 15.999H5.915c-.276.781-1.133 1.19-1.914.914S2.81 15.78 3.087 15c.276-.781 1.133-1.19 1.914-.914.427.15.763.486.914.914H9v1H8v1H7v-1.001zM4.5 15c-.276 0-.5.224-.5.5s.224.5.5.5.5-.224.5-.5c0-.277-.224-.5-.5-.5zM3 7h6v2H3V7zm10-2.999v1H2c-.552 0-1 .448-1 1V18c0 .552.448 1 1 1h20c.552 0 1-.448 1-1V6c0-.552-.448-1-1-1h-2V4h2c1.105 0 2 .895 2 2v11.999c0 1.104-.895 2-2 2H2c-1.105 0-2-.895-2-2V6c0-1.104.895-2 2-2h11zM14 14h1v1h-1v-1zm2 0h1v1h-1v-1zm2 0h1v1h-1v-1zm2 0h1v1h-1v-1zm-6 1.999h1v1h-1v-1zm2 0h1v1h-1v-1zm2 0h1v1h-1v-1zm2 0h1v1h-1v-1zM14.125 4.637c.753.345 1.085 1.235.74 1.988-.15.327-.412.59-.74.74l-.417-.91c.251-.115.361-.412.246-.663-.05-.109-.137-.196-.246-.246l.417-.909zM15 2.819c1.757.805 2.529 2.882 1.724 4.639-.349.763-.961 1.375-1.724 1.724l-.417-.909c1.255-.575 1.807-2.058 1.232-3.314-.25-.545-.687-.982-1.232-1.232L15 2.819zm.792-1.82c2.762 1.264 3.977 4.527 2.713 7.289-.549 1.201-1.513 2.164-2.713 2.713l-.417-.91c2.26-1.035 3.253-3.705 2.218-5.964-.449-.981-1.237-1.769-2.218-2.218l.417-.91z"/></svg>