<svg xmlns="http://www.w3.org/2000/svg" width="16" height="16" viewBox="0 0 16 16"><path fill="var(--icon-color, #1c1c1c)" d="M14 10h.667c.184 0 .333-.15.333-.333V3.333c0-.184-.149-.333-.333-.333H3.333C3.149 3 3 3.149 3 3.333V5H2V3.333C2 2.597 2.597 2 3.333 2h11.334C15.403 2 16 2.597 16 3.333v6.334c0 .736-.597 1.333-1.333 1.333H14v1.718c0 .446-.046.607-.134.77-.085.161-.217.293-.378.378-.163.088-.324.134-.77.134H1.282c-.446 0-.607-.046-.77-.134-.161-.085-.293-.217-.378-.378-.088-.163-.134-.324-.134-.77V6.282c0-.446.046-.607.134-.77.085-.161.217-.293.378-.378C.675 5.046.836 5 1.282 5h11.436c.446 0 .607.046.77.134.163.087.291.215.378.378.088.163.134.324.134.77V10zm0 1v-1m-1-3.718c0-.181-.002-.245-.007-.275-.091-.008-.183-.01-.275-.007H1.282c-.181 0-.245.002-.275.007-.005.03-.007.094-.007.275v6.436c0 .181.002.245.007.275.03.005.094.007.275.007h11.436c.181 0 .245-.002.275-.007.005-.03.007-.094.007-.275M2 11h8v1H2v-1zm0-2h5v1H2V9z"/></svg>