<svg xmlns="http://www.w3.org/2000/svg" width="16" height="16" viewBox="0 0 16 16"><path d="M2,9H5V8H2Zm0,2H5V10H2ZM15.866,3.512a.906.906,0,0,0-.378-.378A1.438,1.438,0,0,0,14.718,3H1.282a1.438,1.438,0,0,0-.77.134.906.906,0,0,0-.378.378A1.438,1.438,0,0,0,0,4.282v7.436a1.436,1.436,0,0,0,.134.77.906.906,0,0,0,.378.378,1.438,1.438,0,0,0,.77.134H5V12H1.282a2.373,2.373,0,0,1-.275-.007A2.373,2.373,0,0,1,1,11.718V4.282a2.373,2.373,0,0,1,.007-.275A2.373,2.373,0,0,1,1.282,4H14.718a2.373,2.373,0,0,1,.275.007A2.373,2.373,0,0,1,15,4.282V7h1V4.282A1.438,1.438,0,0,0,15.866,3.512ZM11.5,7A4.461,4.461,0,0,0,8.612,8.056L7,7l0,4.717,4.184-1.974-1.678-1.1A3.448,3.448,0,0,1,11.5,8a3.5,3.5,0,1,1-2.88,5.482l-.909.428A4.5,4.5,0,1,0,11.5,7Z" fill="var(--icon-color, #1c1c1c)"/></svg>