<svg xmlns="http://www.w3.org/2000/svg" width="24" height="24" viewBox="0 0 24 24"><path fill="var(--icon-color, #1c1c1c)"  d="M3 15h8v1H3v-1zm0-4h8v2H3v-2zm8 7v1H2c-1.105 0-2-.895-2-2V5c0-1.105.895-2 2-2h20c1.105 0 2 .895 2 2v7h-1V5c0-.552-.448-1-1-1H2c-.552 0-1 .448-1 1v12c0 .552.448 1 1 1h9zm11-3h-1v-2c0-1.84-1.656-3.293-3.559-2.95-1.448.262-2.441 1.625-2.441 3.097V15h-1c-.552 0-1 .448-1 1v6c0 .552.448 1 1 1h8c.552 0 1-.448 1-1v-6c0-.552-.448-1-1-1zm-6-2c0-1.317 1.276-2.338 2.656-1.895.832.267 1.344 1.11 1.344 1.983V15h-4v-2zm6 9h-8v-6h8v6z"/></svg>