<svg xmlns="http://www.w3.org/2000/svg" width="24" height="24" viewBox="0 0 24 24"><path fill="var(--icon-color, #1c1c1c)" d="M3 15h7v1H3v-1zm0-4h7v2H3v-2zm7 7v1H2c-1.105 0-2-.895-2-2V5c0-1.105.895-2 2-2h20c1.105 0 2 .895 2 2v7h-1V5c0-.552-.448-1-1-1H2c-.552 0-1 .448-1 1v12c0 .552.448 1 1 1h8zm7.5-6c-3.038 0-5.5 2.462-5.5 5.5s2.462 5.5 5.5 5.5 5.5-2.462 5.5-5.5-2.462-5.5-5.5-5.5zM13 17.5c0-2.481 2.019-4.5 4.5-4.5 1.06 0 2.023.384 2.793 1L14 20.293c-.616-.77-1-1.733-1-2.793zm4.5 4.5c-1.018-.004-2.004-.357-2.793-1L21 14.707c.616.77 1 1.733 1 2.793 0 2.481-2.019 4.5-4.5 4.5z"/></svg>