<svg xmlns="http://www.w3.org/2000/svg" width="16" height="16" viewBox="0 0 16 16"><path fill="var(--icon-color, #1c1c1c)" d="M1.282 3h13.436c.446 0 .607.046.77.134.163.087.291.215.378.378.088.163.134.324.134.77v7.436c0 .446-.046.607-.134.77-.085.161-.217.293-.378.378-.163.088-.324.134-.77.134H1.282c-.446 0-.607-.046-.77-.134-.161-.085-.293-.217-.378-.378-.088-.163-.134-.324-.134-.77V4.282c0-.446.046-.607.134-.77.085-.161.217-.293.378-.378C.675 3.046.836 3 1.282 3zM1 4.282v7.436c0 .181.002.245.007.275.03.005.094.007.275.007h13.436c.181 0 .245-.002.275-.007.005-.03.007-.094.007-.275V4.282c0-.181-.002-.245-.007-.275-.091-.008-.183-.01-.275-.007H1.282c-.181 0-.245.002-.275.007-.005.03-.007.094-.007.275zM2 10h5v1H2v-1zm0-2h2v1H2V8zm3 0h2v1H5V8zm3 0h2v1H8V8zm3 0h2v1h-2V8z"/></svg>