<svg xmlns="http://www.w3.org/2000/svg" width="24" height="24" viewBox="0 0 24 24"><path fill="var(--icon-color, #1c1c1c)"  d="M6 9h1v4H6zM8 10.5v1c0 .828.672 1.5 1.5 1.5s1.5-.672 1.5-1.5v-1c0-.828-.672-1.5-1.5-1.5S8 9.672 8 10.5zm2 0v1c0 .276-.224.5-.5.5s-.5-.224-.5-.5v-1c0-.276.224-.5.5-.5s.5.224.5.5zM2 17h11v1H2zM3 19h9v1H3z"/><path fill="var(--icon-color, #1c1c1c)"  d="M1 4v12h12v-1H2V5h20v8h1V4z"/><path fill="var(--icon-color, #1c1c1c)"  d="M15 11.5v-1c0-.828-.672-1.5-1.5-1.5s-1.5.672-1.5 1.5v1c0 .828.672 1.5 1.5 1.5s1.5-.672 1.5-1.5zm-1 0c0 .276-.224.5-.5.5s-.5-.224-.5-.5v-1c0-.276.224-.5.5-.5s.5.224.5.5v1zM22.786 17.554h-1.19c-.193 1.222-.506 2.155-.967 2.831-.64-.69-1.592-1.753-2.44-2.701v-.043c1.592-.761 2.202-1.567 2.202-2.586 0-1.25-.967-2.055-2.217-2.055-1.666 0-2.544 1.207-2.544 2.385 0 .69.312 1.394.833 2.026v.044c-1.146.603-1.964 1.508-1.964 2.83 0 1.451 1.131 2.716 3.08 2.716 1.101 0 2.067-.331 2.931-1.106.387.402.765.834 1.048 1.106H23c-.595-.617-1.121-1.322-1.657-1.868.744-.849 1.176-2.055 1.443-3.579zM18.033 14c.818 0 1.212.524 1.212 1.112 0 .818-.654 1.336-1.666 1.896-.432-.517-.759-1.048-.759-1.738 0-.746.38-1.27 1.213-1.27zm-.223 8c-1.205 0-2.061-.796-2.061-1.902 0-1.02.759-1.638 1.294-1.969 1.116 1.236 2.232 2.414 2.827 3.046-.476.503-1.197.825-2.06.825z"/></svg>