<svg xmlns="http://www.w3.org/2000/svg" width="16" height="16" viewBox="0 0 16 16"><path fill="var(--icon-color, #1c1c1c)" d="M1 3v1H0V1h16v3h-1V3H1zm0 13v-1h14v1H1zm13-3V5h1v9H1V5h1v8h12zM3 8h1v4H3V8zm6 1.5c0-.828.672-1.5 1.5-1.5s1.5.672 1.5 1.5v1c0 .828-.672 1.5-1.5 1.5S9 11.328 9 10.5v-1zm1 0v1c0 .276.224.5.5.5s.5-.224.5-.5v-1c0-.276-.224-.5-.5-.5s-.5.224-.5.5zm-5 0C5 8.672 5.672 8 6.5 8S8 8.672 8 9.5v1c0 .828-.672 1.5-1.5 1.5S5 11.328 5 10.5v-1zm1 0v1c0 .276.224.5.5.5s.5-.224.5-.5v-1c0-.276-.224-.5-.5-.5s-.5.224-.5.5z"/></svg>