<svg xmlns="http://www.w3.org/2000/svg" width="24" height="24" viewBox="0 0 24 24"><path fill="var(--icon-color, #1c1c1c)" d="M0 4V3h24v8h-2v-1h1V5H1v5h1v1H0V4zm4 15v-1h16v1H4zm1 2v-1h14v1H5zm15-5V6h1v11H3V6h1v10h16zM6 10h1v4H6v-4zm6 1.5c0-.828.672-1.5 1.5-1.5s1.5.672 1.5 1.5v1c0 .828-.672 1.5-1.5 1.5s-1.5-.672-1.5-1.5v-1zm1 0v1c0 .276.224.5.5.5s.5-.224.5-.5v-1c0-.276-.224-.5-.5-.5s-.5.224-.5.5zm-5 0c0-.828.672-1.5 1.5-1.5s1.5.672 1.5 1.5v1c0 .828-.672 1.5-1.5 1.5S8 13.328 8 12.5v-1zm1 0v1c0 .276.224.5.5.5s.5-.224.5-.5v-1c0-.276-.224-.5-.5-.5s-.5.224-.5.5z"/></svg>