<svg viewBox="0 0 24 24" xmlns="http://www.w3.org/2000/svg"><path d="m8 21a1 1 0 1 1 1-1 1 1 0 0 1 -1 1zm3 2h-6.5a2.5 2.5 0 0 1 -2.5-2.5v-17a2.5 2.5 0 0 1 2.5-2.5h7a2.5 2.5 0 0 1 2.5 2.5v7.5h-1v-7.5a1.5 1.5 0 0 0 -1.5-1.5h-7a1.5 1.5 0 0 0 -1.5 1.5v13.5h9v1h-9v2.5a1.5 1.5 0 0 0 1.5 1.5h6.5zm9.34-1.87a7.18 7.18 0 0 0 1.45-3.58h-1.19a5.08 5.08 0 0 1 -1 2.84c-.6-.69-1.6-1.76-2.41-2.71 1.59-.76 2.2-1.57 2.2-2.58a2.06 2.06 0 0 0 -2.22-2.1 2.39 2.39 0 0 0 -2.54 2.38 3.27 3.27 0 0 0 .83 2 3.2 3.2 0 0 0 -2 2.83 2.79 2.79 0 0 0 3.12 2.79 4.17 4.17 0 0 0 2.93-1.11c.39.41.76.84 1 1.11h1.49c-.59-.62-1.12-1.32-1.66-1.87zm-3.34-7.13a1.1 1.1 0 0 1 1.22 1.11c0 .82-.66 1.34-1.67 1.9a2.69 2.69 0 0 1 -.76-1.74 1.13 1.13 0 0 1 1.21-1.27zm-.22 8a1.91 1.91 0 0 1 -2.06-1.9 2.39 2.39 0 0 1 1.29-2c1.12 1.23 2.24 2.41 2.83 3.05a2.81 2.81 0 0 1 -2.03.85z" fill="var(--icon-color, #1c1c1c)"/></svg>