<svg xmlns="http://www.w3.org/2000/svg" width="24" height="24" viewBox="0 0 24 24"><path fill="var(--icon-color, #1c1c1c)"  d="M2.441 17H14v1h-2v2h2v1H8v-1h3v-2H2.441C1.646 18 1 17.354 1 16.559V4.441C1 3.646 1.646 3 2.441 3h18.117C21.354 3 22 3.646 22 4.441V10h-1V4.441c0-.243-.198-.441-.441-.441H2.441C2.198 4 2 4.198 2 4.441v12.117c0 .244.198.442.441.442zM23 13.167v8.666c0 .644-.523 1.167-1.167 1.167h-4.667C16.523 23 16 22.477 16 21.833v-8.666c0-.644.523-1.167 1.167-1.167h4.667c.643 0 1.166.523 1.166 1.167zM22 21h-5v.833c0 .092.075.167.167.167h4.667c.091 0 .166-.075.166-.167V21zm0-1v-6.833c0-.092-.075-.167-.167-.167h-4.667c-.091 0-.166.075-.166.167V20h5zM14.088 9.041c.1.401.15.825.15 1.273v.422H9.664c0 .354.047.686.141.995.094.309.234.579.419.809s.416.413.691.547c.275.134.592.202.95.202.154 0 .319-.014.496-.042.177-.028.352-.065.525-.112.173-.047.334-.1.483-.16.149-.06.273-.122.371-.186v.838c-.145.06-.299.112-.461.157s-.327.083-.496.115c-.168.032-.336.057-.502.074-.167.018-.327.027-.48.027-.555 0-1.025-.089-1.411-.266-.386-.177-.7-.421-.941-.733s-.416-.681-.525-1.11-.163-.892-.163-1.391c0-.512.067-.982.202-1.411.134-.429.325-.798.573-1.107.247-.309.544-.55.889-.723.346-.173.729-.259 1.152-.259.474 0 .878.089 1.213.266.335.177.61.417.825.72.215.302.373.654.473 1.055zm-.752.985c0-.29-.031-.574-.093-.851s-.161-.525-.297-.742c-.137-.218-.314-.392-.531-.525-.218-.132-.48-.198-.787-.198-.303 0-.576.069-.819.208-.243.139-.45.318-.621.537-.171.22-.301.468-.39.745-.09.277-.134.552-.134.825h3.672z"/></svg>