<svg xmlns="http://www.w3.org/2000/svg" width="24" height="24" viewBox="0 0 24 24"><path fill="var(--icon-color, #1c1c1c)"  d="M7 11h7v1H7v-1zm0 3h5v1H7v-1zm0-6h10v1H7V8zM5 21h7v1H4V4h12V2H2v16h1v1H1V1h16v3h3v6h-1V5H5v16zm10.482-3.128c0 .556.077 1.078.231 1.564s.384.91.689 1.272c.305.362.683.649 1.136.86s.973.317 1.561.317c.252 0 .524-.022.815-.065.291-.043.578-.103.862-.176s.549-.158.794-.251c.245-.094.449-.191.61-.292v1.317c-.239.094-.491.176-.757.246s-.538.131-.815.181c-.277.05-.552.088-.825.116-.274.026-.537.039-.789.039-.912 0-1.684-.139-2.318-.417s-1.149-.662-1.546-1.151-.683-1.071-.862-1.745C14.089 19.013 14 18.284 14 17.5c0-.804.11-1.543.331-2.217.221-.674.534-1.254.941-1.739.407-.486.894-.865 1.461-1.136.568-.272 1.199-.408 1.893-.408.778 0 1.443.139 1.992.417.55.279 1.002.655 1.356 1.131s.613 1.03.778 1.659c.166.631.248 1.298.248 2.001v.664h-7.518zm5.883-2.453c-.102-.436-.265-.824-.489-1.166-.224-.342-.515-.617-.873-.824-.357-.207-.789-.312-1.293-.312-.497 0-.946.109-1.346.327-.4.218-.739.5-1.02.845s-.494.735-.641 1.171c-.147.435-.221.868-.221 1.297h6.035c.001-.457-.05-.903-.152-1.338z"/></svg>