<svg enable-background="new 0 0 24 24" height="24" viewBox="0 0 24 24" width="24" xmlns="http://www.w3.org/2000/svg"><path d="m12.522 13.633c1.254-1.054 2.84-1.633 4.478-1.633 2.83 0 5.348 1.712 6.46 4.303l-.92.394c-.955-2.227-3.116-3.697-5.54-3.697-1.429 0-2.766.51-3.82 1.386zm4.478-9.633c-1.657 0-3 1.343-3 3s1.343 3 3 3 3-1.343 3-3-1.343-3-3-3zm0-1c2.209 0 4 1.791 4 4s-1.791 4-4 4-4-1.791-4-4 1.791-4 4-4zm-6.008 8.26-.627.783c-.991-.679-2.164-1.043-3.365-1.043-2.424 0-4.585 1.469-5.54 3.697l-.92-.394c1.112-2.591 3.63-4.303 6.46-4.303 1.464 0 2.846.459 3.992 1.26zm-3.992-9.26c-1.657 0-3 1.343-3 3s1.343 3 3 3 3-1.343 3-3-1.343-3-3-3zm0-1c2.209 0 4 1.791 4 4s-1.791 4-4 4-4-1.791-4-4 1.791-4 4-4zm1 18c1.105 0 2-.895 2-2s-.895-2-2-2-2 .895-2 2 .895 2 2 2zm0 1c-1.657 0-3-1.343-3-3s1.343-3 3-3 3 1.343 3 3-1.343 3-3 3zm-2.39.208c.32.239.678.431 1.062.566-.968.414-1.773 1.271-2.205 2.404l-.934-.356c.427-1.12 1.164-2.032 2.077-2.614zm4.78 0c.913.582 1.65 1.493 2.077 2.614l-.934.356c-.432-1.133-1.237-1.99-2.205-2.404.381-.134.739-.325 1.062-.566z" fill="var(--icon-color, #1c1c1c)"/></svg>