<svg height="12" viewBox="0 0 12 12" width="12" xmlns="http://www.w3.org/2000/svg"><path d="m10.13 2.85a2.946 2.946 0 0 0 -4.14 0 2.958 2.958 0 0 0 -4.15 0 2.867 2.867 0 0 0 0 4.07l4.15 4.08 4.14-4.08a2.838 2.838 0 0 0 0-4.07zm-.73 3.35-.73.72-.85.84-.01.01-1.82 1.79-1.83-1.8-.85-.84-.73-.72a1.824 1.824 0 0 1 0-2.63 1.85 1.85 0 0 1 1.34-.55 1.844 1.844 0 0 1 1.33.55.96.96 0 0 1 .14.15 8.771 8.771 0 0 1 .6 1.16 7.685 7.685 0 0 1 .6-1.16.87.87 0 0 1 .13-.15 1.907 1.907 0 0 1 2.68 0 1.824 1.824 0 0 1 0 2.63z" fill="var(--icon-color, #1c1c1c)"/><path d="m0 0h12v12h-12z" fill="none"/></svg>