<svg height="24" viewBox="0 0 24 24" width="24" xmlns="http://www.w3.org/2000/svg"><path d="m21.181 3.864a6.243 6.243 0 0 0 -4.492-1.864 5.669 5.669 0 0 0 -4.237 1.864c-.082.093-.174.206-.246.3l-.206.256-.2-.257c-.072-.093-.164-.206-.245-.3a5.671 5.671 0 0 0 -4.24-1.863 6.243 6.243 0 0 0 -4.492 1.864 6.739 6.739 0 0 0 -1.823 4.552 6.707 6.707 0 0 0 1.822 4.789l9.178 9.795 9.179-9.784a6.92 6.92 0 0 0 .002-9.352zm-.737 8.518-8.444 9.018-8.441-9.018a5.519 5.519 0 0 1 -1.494-3.605 5.653 5.653 0 0 1 1.494-4.077 5.178 5.178 0 0 1 3.756-1.546 4.634 4.634 0 0 1 3.5 1.534 6.191 6.191 0 0 1 .481.6c.061.083.184.258.317.454.174.236.307.412.4.545l.7-1a5.111 5.111 0 0 1 .481-.6 4.631 4.631 0 0 1 3.5-1.534 5.2 5.2 0 0 1 3.76 1.547 5.668 5.668 0 0 1 -.01 7.682z" fill="var(--icon-color, #1c1c1c)"/><path d="m0 0h24v24h-24z" fill="none"/></svg>