<svg xmlns="http://www.w3.org/2000/svg" width="24" height="24" viewBox="0 0 24 24"><path d="M4.45 15.622L9.171 13a3 3 0 0 1 .473-2.857L4.825 4.822a2 2 0 1 1 .78-.628l4.78 5.278a3 3 0 0 1 3.144-.053L15.4 7.2a2 2 0 1 1 .783.623l-1.894 2.238a3 3 0 0 1 .447 3.16l4.927 3.285a2 2 0 1 1-.555.832l-4.927-3.285a3.011 3.011 0 0 1-1.177.77L13.567 18a2.5 2.5 0 1 1-.985.173L12.022 15H12a3 3 0 0 1-2.343-1.126L4.936 16.5a2 2 0 1 1-.486-.874zM12 14a2 2 0 1 0-2-2 2 2 0 0 0 2 2zm1.5 8a1.5 1.5 0 1 0-1.5-1.5 1.5 1.5 0 0 0 1.5 1.5zM17 7a1 1 0 1 0-1-1 1 1 0 0 0 1 1z" fill="var(--icon-color, #1c1c1c)"/></svg>