<svg xmlns="http://www.w3.org/2000/svg" width="24" height="24" viewBox="0 0 24 24"><path fill="var(--icon-color, #1c1c1c)" d="M17.5 12c-3.038 0-5.5 2.462-5.5 5.5 0 3.037 2.462 5.5 5.5 5.5s5.5-2.462 5.5-5.5-2.462-5.5-5.5-5.5zM13 17.5c0-2.481 2.019-4.5 4.5-4.5 1.06 0 2.023.384 2.793 1L14 20.293c-.616-.77-1-1.733-1-2.793zm4.5 4.499c-1.06 0-2.023-.384-2.793-1L21 14.707c.616.77 1 1.733 1 2.793 0 2.481-2.019 4.499-4.5 4.499zM2.443 6.256l2.928 3.946-.803.596L1.65 6.865C.798 5.792.782 4.278 1.61 3.187c.828-1.091 2.291-1.483 3.554-.951l-.388.921c-.845-.357-1.824-.093-2.376.64-.551.732-.534 1.746.043 2.459zm2.721-4.02zM7 20.999h3l-.012 1H7v-1zM22.251 6.864L19.926 10h-1.245l2.777-3.742c.577-.713.594-1.727.043-2.46-.552-.733-1.531-.997-2.376-.64l-.388-.922v-.001c1.263-.532 2.726-.14 3.554.951.828 1.091.812 2.605-.04 3.678zM17.44 10h-1.009c.354-1.883.549-4.21.569-7H7c.048 6.693 1.083 10.744 3 12.28v1.21c-2.699-1.453-4-6.146-4-13.989v-.5h12s-.187 5.944-.56 7.999z"/></svg>