<svg enable-background="new 0 0 16 16" height="16" viewBox="0 0 16 16" width="16" xmlns="http://www.w3.org/2000/svg"><path d="m7.983 7c-.04 1.057-.196 2.077-.461 3h1.041c.246-.938.386-1.955.422-3h2.985c-.066.714-.264 1.39-.577 2h1.106c.261-.623.422-1.297.476-2 .02-.347.021-.682 0-1-.257-3.351-3.06-6-6.475-6-3.584 0-6.5 2.916-6.5 6.5 0 3.348 2.61 6.2 5.943 6.484h.002c.018.002.037.001.055.002v-1.624c-.571-1.23-.913-2.749-.975-4.362zm3.992-1h-3.004c-.06-1.787-.436-3.444-1.082-4.815 2.205.577 3.874 2.486 4.086 4.815zm-5.475-5c.065 0 .128.007.192.01.761 1.31 1.209 3.099 1.279 4.99h-2.942c.071-1.89.515-3.679 1.276-4.99.065-.002.129-.01.195-.01zm-1.389.185c-.647 1.37-1.023 3.029-1.086 4.815h-2.982c.213-2.326 1.864-4.239 4.068-4.815zm-.02 10.631c-2.196-.59-3.834-2.524-4.048-4.816h2.982c.062 1.766.43 3.452 1.066 4.816zm6.909 4.184v-2h-5l1.353-1h3.647v-2l4 2.5z" fill="var(--icon-color, #1c1c1c)"/></svg>