<svg enable-background="new 0 0 24 24" height="24" viewBox="0 0 24 24" width="24" xmlns="http://www.w3.org/2000/svg"><path d="m12.834 1.042c-.13-.012-.613-.042-.834-.042s-.732.026-.834.042c-5.684.428-10.166 5.165-10.166 10.958s4.482 10.53 10.166 10.958c.12.015.613.042.834.042s.751-.029.834-.042c5.684-.428 10.166-5.165 10.166-10.958s-4.482-10.53-10.166-10.958zm8.321 6.958h-4.616c-.521-2.222-1.46-4.215-2.707-5.824 3.289.612 6.012 2.84 7.323 5.824zm-9.553-5.98c.133-.005.264-.02.398-.02s.265.015.398.02c1.432 1.554 2.517 3.623 3.106 5.98h-7.008c.589-2.357 1.674-4.426 3.106-5.98zm4.398 9.98h-8c0-1.033.097-2.036.273-3h7.454c.176.964.273 1.967.273 3zm-.496 4h-7.008c-.239-.957-.391-1.961-.452-3h7.913c-.062 1.039-.213 2.043-.453 3zm1.457-3h4.986c-.106 1.058-.381 2.065-.792 3h-4.616c.225-.96.364-1.965.422-3zm-9.5 3h-4.616c-.411-.935-.686-1.942-.792-3h4.986c.058 1.035.197 2.04.422 3zm2.707-13.824c-1.246 1.609-2.186 3.602-2.707 5.824h-4.616c1.311-2.984 4.034-5.212 7.323-5.824zm-7.698 6.824h4.791c-.167.967-.261 1.969-.261 3h-5c0-1.046.17-2.052.47-3zm.876 8h4.39c.548 1.819 1.377 3.461 2.432 4.824-2.912-.542-5.383-2.347-6.822-4.824zm9.052 4.98c-.133.005-.264.02-.398.02s-.265-.015-.398-.02c-1.225-1.33-2.19-3.04-2.816-4.98h6.427c-.625 1.94-1.59 3.65-2.815 4.98zm1.434-.156c1.055-1.363 1.884-3.005 2.432-4.824h4.39c-1.439 2.477-3.91 4.282-6.822 4.824zm3.168-9.824c0-1.031-.094-2.033-.261-3h4.791c.3.948.47 1.954.47 3z" fill="var(--icon-color, #1c1c1c)"/></svg>