<svg xmlns="http://www.w3.org/2000/svg" width="16" height="16" viewBox="0 0 16 16"><path fill="var(--icon-color, #1c1c1c)"  d="M10 4.5c0-.828.672-1.5 1.5-1.5s1.5.672 1.5 1.5S12.328 6 11.5 6 10 5.328 10 4.5zM5 14.707V13h2v-2h1.707l1.151-1.151c.405.103.774.151 1.142.151 2.757 0 5-2.243 5-5s-2.243-5-5-5-5 2.243-5 5c0 .645.132 1.283.393 1.9L0 13.293V16h3.707L5 14.707zm-4-1l6.602-6.602-.163-.322C7.148 6.203 7 5.604 7 5c0-2.206 1.794-4 4-4s4 1.794 4 4-1.794 4-4 4c-.354 0-.717-.06-1.145-.189l-.287-.086L8.293 10H6v2H4v2.293L3.293 15H1v-1.293z"/></svg>