<svg height="16" viewBox="0 0 16 16" width="16" xmlns="http://www.w3.org/2000/svg"><path d="m10.705 9.594-4.934 2.691a3.5 3.5 0 0 0 -.491-.871l4.948-2.7a3.5 3.5 0 0 0 .477.88zm-1.105-5.494a3.5 3.5 0 0 1 -.574.818l1.39.994a3.474 3.474 0 0 1 .569-.822zm-5.642 9.174a1.636 1.636 0 0 0 -.05-.274 1.494 1.494 0 0 0 -.17-.33l-.01-.013a1.5 1.5 0 0 0 -.728-.565 1.483 1.483 0 0 0 -.5-.092 1.483 1.483 0 0 0 -.5.092 1.5 1.5 0 1 0 1.908 1.908 1.483 1.483 0 0 0 .092-.5 1.218 1.218 0 0 0 -.042-.226zm3.968-10.374a1.423 1.423 0 0 0 .074-.4 1.483 1.483 0 0 0 -.092-.5 1.5 1.5 0 1 0 -1.955 1.883c.011 0 .021.013.033.018l.014.007a1.51 1.51 0 0 0 .457.084c.011 0 .02.006.03.006l.013.002a1.483 1.483 0 0 0 .5-.092 1.512 1.512 0 0 0 .351-.186h.008c.024-.017.039-.043.062-.062a1.491 1.491 0 0 0 .242-.241c.023-.029.048-.055.068-.085a1.458 1.458 0 0 0 .177-.334c.006-.016 0-.035.01-.051s.014-.024.018-.038zm6.074 3.192a1.4 1.4 0 0 0 -1 0 1.486 1.486 0 0 0 -.35.186 1.479 1.479 0 0 0 -.3.287c-.016.02-.032.038-.047.059a1.479 1.479 0 0 0 -.211.376c-.011.03-.009.065-.018.1a1.429 1.429 0 0 0 -.074.4 1.2 1.2 0 0 0 .042.226 1.636 1.636 0 0 0 .05.274 1.34 1.34 0 0 0 .181.338 1.479 1.479 0 0 0 1.227.662 1.5 1.5 0 0 0 .5-2.908z" fill="var(--icon-color, #1c1c1c)"/></svg>