<svg height="16" viewBox="0 0 16 16" width="16" xmlns="http://www.w3.org/2000/svg"><path d="m5.8 3.366 4.213-.7a3.5 3.5 0 0 0 .186.983l-4.214.7a3.467 3.467 0 0 0 -.185-.983zm-3.8 4.59v2.088a3.389 3.389 0 0 1 .5-.044 3.389 3.389 0 0 1 .5.044v-2.088a3.389 3.389 0 0 1 -.5.044 3.389 3.389 0 0 1 -.5-.044zm11.5-6.956a1.5 1.5 0 0 0 -1.408 1 1.545 1.545 0 0 0 -.06.328 1.214 1.214 0 0 0 -.032.172 1.483 1.483 0 0 0 .092.5 1.484 1.484 0 0 0 .151.307 1.494 1.494 0 0 0 .757.6 1.4 1.4 0 0 0 1 0 1.5 1.5 0 0 0 -.5-2.907zm.5 9.044v-4.088a2.863 2.863 0 0 1 -1 0v4.088a2.863 2.863 0 0 1 1 0zm-10.092 2.956a1.5 1.5 0 0 0 -.908-.908 1.483 1.483 0 0 0 -.5-.092 1.483 1.483 0 0 0 -.5.092 1.5 1.5 0 1 0 1.908 1.908 1.4 1.4 0 0 0 0-1zm6.136 1a2.863 2.863 0 0 1 0-1h-4.088a2.863 2.863 0 0 1 0 1zm3.956-1.908a1.4 1.4 0 0 0 -1 0 1.5 1.5 0 0 0 -.908.908 1.4 1.4 0 0 0 0 1 1.5 1.5 0 1 0 1.908-1.908zm-10.092-8.092a1.5 1.5 0 1 0 -1.908 1.908 1.483 1.483 0 0 0 .5.092 1.483 1.483 0 0 0 .5-.092 1.5 1.5 0 0 0 .908-.908 1.4 1.4 0 0 0 0-1z" fill="var(--icon-color, #1c1c1c)"/></svg>