<svg xmlns="http://www.w3.org/2000/svg" width="12" height="12" viewBox="0 0 12 12"><path fill="var(--icon-color, #1c1c1c)" d="M.76 10.784C-.253 9.771-.253 8.129.76 7.115l2.586-2.586c.272-.272.592-.466.929-.592.396-.146.816-.188 1.229-.137.552.069 1.086.304 1.511.729l.588.588-.707.706-.587-.587c-.328-.328-.765-.478-1.196-.461-.35.016-.693.147-.975.391-.027.024-.058.044-.085.07L1.467 7.822c-.622.622-.622 1.634 0 2.256l.457.456c.622.622 1.633.622 2.255 0l1.17-1.17h1.405c-.016.014-.025.03-.039.045l-1.83 1.831c-1.013 1.013-2.655 1.013-3.668 0l-.457-.456zm10.48-9.568c1.013 1.013 1.013 2.655 0 3.669L8.654 7.471c-.272.272-.592.466-.93.592-.395.146-.815.188-1.228.137-.552-.069-1.086-.304-1.511-.729l-.588-.588.707-.707.588.588c.328.328.765.478 1.195.461.35-.016.693-.147.975-.391.027-.024.058-.044.085-.07l2.586-2.586c.622-.622.622-1.634 0-2.256l-.457-.456c-.622-.622-1.633-.622-2.255 0l-1.17 1.17H5.247c.015-.015.024-.031.038-.046L7.115.76C8.128-.253 9.77-.253 10.783.76l.457.456z"/><path fill="none" d="M0 0h12v12H0z"/></svg>