<svg xmlns="http://www.w3.org/2000/svg" width="12" height="12" viewBox="0 0 12 12"><path fill="var(--icon-color, #1c1c1c)" fill-rule="evenodd" clip-rule="evenodd" d="M7 6V5c0-1.072-.572-2.062-1.5-2.598s-2.072-.536-3 0S1 3.928 1 5v1c-.552 0-1 .448-1 1v4c0 .552.448 1 1 1h6c.552 0 1-.448 1-1V7c0-.552-.448-1-1-1zM2 5c0-1.103.897-2 2-2s2 .897 2 2v1H2V5zm5 6H1V7h6v4zm5-6v4c0 .552-.448 1-1 1H9V9h2V5H8V4h2V3c0-1.103-.897-2-2-2-.521 0-.991.205-1.347.531L5.945.824C6.499.296 7.235.001 8 0c1.657 0 3 1.343 3 3v1c.552 0 1 .448 1 1z"/><path fill="none" d="M0 0h12v12H0z"/></svg>