<svg height="16" viewBox="0 0 16 16" width="16" xmlns="http://www.w3.org/2000/svg"><path d="m12.646 2.646-2.646 2.647v-3.293l-4.994 3h-2.006a2 2 0 0 0 -2 2v2a2 2 0 0 0 2 2h1.293l-1.647 1.646.708.708 10-10zm-7.369 7.354h-2.277a1 1 0 0 1 -1-1v-2a1 1 0 0 1 1-1h2.283l.238-.143 3.479-2.09v2.526l-3.713 3.713zm4.723-1.906v5.906l-3.691-2.215.729-.728 1.962 1.177v-3.14zm2.874-2.847a3.945 3.945 0 0 1 1.126 2.753 3.992 3.992 0 0 1 -3 3.859v-1.043a3 3 0 0 0 2-2.816 2.956 2.956 0 0 0 -.828-2.051z" fill="var(--icon-color, #1c1c1c)"/></svg>