<svg xmlns="http://www.w3.org/2000/svg" width="14.001" height="16" viewBox="0 0 14.001 16"><path fill="var(--icon-color, #1c1c1c)" d="M9.001 10h-8V2.13a1.08 1.08 0 0 1 1-1.13h6a1.08 1.08 0 0 1 1 1.13V3l1-.67v-.2a2.07 2.07 0 0 0-2-2.13h-6a2.07 2.07 0 0 0-2 2.13v11.74a2.08 2.08 0 0 0 2 2.13h6a2.08 2.08 0 0 0 2-2.13v-3.16zm0 3.87a1.08 1.08 0 0 1-1 1.13h-6a1.08 1.08 0 0 1-1-1.13V11h8zm-5-.87a1 1 0 1 1 1 1 1 1 0 0 1-1-1zm3-5.42a1.863 1.863 0 0 0 .35-1.09 1.884 1.884 0 0 0-.35-1.09l.78-.54a2.809 2.809 0 0 1 0 3.26zm1.55 1.09a3.739 3.739 0 0 0 0-4.36l.78-.54a4.69 4.69 0 0 1 0 5.44zm3.55-2.18a6.589 6.589 0 0 1-1.21 3.81l-.78-.54a5.66 5.66 0 0 0 0-6.54l.78-.54a6.589 6.589 0 0 1 1.21 3.81zm1.9 0a8.518 8.518 0 0 1-1.55 4.9l-.78-.54a7.581 7.581 0 0 0 0-8.72l.78-.54a8.518 8.518 0 0 1 1.55 4.9z"/></svg>