<svg xmlns="http://www.w3.org/2000/svg" width="24" height="24" viewBox="0 0 24 24"><path fill="var(--icon-color, #1c1c1c)" d="M17.5 12c-3.038 0-5.5 2.462-5.5 5.5s2.462 5.5 5.5 5.5 5.5-2.462 5.5-5.5-2.462-5.5-5.5-5.5zM13 17.5c0-2.481 2.019-4.5 4.5-4.5 1.06 0 2.023.384 2.793 1L14 20.293c-.616-.77-1-1.733-1-2.793zm4.5 4.5c-1.06 0-2.023-.384-2.793-1L21 14.707c.616.77 1 1.733 1 2.793 0 2.481-2.019 4.5-4.5 4.5zm3.475-11h-.999C19.724 6.713 16.288 3.277 12 3.025V12H3.025c.251 4.287 3.688 7.724 7.975 7.976v1c-4.845-.254-8.722-4.13-8.975-8.976H2v-1h9V2.025c.167-.008.331-.025.5-.025 5.078 0 9.213 3.987 9.475 9zM10 9.995V1.003c-.151.008-.301.008-.45.022-2.243.223-4.249 1.254-5.758 2.762L10 9.995zM3.133 4.493C1.892 6.01 1.109 7.914 1 10h1.005c.104-1.811.766-3.471 1.83-4.805l-.702-.702z"/></svg>