<svg enable-background="new 0 0 24 24" height="24" viewBox="0 0 24 24" width="24" xmlns="http://www.w3.org/2000/svg"><path d="m16 14.967 1.544 1.595.223.223-3.277 3.275-4-3.89-5.49 5.033v2.759l5.497-4.998 4.013 3.903 4.674-4.672.506.504 1.31 1.266 2-6.965zm-10.654 3.506c-2.613-1.693-4.346-4.628-4.346-7.973 0-2.262.794-4.337 2.114-5.969l.716.716c-.83 1.053-1.416 2.305-1.677 3.671l2.674-2.674.707.707-3.534 3.534c.001.005 0 .01 0 .015 0 .443.043.874.109 1.298l4.136-4.136.707.707-4.579 4.579c.108.355.238.699.389 1.032l4.9-4.901.708.708-5.118 5.118c.178.291.372.571.583.838l5.246-5.246.707.707-5.289 5.289c.238.237.487.463.751.671l11.918-11.918s-.001-.001-.001-.002l.716-.716c1.322 1.632 2.117 3.708 2.117 5.972 0 .512-.052 1.01-.13 1.5h-1.011c.088-.488.141-.987.141-1.5 0-1.62-.465-3.128-1.255-4.417l-12.136 12.136-.004-.004zm-1.565-14.689c1.42-1.42 3.29-2.381 5.374-2.677.441-.064.887-.107 1.345-.107.656 0 1.296.066 1.914.193.595.122 1.168.302 1.716.529.022.009.045.015.066.024.829.351 1.596.818 2.285 1.378.019.016.04.029.059.044.213.176.416.364.614.558.02.019.041.036.061.055 0 0 .001.001.002.001l-6.717 6.718-6.007-6.007-.001.001z" fill="var(--icon-color, #1c1c1c)"/></svg>