<svg height="16" viewBox="0 0 16 16" width="16" xmlns="http://www.w3.org/2000/svg"><path d="m11.01 12a5.007 5.007 0 0 1 -8.01-4h2l-2.5-4-2.5 4h2a6 6 0 0 0 6 6 5.944 5.944 0 0 0 3.71-1.29zm2.99-4a6 6 0 0 0 -6-6 5.944 5.944 0 0 0 -3.71 1.29l.7.71a5.007 5.007 0 0 1 8.01 4h-2l2.5 4 2.5-4z" fill="var(--icon-color, #1c1c1c)"/><g fill="none"><path d="m14 8a6 6 0 0 0 -6-6 5.944 5.944 0 0 0 -3.71 1.29l.7.71a5.007 5.007 0 0 1 8.01 4h-2l2.5 4 2.5-4zm-6 5a5 5 0 0 1 -5-5h2l-2.5-4-2.5 4h2a6 6 0 0 0 6 6 5.944 5.944 0 0 0 3.71-1.29l-.7-.71a4.993 4.993 0 0 1 -3.01 1z"/><path d="m11.71 12.71-.7-.71"/><path d="m0 0h16v16h-16z"/></g></svg>