<svg height="12" viewBox="0 0 12 12" width="12" xmlns="http://www.w3.org/2000/svg"><path d="m10 6a4 4 0 0 0 -5.25-3.8l.55.88a3.194 3.194 0 0 1 .7-.08 3 3 0 0 1 3 3h-2l2.5 4 2.5-4zm-3.3 2.92a3.194 3.194 0 0 1 -.7.08 3 3 0 0 1 -3-3h2l-2.5-4-2.5 4h2a3.992 3.992 0 0 0 5.24 3.8z" fill="var(--icon-color, #1c1c1c)"/><g fill="none"><path d="m7.24 9.8a3.992 3.992 0 0 1 -5.24-3.8h-2l2.5-4 2.5 4h-2a3 3 0 0 0 3 3 3.194 3.194 0 0 0 .7-.08z"/><path d="m12 6-2.5 4-2.5-4h2a3 3 0 0 0 -3-3 3.194 3.194 0 0 0 -.7.08l-.55-.88a4 4 0 0 1 5.25 3.8z"/><path d="m7.24 9.8-.54-.88"/><path d="m0 0h12v12h-12z"/></g></svg>