<svg xmlns="http://www.w3.org/2000/svg" width="24" height="24" viewBox="0 0 24 24"><path fill="var(--icon-color, #1c1c1c)" d="M11 15c-.218-.029-.796-.136-1.006-.186v.002c-.014-.003-.026-.01-.04-.013-.495-.122-.968-.3-1.412-.528l-6.113 6.113L1 18.974l5.907-5.891c-.673-.672-1.198-1.49-1.525-2.402-.004-.01-.007-.021-.011-.032-.115-.329-.208-.668-.269-1.019-.004-.019-.005-.038-.008-.057C5.035 9.223 5 8.866 5 8.5 5 4.916 7.916 2 11.5 2S18 4.916 18 8.5c0 .259-.017.514-.048.765-.005.042-.017.082-.023.124-.03.206-.063.411-.111.611 0 .002-.001.004-.001.005h-1.031c.032-.114.05-.233.075-.349.029-.13.064-.257.084-.389.035-.25.055-.506.055-.767C17 5.467 14.533 3 11.5 3S6 5.467 6 8.5c0 .336.037.664.095.984.023.127.063.248.096.372.047.184.096.368.162.544.054.145.12.285.186.424.068.143.138.285.218.421.082.141.171.277.265.409.088.124.182.243.279.359.103.123.207.244.32.357.118.118.245.225.373.332.109.092.216.187.332.27.189.134.391.251.596.361.07.037.134.084.205.118.576.277 1.209.488 1.873.549v1zm12 2.5c0 3.038-2.462 5.5-5.5 5.5S12 20.538 12 17.5s2.462-5.5 5.5-5.5 5.5 2.462 5.5 5.5zm-9 2.793L20.293 14c-.77-.616-1.733-1-2.793-1-2.481 0-4.5 2.019-4.5 4.5 0 1.06.384 2.023 1 2.793zm8-2.793c0-1.06-.384-2.023-1-2.793L14.707 21c.77.616 1.733 1 2.793 1 2.481 0 4.5-2.019 4.5-4.5z"/></svg>