<svg xmlns="http://www.w3.org/2000/svg" width="24" height="24" viewBox="0 0 24 24"><path fill="var(--icon-color, #1c1c1c)"  d="M23 13.856v2.005c0 .848-.276 1.581-.543 2.291-.237.63-.46 1.225-.46 1.838h-1.001c0-.795.267-1.504.525-2.191.247-.654.48-1.273.48-1.939v-2.005c0-.269-.172-.506-.427-.591l-4.824-1.715c-.186-.066-.315-.235-.331-.432l-.443-5.577c-.002-.315-.227-.54-.503-.54-.275 0-.482.214-.482.496v7.838c0 .482-.288.913-.734 1.099-.444.186-.954.084-1.297-.257l-2.452-2.393c-.119-.12-.307-.119-.421-.005-.097.096-.114.243-.045.358l3.754 5.92c.124.186.254.323.372.45.306.33.653.703.653 1.492H13.82c0-.397-.121-.526-.385-.812-.15-.162-.312-.339-.471-.576l-.891-1.336-2.884-4.614c-.312-.519-.231-1.169.191-1.589.503-.504 1.326-.505 1.83.001l2.452 2.392c.082.082.168.063.211.045.044-.018.127-.065.127-.174V5.496C14 4.657 14.642 4 15.473 4c.828 0 1.501.673 1.501 1.5l.415 5.215 4.509 1.604c.655.218 1.102.836 1.102 1.537zM7.225 4H2.774C2.347 4 2 4.347 2 4.774v2.451c0 .428.347.775.775.775h4.451C7.653 8 8 7.653 8 7.226V4.775C8 4.347 7.653 4 7.225 4zM2.909 14H7v-1H3v-2h4v-1H2.909c-.502 0-.909.407-.909.909v2.182c0 .502.407.909.909.909zM8 16.865v2.269c0 .478-.387.866-.865.866h-4.27C2.387 20 2 19.612 2 19.134v-2.268c0-.478.388-.866.866-.866h4.268c.479 0 .866.387.866.865zM7 17H3v2h4v-2z"/></svg>