<svg xmlns="http://www.w3.org/2000/svg" width="24" height="24" viewBox="0 0 24 24"><path fill="var(--icon-color, #1c1c1c)" d="M19 16v1h-5v-1h5zm4 .5c0 3.59-2.91 6.5-6.5 6.5S10 20.09 10 16.5s2.91-6.5 6.5-6.5 6.5 2.91 6.5 6.5zm-1 0c0-3.038-2.462-5.5-5.5-5.5S11 13.462 11 16.5s2.462 5.5 5.5 5.5c3.036-.003 5.497-2.464 5.5-5.5zM16.5 8c.291 0 .581.015.87.044l1.837-1.837L21 8l2-7-7 2 1.793 1.793-3.509 3.509c.722-.198 1.467-.3 2.216-.302zm-4.679 1.407L8.469 6.055 1 14.2V17l7.531-8.055 1.761 1.761c.457-.491.97-.927 1.529-1.299z"/></svg>