<svg xmlns="http://www.w3.org/2000/svg" width="24" height="24" viewBox="0 0 24 24"><path fill="var(--icon-color, #1c1c1c)" d="M19.071 6.343L17.657 4.93l-1.434 1.434-.668-.394c-.563-.333-1.17-.585-1.804-.749L13 5.027V3h-2v2.027l-.75.193c-.634.163-1.242.416-1.805.749l-.668.394-1.434-1.434L4.93 6.343l1.434 1.434-.394.668c-.333.563-.585 1.17-.749 1.804L5.027 11H3v2h2.027l.193.75c.164.636.416 1.243.749 1.805l.394.668-1.434 1.434 1.414 1.414 1.434-1.434.668.394c.562.333 1.169.585 1.804.749l.751.193V21h2v-2.027l.75-.193c.634-.163 1.242-.416 1.805-.749l.668-.394 1.434 1.434 1.414-1.414-1.434-1.434.394-.668c.333-.562.585-1.169.749-1.804l.193-.751H21v-2h-2.027l-.193-.75c-.163-.634-.416-1.242-.749-1.805l-.394-.668 1.434-1.434zM19.748 10H22v4h-2.252c-.187.725-.475 1.42-.856 2.064l1.593 1.593-2.828 2.828-1.593-1.593c-.644.381-1.339.669-2.064.856V22h-4v-2.252c-.725-.187-1.42-.475-2.064-.856l-1.593 1.593-2.828-2.828 1.593-1.593c-.381-.644-.669-1.339-.856-2.064H2v-4h2.252c.189-.734.48-1.427.856-2.064L3.515 6.343l2.828-2.828 1.593 1.593c.644-.381 1.339-.669 2.064-.856V2h4v2.252c.734.189 1.427.48 2.064.856l1.593-1.593 2.828 2.828-1.593 1.593c.377.637.667 1.33.856 2.064zM12 15c1.657 0 3-1.343 3-3s-1.343-3-3-3-3 1.343-3 3 1.343 3 3 3zm0 1c-2.209 0-4-1.791-4-4s1.791-4 4-4 4 1.791 4 4-1.791 4-4 4z"/></svg>