<svg xmlns="http://www.w3.org/2000/svg" width="24" height="24" viewBox="0 0 24 24"><path fill="var(--icon-color, #1c1c1c)" d="M10 17.973V20H9v-1.252c-.734-.189-1.427-.479-2.064-.856l-1.593 1.593-2.828-2.828 1.593-1.593c-.377-.637-.667-1.33-.856-2.064H1V9h2.252c.189-.734.479-1.427.856-2.064L2.515 5.343l2.828-2.828 1.593 1.593c.637-.377 1.33-.667 2.064-.856V1h4v2.252c.734.189 1.427.479 2.064.856l1.593-1.593 2.828 2.828-1.593 1.593c.376.637.667 1.33.856 2.064H17.71c-.162-.545-.39-1.067-.679-1.555l-.394-.668 1.434-1.434-1.414-1.414-1.434 1.434-.668-.394c-.563-.332-1.169-.585-1.804-.748L12 4.027V2h-2v2.027l-.751.193c-.635.164-1.242.416-1.804.749l-.668.394-1.434-1.434-1.414 1.414 1.434 1.434-.394.668c-.333.562-.585 1.169-.749 1.804L4.027 10H2v2h2.027l.193.751c.163.635.416 1.242.748 1.804l.394.668-1.434 1.434 1.414 1.414 1.434-1.434.668.394c.563.332 1.169.585 1.804.748l.752.194zM11 15c-2.209 0-4-1.791-4-4s1.791-4 4-4 4 1.791 4 4-1.791 4-4 4zm0-1c1.657 0 3-1.343 3-3s-1.343-3-3-3-3 1.343-3 3 1.343 3 3 3zm9.826-1.74l-2.391 2.391 1.914 1.914 2.391-2.391c.517 1.266.262 2.773-.765 3.801-1.126 1.126-2.829 1.324-4.158.595l-3.582 4.004c-.471.527-1.281.572-1.807.1-.018-.016-.035-.032-.052-.049-.5-.5-.5-1.31 0-1.81.017-.017.034-.033.052-.049l4.004-3.582c-.73-1.329-.532-3.032.595-4.159 1.026-1.028 2.533-1.283 3.799-.765z"/></svg>