<svg xmlns="http://www.w3.org/2000/svg" width="16" height="16" viewBox="0 0 16 16"><path fill="var(--icon-color, #1c1c1c)"  d="M10.509 4.88c-.966-.771-2.221-1.053-3.443-.776-1.503.342-2.705 1.557-2.99 3.024-.199 1.021-.004 2.057.548 2.918.378.589.736 1.165.965 1.737l.398.995v.722c0 .827.673 1.5 1.5 1.5h1c.827 0 1.5-.673 1.5-1.5v-.72l.177-.443c.226-.564.515-1.05.821-1.563.19-.319.382-.642.564-.991.296-.561.451-1.193.451-1.829 0-1.197-.543-2.317-1.491-3.074zM9 13.5c0 .276-.236.5-.512.5h-1c-.276 0-.5-.224-.5-.5V13H9v.5zm1.665-4.181c-.174.333-.357.64-.538.943-.312.525-.635 1.101-.89 1.738H6.753l-.235-.587c-.262-.654-.647-1.275-1.052-1.906-.413-.643-.558-1.42-.408-2.187.211-1.084 1.107-1.984 2.23-2.239.921-.211 1.871.001 2.597.582.709.565 1.115 1.4 1.115 2.291 0 .482-.113.941-.335 1.365zM5.948 2.566l-.347-1.297L6.566 1l.348 1.308-.966.258zm-2.925.361l.95.95-.707.707-.95-.95.707-.707zm-.707 4.542L1 7.115l.26-.965 1.315.353-.259.966zm.322 1.951l.259.966-1.297.348-.26-.967 1.298-.347zm7.373-6.854l-.966-.258L9.393 1l.966.269-.348 1.297zm3.632 1.068l-.95.95-.707-.707.95-.95.707.707zm-.26 2.869l1.356-.361.261.966-1.358.361-.259-.966zm-.062 2.917l1.297.348-.259.966-1.297-.348.259-.966z"/></svg>