<svg height="16" viewBox="0 0 16 16" width="16" xmlns="http://www.w3.org/2000/svg"><path d="m5 2a3 3 0 1 0 3 3 3 3 0 0 0 -3-3zm0 5a2 2 0 1 1 2-2 2.006 2.006 0 0 1 -2 2zm6-6a2.965 2.965 0 0 0 -2.56 1.44l.74.74a2 2 0 1 1 1.82 2.82 1.955 1.955 0 0 1 -1.41-.59l-.71.71a3 3 0 1 0 2.12-5.12zm-2.65 9.1-.89.6a4.1 4.1 0 0 0 -2.46-.7 3.662 3.662 0 0 0 -3.57 2h-1.13a4.731 4.731 0 0 1 4.7-3 5.244 5.244 0 0 1 3.35 1.1zm7.35.9h-1.13a3.662 3.662 0 0 0 -3.57-2 4.851 4.851 0 0 0 -1.71.29l-.75-.75a5.53 5.53 0 0 1 2.46-.54 4.731 4.731 0 0 1 4.7 3zm-4.7 5-4-2.5 4-2.5v2h3.647l1.353 1h-5z" fill="var(--icon-color, #1c1c1c)"/></svg>