<svg xmlns="http://www.w3.org/2000/svg" width="24" height="24" viewBox="0 0 24 24"><path fill="var(--icon-color, #1c1c1c)" d="M19 18c.552 0 1 .448 1 1s-.448 1-1 1-1-.448-1-1 .448-1 1-1zm3-10.012V6h-3.991l1.989 1.989L18.988 9H23v12.085C23 22.143 22.143 23 21.085 23H2.915C1.857 23 1 22.143 1 21.085V7.5C1 6.119 2.119 5 3.5 5h5.468L13 1l4.009 4H23v2.988h-1zM2 7.5C2 8.327 2.673 9 3.5 9h1.468l3-3H3.5C2.673 6 2 6.673 2 7.5zM22 10H3.5c-.565 0-1.081-.195-1.5-.511v11.596c0 .505.41.915.915.915h18.17c.505 0 .915-.41.915-.915V10zm-3.416-2.011l-5.596-5.596L6.383 9h11.191l1.01-1.011z"/></svg>