<?xml version="1.0" encoding="UTF-8"?>
<svg width="20px" height="18px" viewBox="0 0 20 18" version="1.1" xmlns="http://www.w3.org/2000/svg" xmlns:xlink="http://www.w3.org/1999/xlink">
    <!-- Generator: Sketch 55 (78076) - https://sketchapp.com -->
    <title>Toggle-settings</title>
    <desc>Created with Sketch.</desc>
    <defs>
        <path d="M2.22222656,13.3333398 L3.33333984,13.3333398 L3.33333984,18.8888867 L2.22222656,18.8888867 L2.22222656,13.3333398 Z M9.44445313,10 L10.5555664,10 L10.5555664,18.8888867 L9.44445313,18.8888867 L9.44445313,10 Z M16.6666602,1.11111328 L17.7777734,1.11111328 L17.7777734,11.1111133 L16.6666602,11.1111133 L16.6666602,1.11111328 Z M3.33333984,7.85554687 L3.33335937,7.85554687 L3.34886719,7.85904297 C4.29943359,8.11109375 5.00001953,8.97732422 5.00001953,10.007207 C5.00001953,11.2345117 4.00509766,12.2294336 2.77779297,12.2294336 C1.55048828,12.2294336 0.555566406,11.2345117 0.555566406,10.007207 C0.555566406,8.97732422 1.25613281,8.11107422 2.22222656,7.85554687 L2.22222656,1.11109375 L3.33333984,1.11109375 L3.33333984,7.85554687 Z M10.5555469,3.96666016 L10.5555664,3.96666016 L10.5710742,3.97015625 C11.5216406,4.22220703 12.2222266,5.0884375 12.2222266,6.11832031 C12.2222266,7.345625 11.2273047,8.34054688 10,8.34054688 C8.77269531,8.34054688 7.77777344,7.345625 7.77777344,6.11832031 C7.77777344,5.0884375 8.47833984,4.2221875 9.44443359,3.96666016 L9.44443359,1.11111328 L10.5555469,1.11111328 L10.5555469,3.96666016 Z M19.4444531,14.5555469 L19.4444727,14.5555469 L19.4444336,14.5576758 C19.425332,15.5688477 18.7308789,16.4147461 17.777793,16.6666602 L17.777793,18.8888867 L16.6666797,18.8888867 L16.6666797,16.6666602 L16.6511719,16.6631641 C15.7007617,16.4109961 15.0003711,15.5448437 15.0003711,14.5150977 C15.0003711,13.287793 15.995293,12.2928711 17.2225977,12.2928711 C18.4499023,12.2928711 19.4448242,13.287793 19.4448242,14.5150977 C19.4448242,14.5293164 19.4446875,14.5435156 19.4444531,14.5555469 Z" id="path-toggle-settings"></path>
    </defs>
    <g id="0700" stroke="none" stroke-width="1" fill="none" fill-rule="evenodd">
        <g id="BS-0700" transform="translate(-1794.000000, -833.000000)">
            <g id="Toggle-settings" transform="translate(1794.000000, 832.000000)">
                <mask id="mask-toggle-settings" fill="white">
                    <use xlink:href="#path-toggle-settings"></use>
                </mask>
                <use id="Combined-Shape" fill="#444444" fill-rule="nonzero" xlink:href="#path-toggle-settings"></use>
                <g id="Icon-Colors/Gray" mask="url(#mask-toggle-settings)" fill="#1C1C1C" fill-rule="evenodd">
                    <rect id="Swatch" x="0" y="0" width="20" height="20"></rect>
                </g>
            </g>
        </g>
    </g>
</svg>
