<svg xmlns="http://www.w3.org/2000/svg" width="24" height="24" viewBox="0 0 24 24"><path fill="var(--icon-color, #1c1c1c)" d="M13 13v-.445c.827.27 1.86.445 3 .445 2.832 0 5-1.084 5-2h1c0 1.657-2.686 3-6 3-.78 0-1.526-.075-2.21-.21C13.096 15.064 10.767 16 8 16c-3.314 0-6-1.343-6-3h1c0 .916 2.168 2 5 2s5-1.084 5-2zm0 3v-.445c.827.27 1.86.445 3 .445 2.832 0 5-1.084 5-2h1c0 1.657-2.686 3-6 3-.78 0-1.526-.075-2.21-.21C13.096 18.064 10.767 19 8 19c-3.314 0-6-1.343-6-3h1c0 .916 2.168 2 5 2s5-1.084 5-2zm0 3v-.445c.827.27 1.86.445 3 .445 2.832 0 5-1.084 5-2h1c0 1.657-2.686 3-6 3-.78 0-1.526-.075-2.21-.21C13.096 21.064 10.767 22 8 22c-3.314 0-6-1.343-6-3h1c0 .916 2.168 2 5 2s5-1.084 5-2zm.988-9.19c.61.12 1.29.19 2.012.19 2.832 0 5-1.084 5-2h1c0 1.657-2.686 3-6 3-.78 0-1.526-.075-2.21-.21C13.096 12.064 10.767 13 8 13c-3.314 0-6-1.343-6-3s2.686-3 6-3c3.186 0 5.791 1.241 5.988 2.81zM16 7c2.832 0 5-1.084 5-2s-2.168-2-5-2-5 1.084-5 2 2.168 2 5 2zm0 1c-3.314 0-6-1.343-6-3s2.686-3 6-3 6 1.343 6 3-2.686 3-6 3zm-8 4c2.832 0 5-1.084 5-2s-2.168-2-5-2-5 1.084-5 2 2.168 2 5 2z"/></svg>