<?xml version="1.0" encoding="iso-8859-1"?>
<!-- Generator: Adobe Illustrator 16.0.0, SVG Export Plug-In . SVG Version: 6.00 Build 0)  -->
<!DOCTYPE svg PUBLIC "-//W3C//DTD SVG 1.1//EN" "http://www.w3.org/Graphics/SVG/1.1/DTD/svg11.dtd">
<svg version="1.1" id="Capa_1" xmlns="http://www.w3.org/2000/svg" xmlns:xlink="http://www.w3.org/1999/xlink" x="0px" y="0px"
	 width="546.201px" height="546.201px" viewBox="0 0 546.201 546.201" style="enable-background:new 0 0 546.201 546.201;"
	 xml:space="preserve">
<g>
	<g>
		<path d="M300.4,6.9c-9.1,10.2-20.899,14.2-33.7,7.6c-10.6-5.6-26-3.4-31.8,8.3c-5.9,11.9-13.2,21.1-24,28.6
			c-38.9,22.3-66.3,65-70.2,114.9c-14,9.5-20.5,30.2-14.9,52.3c4.6,18.3,16.5,32.5,30.6,37.4C173,310.4,215.5,366.9,273,366.9
			c57.5,0,100.1-56.5,116.6-111c14.1-4.9,26-19,30.6-37.4c5.5-22.1-1-42.8-14.899-52.3c-3.2-41.9-23.2-78.6-52.5-102.6
			c0,0,0-0.1-0.101-0.1c-10.199-11.9-13.399-24.9-12.699-40.3C341.101,3.4,313.801-8.2,300.4,6.9z M380.601,238.201l-6.4,0.9
			l-1.699,6.2c-4.801,17.5-12.5,35.1-22.601,50.6c-18.899,29.5-46.1,51.5-76.9,51.5c-30.8,0-58-22.1-76.9-51.5
			c-10-15.6-17.8-33-22.6-50.6l-1.7-6.2l-6.4-0.9c-7.6-1-17.2-9.7-20.9-24.4c-3.9-15.5,1.1-31,10.6-33.4c0.6-0.1,1.2-0.2,2.1-0.2
			c0.6,0,1.1,0,1.6,0.1l9.1,0.8l1.3-9.1c3-20,9-36.8,18-52c1.8,0,171.1,0,171.5,0c8.801,14.9,15,32.3,18,52l1.301,9.1l9.1-0.8
			c1.3-0.1,2.7-0.1,3.7,0.1c9.5,2.4,14.399,18,10.5,33.4C397.9,228.5,388.2,237.201,380.601,238.201z"/>
		<path d="M380.601,336.501c-11.6,19.8-25.1,36.5-42.9,45.7c-36.8,18.8-64.199,34.2-64.199,34.2l-0.101-0.101v-0.3l-0.3,0.2
			l-0.3-0.2v0.3l-0.1,0.101c0,0-27.3-15.2-64.2-34.2c-17.8-9.2-31.2-25.9-42.9-45.7c-54.6,22.1-92.5,73-92.5,117.5
			c0,46.8,0,92.2,0,92.2h199.5h0.8h199.7c0,0,0-45.4,0-92.2C473.101,409.501,435.101,358.501,380.601,336.501z"/>
	</g>
</g>
<g>
</g>
<g>
</g>
<g>
</g>
<g>
</g>
<g>
</g>
<g>
</g>
<g>
</g>
<g>
</g>
<g>
</g>
<g>
</g>
<g>
</g>
<g>
</g>
<g>
</g>
<g>
</g>
<g>
</g>
</svg>
