<?xml version="1.0" encoding="UTF-8"?>
<svg width="6px" height="20px" viewBox="0 0 6 20" version="1.1" xmlns="http://www.w3.org/2000/svg" xmlns:xlink="http://www.w3.org/1999/xlink">
    <!-- Generator: Sketch 55 (78076) - https://sketchapp.com -->
    <title>Shape</title>
    <desc>Created with Sketch.</desc>
    <defs>
        <path d="M5.5,10 C5.5,8.64583333 4.4,7.5 3,7.5 C1.6,7.5 0.5,8.64583333 0.5,10 C0.5,11.3541667 1.6,12.5 3,12.5 C4.4,12.5 5.5,11.3541667 5.5,10 Z M5.5,2.5 C5.5,1.14583333 4.4,-8.57252759e-17 3,0 C1.6,8.57252759e-17 0.5,1.14583333 0.5,2.5 C0.5,3.85416667 1.6,5 3,5 C4.4,5 5.5,3.85416667 5.5,2.5 Z M5.5,17.5 C5.5,16.1458333 4.4,15 3,15 C1.6,15 0.5,16.1458333 0.5,17.5 C0.5,18.8541667 1.6,20 3,20 C4.4,20 5.5,18.8541667 5.5,17.5 Z" id="path-1"></path>
    </defs>
    <g id="0705" stroke="none" stroke-width="1" fill="none" fill-rule="evenodd">
        <g id="BS-0705" transform="translate(-291.000000, -1117.000000)">
            <g id="Group-6" transform="translate(80.000000, 1094.000000)">
                <g id="More" transform="translate(211.000000, 23.000000)">
                    <mask id="mask-2" fill="white">
                        <use xlink:href="#path-1"></use>
                    </mask>
                    <use id="Shape" fill="#1C1C1C" xlink:href="#path-1"></use>
                </g>
            </g>
        </g>
    </g>
</svg>
