<svg xmlns="http://www.w3.org/2000/svg" width="24" height="24" viewBox="0 0 24 24">
    <path fill="#1C1C1C" fill-rule="evenodd" d="M6 9.818h11.556V20H6V9.818zm1.444 1.455v7.272h8.667v-7.272H7.444zm8.667-2.91v1.455h-1.444V8.364c0-2.009-.895-2.91-2.89-2.91-1.994 0-2.888.901-2.888 2.91v1.454H7.444V8.364C7.444 5.552 8.986 4 11.778 4s4.333 1.552 4.333 4.364zm-5.055 7.079a1.456 1.456 0 0 1-.723-1.26 1.45 1.45 0 0 1 1.445-1.455 1.45 1.45 0 0 1 1.444 1.455c0 .538-.29 1.008-.722 1.26v1.649h-1.444v-1.65z"/>
</svg>
