<svg xmlns="http://www.w3.org/2000/svg" width="16" height="16" viewBox="0 0 16 16"><path fill="none" d="M0 0h16v16H0z"/><path fill="var(--icon-color, #1c1c1c)" d="M5 10.953v1.002C2.163 11.717 0 10.486 0 9h1c0 .805 1.674 1.738 4 1.953zM1 6H0c0 1.657 2.686 3 6 3V8C3.168 8 1 6.916 1 6zm10.5 1C9.015 7 7 9.015 7 11.5S9.015 16 11.5 16s4.5-2.015 4.5-4.5S13.985 7 11.5 7zm2.5 5h-3V9h1v2h2v1zm-2-9H7l1.353-1H12V0l4 2.5L12 5V3zM6 6c1.556 0 2.969-.299 4.035-.784l-.634-.814C8.518 4.754 7.338 5 6 5 3.168 5 1 3.916 1 3s2.168-2 5-2c.344 0 .677.017.998.047L7 .045C6.674.018 6.341 0 6 0 2.686 0 0 1.343 0 3s2.686 3 6 3z"/></svg>