<svg xmlns="http://www.w3.org/2000/svg" width="24" height="24" viewBox="0 0 24 24"><path d="M1,7.5H2c0,.916,2.168,2,5,2s5-1.084,5-2h1c0,1.657-2.686,3-6,3S1,9.157,1,7.5Zm0,3H2c0,.916,2.168,2,5,2s5-1.084,5-2h1c0,1.657-2.686,3-6,3S1,12.157,1,10.5ZM10,16.1A10.868,10.868,0,0,1,7,16.5c-3.314,0-6-1.343-6-3H2c0,.916,2.168,2,5,2a9.715,9.715,0,0,0,3-.454ZM18,3.5v-2l5,3-5,3v-2H10l2-2ZM7,6.5a10.45,10.45,0,0,0,2-.19V7.326A11.481,11.481,0,0,1,7,7.5c-3.314,0-6-1.343-6-3s2.686-3,6-3a10.868,10.868,0,0,1,3,.405V2.954A9.715,9.715,0,0,0,7,2.5c-2.832,0-5,1.084-5,2S4.168,6.5,7,6.5ZM17.5,12A5.5,5.5,0,1,0,23,17.5,5.5,5.5,0,0,0,17.5,12ZM20,18H18v2H17V18H15V17h2V15h1v2h2Z" transform="translate(0 0)" fill="var(--icon-color, #1c1c1c)"/></svg>