<svg xmlns="http://www.w3.org/2000/svg" width="24" height="24" viewBox="0 0 24 24"><title>Account-information-24px</title><path d="M15,7c3.313,0,6-1.343,6-3s-2.681-3-6-3S9,2.345,9,4,11.683,7,15,7Zm0-5c2.832,0,5,1.083,5,2s-2.167,2-5,2-5-1.083-5-2S12.163,2,15,2ZM7,14.005a10.1,10.1,0,0,0,2-.2v1.019A11.266,11.266,0,0,1,7,15c-3.313,0-6-1.336-6-2.993H2C2,12.923,4.168,14.006,7,14.005ZM7,12c2.785,0,5.119-.949,5.8-2.236A11.072,11.072,0,0,0,15,10c3.313,0,6-1.343,6-3H20c0,.917-2.168,2-5,2a10.064,10.064,0,0,1-2.026-.214C12.752,7.228,10.164,6,7,6,3.682,6,1,7.343,1,9S3.684,12,7,12ZM7,7c2.831,0,5,1.083,5,2s-2.167,2-5,2S2,9.919,2,9,4.164,7,7,7ZM7,17a10.247,10.247,0,0,0,2-.2v1.006A11.284,11.284,0,0,1,7,18c-3.314,0-6-1.335-6-2.993H2C2,15.923,4.169,17,7,17Zm10.5-5A5.5,5.5,0,1,0,23,17.5,5.5,5.5,0,0,0,17.5,12Zm.5,9H17V16h1Zm0-6H17V14h1Z" fill="var(--icon-color, #1c1c1c)"/><rect width="24" height="24" fill="none"/></svg>