<svg xmlns="http://www.w3.org/2000/svg" width="24" height="24" viewBox="0 0 24 24"><path fill="var(--icon-color, #1c1c1c)" d="M20.021 10.636l-9.192 9.192c-1.562 1.562-4.095 1.562-5.657 0-1.562-1.562-1.562-4.095 0-5.657l4.243-4.243 5.835-5.714.45-.45c.994-.994 2.592-1.009 3.568-.032.976.976.962 2.574-.032 3.568l-.451.45-2.3 2.179-3.536 3.536-4.243 4.243c-.391.391-1.024.391-1.414 0-.391-.391-.391-1.024 0-1.414l4.243-4.243 3.536-3.536-.707-.707-3.536 3.536-4.243 4.243c-.781.781-.781 2.047 0 2.828.781.781 2.047.781 2.828 0l7.778-7.778 2.3-2.179.451-.451c1.392-1.392 1.412-3.628.045-4.995s-3.603-1.347-4.995.045l-.451.451-10.077 9.956c-1.953 1.953-1.953 5.118 0 7.071 1.953 1.953 5.118 1.953 7.071 0l9.192-9.192-.706-.707z"/></svg>