<svg xmlns="http://www.w3.org/2000/svg" width="16" height="16" viewBox="0 0 16 16"><path fill="var(--icon-color, #1c1c1c)" d="M15 7c0 2.209-.895 4-2 4v-1c.09 0 .299-.177.52-.619.299-.598.48-1.454.48-2.381s-.181-1.783-.48-2.381C13.299 4.177 13.09 4 13 4V3c1.105 0 2 1.791 2 4zM6 3l6-2v11l-4.765-1.588.436 2.615c.154.923-.47 1.796-1.393 1.95-.091.015-.185.023-.278.023h-.306c-.978 0-1.812-.707-1.973-1.671L3.167 10H3c-1.105 0-2-.895-2-2V5c0-1.105.895-2 2-2h3zm0 6V4H3c-.552 0-1 .448-1 1v3c0 .552.448 1 1 1h3zm1 0l.049.296L11 10.613V2.387L7 3.721V9zm-.838 1.054L6 10H4.18l.527 3.164c.081.483.498.836.987.836H6c.038 0 .076-.003.114-.009.378-.063.634-.421.571-.799l-.523-3.138z"/></svg>