<svg xmlns="http://www.w3.org/2000/svg" width="24" height="24" viewBox="0 0 24 24"><path fill="var(--icon-color, #1c1c1c)" d="M18 7.08c1.141.371 2 1.985 2 3.92s-.859 3.549-2 3.92V19l-7.809-3.471.561 4.486c.121.968-.565 1.85-1.533 1.971-.073.009-.146.014-.219.014h-.438c-.918 0-1.718-.625-1.94-1.515L5.25 15H5c-.74 0-1.387-.402-1.732-1H3c-1.105 0-2-.895-2-2V9c0-1.105.895-2 2-2h.268C3.613 6.402 4.26 6 5 6h4l9-4v5.08zm0 1.12v5.6c.534-.423 1-1.479 1-2.8s-.466-2.377-1-2.8zM4 13c0 .552.448 1 1 1h4V7H5c-.552 0-1 .448-1 1v5zM3 8c-.552 0-1 .448-1 1v3c0 .552.448 1 1 1V8zm7.046 6.371L17 17.461V3.539L10 6.65V14l.046.371zm-.922.684L9 15H6.281l1.311 5.243c.111.445.511.757.97.757H9c.032 0 .063-.002.095-.006.42-.052.717-.435.665-.855l-.636-5.084zM19 6V5c2.209 0 4 2.686 4 6s-1.791 6-4 6v-1c1.488 0 2.933-2.169 2.933-5S20.488 6 19 6z"/></svg>