<svg xmlns="http://www.w3.org/2000/svg" width="24" height="24" viewBox="0 0 24 24"><path fill="var(--icon-color, #1c1c1c)" d="M20.986 18.991l-.314-.209c-1.47-.98-2.672-3.227-2.672-4.993V10c0-2.263-1.253-4.231-3.103-5.253.064-.239.103-.488.103-.747 0-1.657-1.343-3-3-3S9 2.343 9 4c0 .259.038.508.103.747C7.253 5.769 6 7.737 6 10v3.789c0 2.006-1.003 3.88-2.672 4.992l-.314.209c-.009.006-.014.016-.014.027v1.951c0 .018.014.032.032.032h6.152c.413 1.163 1.512 2 2.816 2s2.403-.837 2.816-2h6.152c.018 0 .032-.014.032-.032v-1.951c0-.011-.005-.021-.014-.026zM10 4c0-1.103.897-2 2-2s2 .897 2 2c0 .115-.031.221-.049.331C13.338 4.12 12.684 4 12 4c-.688 0-1.346.121-1.961.334C10.019 4.225 10 4.115 10 4zm2 18c-.737 0-1.375-.405-1.722-1h3.444c-.347.595-.985 1-1.722 1zm8-2H4v-.467c1.881-1.309 3-3.446 3-5.745V10c0-2.757 2.243-5 5-5s5 2.243 5 5v3.789c0 2.054 1.308 4.544 3 5.744V20z"/></svg>