<svg xmlns="http://www.w3.org/2000/svg" width="16" height="16" viewBox="0 0 16 16"><path fill="var(--icon-color, #1c1c1c)" d="M11 7v2L7 6.5 11 4v2h3.647L16 7h-5zm-1.13 5.95l-1.435-2.373c-.213-.36-.652-.501-1.026-.331l-.672.305c-.505.229-1.365-.43-1.823-1.608l-.242-.62c-.461-1.188-.288-2.338.234-2.574l.648-.298c.364-.169.503-.577.419-.98l-.477-2.776c-.05-.249-.203-.464-.42-.586-.37-.208-.84-.133-1.649.351-1.22.73-1.597 1.019-1.85 1.574C.778 4.931.806 7.36 1.68 9.609l.234.602c.877 2.255 2.467 3.982 4.281 4.696.539.194 1.197.071 2.355-.268.635-.187 1.315-.62 1.416-.973.068-.241.033-.503-.096-.716zm-1.603.731c-.565.166-1.139.319-1.501.319-.126 0-.194-.019-.233-.033-1.532-.604-2.92-2.146-3.687-4.117l-.233-.602c-.772-1.986-.815-4.163-.114-5.825.107-.235.263-.4 1.441-1.105.308-.185.497-.262.602-.295l.46 2.556-.509.259c-1.089.493-1.413 2.147-.753 3.847l.243.622c.532 1.368 1.551 2.289 2.537 2.289.222 0 .434-.045.63-.134l.512-.232 1.285 2.125c-.149.105-.398.243-.68.326z"/><path fill="none" d="M0 0h16v16H0V0z"/></svg>