<svg xmlns="http://www.w3.org/2000/svg" width="16" height="16" viewBox="0 0 16 16"><path fill="var(--icon-color, #1c1c1c)" d="M3.5 10c-.827 0-1.5.673-1.5 1.5S2.673 13 3.5 13 5 12.327 5 11.5 4.327 10 3.5 10zm0 2c-.276 0-.5-.225-.5-.5s.224-.5.5-.5.5.225.5.5-.224.5-.5.5zm9-2c-.827 0-1.5.673-1.5 1.5s.673 1.5 1.5 1.5 1.5-.673 1.5-1.5-.673-1.5-1.5-1.5zm0 2c-.276 0-.5-.225-.5-.5s.224-.5.5-.5.5.225.5.5-.224.5-.5.5zM6 11h4v1H6v-1zm8.989-3.488c-.115-.096-.242-.175-.376-.245l-.67-1.696L13.64 5h.229V4H7.418c-.626 0-1.198.317-1.503.811L4.237 7.02l-.911.126C1.399 7.416 0 8.826 0 10.5v1.496h1V10.5c0-1.17 1.036-2.164 2.464-2.363L4.413 8h9.114c.309 0 .608.102.82.279.421.352.653.813.653 1.296V12h1V9.575c0-.773-.368-1.525-1.011-2.063zM6.737 5.378c.147-.236.402-.378.681-.378H10v2h1V5h1.509l.528.987L13.435 7l-7.932.004 1.234-1.626z"/></svg>