<svg xmlns="http://www.w3.org/2000/svg" width="24" height="24" viewBox="0 0 24 24"><path fill="var(--icon-color, #1c1c1c)" d="M4.5 14C3.122 14 2 15.121 2 16.5S3.122 19 4.5 19 7 17.879 7 16.5 5.878 14 4.5 14zm0 4c-.827 0-1.5-.673-1.5-1.5S3.673 15 4.5 15s1.5.673 1.5 1.5S5.327 18 4.5 18zm15-4c-1.378 0-2.5 1.121-2.5 2.5s1.122 2.5 2.5 2.5 2.5-1.121 2.5-2.5-1.122-2.5-2.5-2.5zm0 4c-.827 0-1.5-.673-1.5-1.5s.673-1.5 1.5-1.5 1.5.673 1.5 1.5-.673 1.5-1.5 1.5zM8 16h8v1H8v-1zm14.578-5.129c-.189-.189-.405-.338-.631-.468l-1.069-2.138L20.205 7H21V6h-9.892c-.868 0-1.66.439-2.12 1.176l-1.77 2.831h-.801l-1.562.26C2.042 10.736 0 13.147 0 16h1c0-2.361 1.691-4.358 4.021-4.747L6.5 11h13.975c.527 0 1.023.205 1.396.578.728.729 1.129 1.696 1.129 2.726V16h1v-1.696c0-1.297-.505-2.516-1.422-3.433zm-14.18-.865l1.439-2.301c.275-.441.751-.705 1.271-.705H15v3.003l-6.602.003zM16 10.002V7h3.073l.916 1.724.646 1.292c-.054-.003-.106-.016-.16-.016L16 10.002zM14 12v1h-2v-1h2z"/></svg>