<svg xmlns="http://www.w3.org/2000/svg" width="24" height="24" viewBox="0 0 24 24"><path fill="var(--icon-color, #1c1c1c)" d="M4 6V5c0-1.105.895-2 2-2h16c1.105 0 2 .895 2 2v9c0 1.105-.895 2-2 2v1c0 1.105-.895 2-2 2v1c0 1.105-.895 2-2 2H2c-1.105 0-2-.895-2-2v-9c0-1.105.895-2 2-2V8c0-1.105.895-2 2-2zm1 0h15c1.105 0 2 .895 2 2v7c.552 0 1-.448 1-1V5c0-.552-.448-1-1-1H6c-.552 0-1 .448-1 1v1zM3 9h15c1.105 0 2 .895 2 2v7c.552 0 1-.448 1-1V8c0-.552-.448-1-1-1H4c-.552 0-1 .448-1 1v1zm-1 1c-.552 0-1 .448-1 1v9c0 .552.448 1 1 1h16c.552 0 1-.448 1-1v-9c0-.552-.448-1-1-1H2zm0 9h12v1H2v-1zm0-4h7v2H2v-2z"/></svg>