<svg xmlns="http://www.w3.org/2000/svg" width="16" height="16" viewBox="0 0 16 16"><path fill="var(--icon-color, #1c1c1c)" d="M6 10H4.915c-.276.781-1.133 1.19-1.914.914C2.22 10.638 1.81 9.781 2.087 9s1.133-1.19 1.914-.914c.427.151.763.487.914.914H7v2H6v-1zm-2.5-.91c-.276 0-.5.224-.5.5s.224.5.5.5.5-.224.5-.5-.224-.5-.5-.5zM2 5h4v1H2V5zm6-2v1H1.333C1.149 4 1 4.149 1 4.333v7.334c0 .183.15.333.333.333h13.334c.183 0 .333-.15.333-.333V4.333c0-.184-.149-.333-.332-.333H14V3h.667C15.403 3 16 3.597 16 4.333v7.334c0 .736-.597 1.333-1.333 1.333H1.335C.597 13 0 12.403 0 11.667V4.333C0 3.597.597 3 1.333 3H8zm5 7h1v1h-1v-1zm-2 0h1v1h-1v-1zm-2 0h1v1H9v-1zm.188-2.655l-.396-.918c1.015-.437 1.483-1.613 1.047-2.628-.201-.466-.572-.839-1.037-1.042l.401-.916c1.518.664 2.211 2.432 1.547 3.951-.305.697-.863 1.252-1.562 1.553zm.873 1.802l-.413-.911c2.013-.909 2.909-3.278 2-5.292-.41-.909-1.145-1.631-2.06-2.026L9.986 0c2.535 1.095 3.702 4.038 2.607 6.573-.494 1.143-1.397 2.061-2.532 2.574z"/></svg>