<svg xmlns="http://www.w3.org/2000/svg" width="24" height="24" viewBox="0 0 24 24"><path fill="var(--icon-color, #1c1c1c)"  d="M15 18h1v1h-1v-1zm-4.085-1H13v2h-1v-1h-1.085c-.254.719-1.008 1.133-1.751.962-.743-.171-1.24-.873-1.154-1.631C8.096 16.573 8.737 16 9.5 16c.636 0 1.203.401 1.415 1zm-.915.5c0-.276-.224-.5-.5-.5s-.5.224-.5.5.224.5.5.5.5-.224.5-.5zM13 8H4V5h9v3zm-1-2H5v1h7V6zm0 7H8v1h4v-1zm-9 0V4h11v5h1V3H2v10c0 1.105.895 2 2 2v-1c-.552-.001-.999-.448-1-1zm16 6h1v-1h-1v1zm-4-2h1v-1h-1v1zm7-4.667v7.333c0 .354-.14.693-.391.943s-.589.391-.942.391H7.333c-.354 0-.693-.141-.943-.391S6 20.02 6 19.667v-7.334c0-.354.14-.693.391-.943s.589-.39.942-.39h13.334c.354 0 .693.14.943.391s.39.589.39.942zm-1 0c0-.088-.035-.173-.098-.236-.062-.062-.147-.097-.235-.097H7.333c-.184 0-.333.149-.333.333v7.334c0 .088.035.173.098.236s.147.097.235.097h13.333c.088 0 .173-.035.236-.098s.098-.147.098-.235v-7.334zM19 17h1v-1h-1v1zm-2 2h1v-1h-1v1zm0-2h1v-1h-1v1z"/></svg>