<svg xmlns="http://www.w3.org/2000/svg" width="24" height="24" viewBox="0 0 24 24"><path fill="var(--icon-color, #1c1c1c)" d="M12 18v1H2c-1.105 0-2-.895-2-2V5c0-1.105.895-2 2-2h20c1.105 0 2 .895 2 2v7h-1V5c0-.552-.448-1-1-1H2c-.552 0-1 .448-1 1v12c0 .552.448 1 1 1h10zm-9-7h8v2H3v-2zm0 4h8v1H3v-1zm17.826-2.74l-2.391 2.391 1.914 1.914 2.391-2.391c.517 1.266.262 2.773-.765 3.801-1.126 1.126-2.829 1.324-4.158.595l-3.582 4.004c-.471.527-1.281.572-1.807.1-.018-.016-.035-.032-.052-.049-.5-.5-.5-1.31 0-1.81.017-.017.034-.033.052-.049l4.004-3.582c-.73-1.329-.532-3.032.595-4.159 1.026-1.028 2.533-1.283 3.799-.765z"/></svg>