<svg xmlns="http://www.w3.org/2000/svg" width="16" height="16" viewBox="0 0 16 16"><path fill="var(--icon-color, #1c1c1c)"  fill-rule="evenodd" clip-rule="evenodd" d="M2 10h4v1H2v-1zm-1 1.718c0 .181.002.245.007.275.03.005.094.007.275.007H6v1H1.282c-.446 0-.607-.046-.77-.134-.163-.087-.291-.215-.378-.378S0 12.164 0 11.718V4.282c0-.446.046-.607.134-.77.087-.163.215-.291.378-.378C.675 3.046.836 3 1.282 3h13.436c.446 0 .607.046.77.134.163.087.291.215.378.378.088.163.134.324.134.77V7h-1V4.282c0-.181-.002-.245-.007-.275-.03-.005-.094-.007-.275-.007H1.282c-.181 0-.245.002-.275.007-.005.03-.007.094-.007.275v7.436zM2 8h4v1H2V8zm12 3v4H8v-4h6m-3-5C9.343 6 8 7.343 8 9v1c-.552 0-1 .448-1 1v4c0 .552.448 1 1 1h6c.552 0 1-.448 1-1v-4c0-.552-.448-1-1-1V9c0-1.657-1.343-3-3-3zm-2 4V9c0-1.103.897-2 2-2s2 .897 2 2v1H9z"/></svg>