<svg xmlns="http://www.w3.org/2000/svg" width="24" height="24" viewBox="0 0 24 24"><path fill="var(--icon-color, #1c1c1c)"  d="M16 11.5c0 .276-.224.5-.5.5s-.5-.224-.5-.5v-1c0-.276.224-.5.5-.5s.5.224.5.5v1zM15.5 9c-.828 0-1.5.672-1.5 1.5v1c0 .828.672 1.5 1.5 1.5s1.5-.672 1.5-1.5v-1c0-.828-.672-1.5-1.5-1.5zm5.5 9h2l-3 5-3-5h2v-8l2 2v6zm-6 2H3v-1h12v1zm-7-7V9h1v4H8zm7 5H2v-1h13v1zm2-2H1V4h22v6h-1V5H2v10h15v1zm-5-4.5c0 .276-.224.5-.5.5s-.5-.224-.5-.5v-1c0-.276.224-.5.5-.5s.5.224.5.5v1zM11.5 9c-.828 0-1.5.672-1.5 1.5v1c0 .828.672 1.5 1.5 1.5s1.5-.672 1.5-1.5v-1c0-.828-.672-1.5-1.5-1.5z"/></svg>