<svg xmlns="http://www.w3.org/2000/svg" width="16" height="16" viewBox="0 0 16 16"><path fill="var(--icon-color, #1c1c1c)"  d="M16 1v6h-1V2H1v9h6v1H0V1h16zM8 7.5v1c0 .828-.672 1.5-1.5 1.5S5 9.328 5 8.5v-1C5 6.672 5.672 6 6.5 6S8 6.672 8 7.5zm-1 0c0-.276-.224-.5-.5-.5s-.5.224-.5.5v1c0 .276.224.5.5.5s.5-.224.5-.5v-1zM1 14h5v-1H1v1zm3-4V6H3v4h1zm11.997 1.032c-.238 1.359-.841 2.468-1.502 3.224.494.559.936 1.112 1.502 1.744h-1.229c-.251-.244-.67-.706-1.013-1.064C12.986 15.628 11.979 16 11 16c-1.732 0-2.591-1.205-2.591-2.5 0-1.18.728-1.987 1.746-2.526v-.039c-.463-.564-.74-1.192-.74-1.807 0-1.052.78-2.128 2.262-2.128 1.111 0 1.972.717 1.972 1.832 0 .911-.543 1.628-1.958 2.308v.039c.754.846 1.601 1.795 2.169 2.41.41-.603.969-1.467 1.141-2.557h.996zm-5.524-2.039c0 .618.291 1.095.675 1.559.899-.502 1.481-.966 1.481-1.7 0-.529-.207-.852-.934-.852-.741 0-1.222.323-1.222.993zm2.712 5.293c-.528-.566-1.521-1.622-2.514-2.729-.476.296-1.15.85-1.15 1.764 0 .992.761 1.679 1.832 1.679.767-.001 1.409-.263 1.832-.714z"/></svg>