<svg xmlns="http://www.w3.org/2000/svg" width="24" height="24" viewBox="0 0 24 24"><path fill="var(--icon-color, #1c1c1c)"  d="M11 11.5c0 .276-.224.5-.5.5s-.5-.224-.5-.5v-1c0-.276.224-.5.5-.5s.5.224.5.5v1zM10.5 9C9.672 9 9 9.672 9 10.5v1c0 .828.672 1.5 1.5 1.5s1.5-.672 1.5-1.5v-1c0-.828-.672-1.5-1.5-1.5zM3 19h14v1H3v-1zm12-4H2V5h20v5h1V4H1v12h14v-1zm0-3.5c0 .276-.224.5-.5.5s-.5-.224-.5-.5v-1c0-.276.224-.5.5-.5s.5.224.5.5v1zM14.5 9c-.828 0-1.5.672-1.5 1.5v1c0 .828.672 1.5 1.5 1.5s1.5-.672 1.5-1.5v-1c0-.828-.672-1.5-1.5-1.5zm4.5 6h-2l3-5 3 5h-2v8l-2-2v-6zM2 17h15v1H2v-1zm5-8h1v4H7V9z"/></svg>