<svg enable-background="new 0 0 24 24" height="24" viewBox="0 0 24 24" width="24" xmlns="http://www.w3.org/2000/svg"><path d="m11.5 17-.5-1v-1h2v1l-.5 1 1 4.5-1.5 1.5-1.5-1.5zm3.5-1.599v1.064c2.374.745 4.244 2.355 5.063 4.535l.937-.373c-.966-2.57-3.19-4.445-6-5.226zm-3-2.401c3.314 0 6-2.686 6-6s-2.686-6-6-6-6 2.686-6 6 2.686 6 6 6zm0-11c2.757 0 5 2.243 5 5s-2.243 5-5 5-5-2.243-5-5 2.243-5 5-5zm-3 13.401c-2.81.781-5.034 2.656-6 5.225l.937.374c.819-2.179 2.689-3.79 5.063-4.535z" fill="var(--icon-color, #1c1c1c)"/></svg>