<svg xmlns="http://www.w3.org/2000/svg" width="16.002" height="16" viewBox="0 0 16.002 16"><path d="M11.5,7A4.5,4.5,0,1,0,16,11.5,4.5,4.5,0,0,0,11.5,7ZM8,11.5A3.5,3.5,0,0,1,11.5,8a3.463,3.463,0,0,1,2.086.707l-4.88,4.88A3.474,3.474,0,0,1,8,11.5Zm5.619,2.794a3.482,3.482,0,0,1-4.2,0l4.88-4.88A3.484,3.484,0,0,1,13.619,14.294ZM6,8.5,4.5,11,3,8.5A4.315,4.315,0,0,0,0,11c-.063.142,1.285,1,4.5,1a15.145,15.145,0,0,0,1.521-.079C6.011,11.782,6,11.642,6,11.5a5.469,5.469,0,0,1,.747-2.759A3.83,3.83,0,0,0,6,8.5ZM4.5,0A3.5,3.5,0,1,0,8,3.5,3.5,3.5,0,0,0,4.5,0Zm0,6.125A2.625,2.625,0,1,1,7.125,3.5,2.625,2.625,0,0,1,4.5,6.125Z" transform="translate(0.002)" fill="var(--icon-color, #1c1c1c)"/></svg>