<svg xmlns="http://www.w3.org/2000/svg" width="24" height="24" viewBox="0 0 24 24"><path fill="var(--icon-color, #1c1c1c)"  d="M14 4h-1V1h1v3zm-3.317.621l-1.5-2.598-.866.5 1.5 2.598.866-.5zM8.121 6.817l-2.598-1.5-.5.866 2.598 1.5.5-.866zM23 10h-3v1h3v-1zm-1.023-3.817l-.5-.866-2.598 1.5.5.866 2.598-1.5zm-3.294-3.66l-.866-.5-1.5 2.598.866.5 1.5-2.598zM23 18.5c0-2.476-2.024-4.491-4.5-4.491h-5.536c-.245-2.246-2.154-4-4.464-4-2.401 0-4.368 1.894-4.485 4.267C2.227 14.901 1 16.585 1 18.5 1 20.976 3.024 23 5.5 23h13c2.476 0 4.5-2.024 4.5-4.5zm-10.991-4v.491H18.5c1.935 0 3.509 1.574 3.509 3.509s-1.574 3.509-3.509 3.509h-13c-1.935 0-3.509-1.574-3.509-3.509 0-1.598 1.087-2.991 2.644-3.388l.382-.097-.013-.394c-.001-.04-.006-.079-.013-.122 0-1.935 1.574-3.509 3.509-3.509s3.509 1.575 3.509 3.51zM13.5 6.009c-1.674 0-3.121.932-3.893 2.294l.874.437c.609-1.041 1.727-1.75 3.019-1.75 1.935 0 3.509 1.574 3.509 3.509 0 .539-.132 1.043-.35 1.5h1.054c.168-.471.277-.971.277-1.5.001-2.475-2.014-4.49-4.49-4.49z"/></svg>