<svg xmlns="http://www.w3.org/2000/svg" width="16" height="16" viewBox="0 0 16 16"><path fill="var(--icon-color, #1c1c1c)" d="M4 7c1.657 0 3-1.343 3-3S5.657 1 4 1 1 2.343 1 4s1.343 3 3 3zm0 1C1.791 8 0 6.209 0 4s1.791-4 4-4 4 1.791 4 4-1.791 4-4 4zm8 7c1.657 0 3-1.343 3-3s-1.343-3-3-3-3 1.343-3 3 1.343 3 3 3zm0 1c-2.209 0-4-1.791-4-4s1.791-4 4-4 4 1.791 4 4-1.791 4-4 4zm0-13.5c1.776 0 3.243 1.323 3.857 3.037.109.302.143.626.143.947V7h-1v-.292c0-.522-.106-1.049-.371-1.498C14.042 4.216 13.105 3.5 12 3.5V6L9 3l3-3v2.5zm-8 11c-1.291 0-2.419-.699-3.174-1.739C.249 10.967 0 9.981 0 9h1v.018c0 .896.273 1.795.874 2.458C2.437 12.097 3.172 12.5 4 12.5V10l3 3-3 3v-2.5z"/></svg>