<svg enable-background="new 0 0 24 24" height="24" viewBox="0 0 24 24" width="24" xmlns="http://www.w3.org/2000/svg"><path d="m14 2.967 7-1.967-2 6.965-1.311-1.265-.506-.504-4.673 4.672-4.013-3.903-5.497 4.998v-2.76l5.491-5.033 3.999 3.89 3.278-3.276-.224-.222z" fill="var(--icon-color, #1c1c1c)"/><path d="m5 15.998v2.999h2v-2.999zm-1-1h4v4.998h-4zm13-2.998v6.997h2v-6.997zm-1-1h4v8.996h-4zm-5 2.999v4.998h2v-4.998zm-1-1h4v6.997h-4zm-8 8.996h20v1h-20zm12-19.028 7-1.967-2 6.965-1.311-1.265-.506-.504-4.674 4.672-4.012-3.903-5.497 4.998v-2.76l5.491-5.033 4 3.89 3.277-3.275-.223-.223z" fill="var(--icon-color, #1c1c1c)"/></svg>