<svg xmlns="http://www.w3.org/2000/svg" width="24" height="24" viewBox="0 0 24 24"><path fill="var(--icon-color, #1c1c1c)"  d="M7 11h7v1H7v-1zm0 3h6v1H7v-1zm0-6h10v1H7V8zM5 21h7v1H4V4h12V2H2v16h1v1H1V1h16v3h3v6h-1V5H5v16zm16.558 2c-.283-.273-.661-.704-1.048-1.106-.864.775-1.83 1.106-2.931 1.106-1.949 0-3.08-1.264-3.08-2.716 0-1.322.818-2.227 1.964-2.83v-.044c-.521-.632-.833-1.336-.833-2.026 0-1.178.878-2.385 2.544-2.385 1.25 0 2.217.805 2.217 2.055 0 1.02-.61 1.825-2.202 2.586v.043c.849.948 1.801 2.011 2.44 2.701.461-.676.773-1.609.967-2.831h1.19c-.268 1.524-.699 2.73-1.443 3.578.536.547 1.062 1.252 1.657 1.869h-1.442zm-1.688-1.825c-.595-.632-1.711-1.81-2.827-3.046-.535.331-1.294.949-1.294 1.969 0 1.106.855 1.902 2.061 1.902.863 0 1.584-.322 2.06-.825zm-3.05-5.904c0 .69.327 1.221.759 1.738 1.012-.56 1.666-1.078 1.666-1.896 0-.589-.394-1.112-1.212-1.112-.833-.001-1.213.523-1.213 1.27z"/></svg>