<svg viewBox="0 0 16 16" xmlns="http://www.w3.org/2000/svg"><path d="m4 13a1 1 0 1 1 1 1 1 1 0 0 1 -1-1zm4-13h-6a2.13 2.13 0 0 0 -2 2v12a2.13 2.13 0 0 0 2 2h4v-1h-4a1.15 1.15 0 0 1 -1-1v-3h6v-1h-6v-8a1.15 1.15 0 0 1 1-1h6a1.15 1.15 0 0 1 1 1v3h1v-3a2.13 2.13 0 0 0 -2-2zm8 11h-1a6.39 6.39 0 0 1 -1.14 2.57c-.57-.62-1.42-1.57-2.17-2.42 1.42-.68 2-1.41 2-2.32a1.83 1.83 0 0 0 -2-1.84 2.13 2.13 0 0 0 -2.27 2.11 2.89 2.89 0 0 0 .74 1.81 2.85 2.85 0 0 0 -1.75 2.54 2.42 2.42 0 0 0 2.59 2.55 4.1 4.1 0 0 0 2.75-1.07c.35.36.77.82 1 1.07h1.25c-.57-.64-1-1.19-1.5-1.75a6.79 6.79 0 0 0 1.5-3.25zm-4.31-3c.73 0 .94.32.94.85 0 .74-.58 1.2-1.48 1.7a2.37 2.37 0 0 1 -.68-1.55c0-.68.53-1 1.22-1zm-.34 7a1.69 1.69 0 0 1 -1.83-1.68 2.13 2.13 0 0 1 1.15-1.76c1 1.1 2 2.16 2.51 2.73a2.45 2.45 0 0 1 -1.83.71z" fill="var(--icon-color, #1c1c1c)"/></svg>