<svg xmlns="http://www.w3.org/2000/svg" width="24" height="24" viewBox="0 0 24 24"><path fill="var(--icon-color, #1c1c1c)"  d="M8 21c-.552 0-1-.448-1-1s.448-1 1-1 1 .448 1 1-.448 1-1 1zm3 2H4.5C3.119 23 2 21.881 2 20.5v-17C2 2.119 3.119 1 4.5 1h7C12.881 1 14 2.119 14 3.5V10h-1V3.5c0-.828-.672-1.5-1.5-1.5h-7C3.672 2 3 2.672 3 3.5V17h7v1H3v2.5c0 .828.672 1.5 1.5 1.5H11v1zm6.5-11c-3.038 0-5.5 2.462-5.5 5.5s2.462 5.5 5.5 5.5 5.5-2.462 5.5-5.5-2.462-5.5-5.5-5.5zm2.5 6h-2v2h-1v-2h-2v-1h2v-2h1v2h2v1z"/></svg>