<svg xmlns="http://www.w3.org/2000/svg" width="16" height="16" viewBox="0 0 16 16"><path fill="var(--icon-color, #1c1c1c)"  d="M1.538 11H10v1H8v2h2v1H5v-1h2v-2H1.538C.69 12 0 11.31 0 10.462V3.538C0 2.69.69 2 1.538 2h11.925C14.31 2 15 2.69 15 3.538V7h-1V3.538c0-.297-.241-.538-.538-.538H1.538C1.241 3 1 3.241 1 3.538v6.924c0 .297.241.538.538.538zM16 9v6c0 .552-.448 1-1 1h-3c-.552 0-1-.448-1-1V9c0-.552.448-1 1-1h3c.552 0 1 .448 1 1zm-4 0v4h3V9h-3zm3 6v-1h-3v1h3zM9.847 7H5.926c0 .303.04.791.121 1.056.081.265.2.496.359.694.159.197.357.354.592.469.236.115.507.173.815.173.132 0 .273-.012.425-.036s.301-.056.449-.096c.148-.04.286-.086.414-.137.129-.052.235-.105.319-.16v.719c-.125.051-.256.096-.395.134-.139.039-.281.072-.425.099-.145.027-.288.048-.431.063-.142.015-.28.022-.411.022-.475 0-.878-.076-1.209-.228-.331-.152-.6-.361-.806-.628-.207-.267-.357-.584-.45-.951-.093-.367-.14-.968-.14-1.396 0-.439.058-.639.173-1.006.115-.367.279-.684.491-.949.212-.265.466-.472.762-.62S7.204 4 7.566 4c.406 0 .752.076 1.039.228.287.152.523.357.708.617.185.26.32.561.406.905s.129.505.129.889V7zm-.773-.609c0-.249-.027-.289-.08-.526-.052-.238-.137-.45-.254-.636-.117-.186-.269-.336-.455-.45-.186-.113-.411-.17-.674-.17-.26 0-.494.06-.702.178-.21.119-.387.272-.533.461-.147.188-.258.401-.335.639-.077.237-.115.27-.115.504h3.148z"/></svg>