<svg xmlns="http://www.w3.org/2000/svg" width="16" height="16" viewBox="0 0 16 16"><path fill="var(--icon-color, #1c1c1c)"  d="M10 0H0v12h1V1h9V0zM7 13H3V3h8v2h1V2H2v12h5v-1zM4 8h4V7H4v1zm0 2h3V9H4v1zm0-4h5V5H4v1zm6.157 6c0 .456.056.686.176 1.084.119.398.298.744.535 1.04.238.296.532.531.883.704.352.173.756.259 1.214.259.196 0 .408-.018.634-.053.226-.036.45-.084.671-.144.221-.061.427-.129.618-.206.19-.076.349-.156.474-.238v1.077c-.186.077-.382.144-.589.202-.207.057-.418.106-.634.148-.216.041-.429.073-.642.094-.212.022-.416.033-.612.033-.709 0-1.31-.113-1.804-.341-.494-.228-.894-.542-1.202-.943-.308-.4-.532-.876-.671-1.427S9 12.142 9 11.5c0-.658.086-1.263.258-1.814.171-.551.415-1.026.731-1.423.317-.398.696-.708 1.137-.929.442-.223.932-.334 1.472-.334.605 0 1.122.114 1.55.341s.779.536 1.054.925c.275.39.477.842.605 1.358.129.515.193 1.061.193 1.637V12h-5.843zm4.571-2.203c-.079-.356-.206-.675-.38-.954s-.401-.504-.678-.675c-.279-.169-.614-.255-1.006-.255-.387 0-.736.089-1.047.267-.311.178-.575.408-.793.691-.218.283-.385.602-.499.958-.114.357-.172.819-.172 1.17h4.695c-.001-.373-.041-.845-.12-1.202z"/></svg>