<svg height="16" viewBox="0 0 16 16" width="16" xmlns="http://www.w3.org/2000/svg"><path d="m13.824 3.17a4.093 4.093 0 0 0 -2.912-1.17 3.722 3.722 0 0 0 -2.745 1.17c-.059.06-.118.13-.167.19-.049-.06-.107-.13-.166-.19a3.723 3.723 0 0 0 -2.745-1.17 4.093 4.093 0 0 0 -2.912 1.17 4.2 4.2 0 0 0 0 5.83l5.823 6 5.824-6a4.2 4.2 0 0 0 0-5.83zm-.687 5.12-5.137 5.3-5.137-5.3a3.112 3.112 0 0 1 -.882-2.07 3.174 3.174 0 0 1 .882-2.34 3.126 3.126 0 0 1 2.226-.88 2.749 2.749 0 0 1 2.058.88 3.02 3.02 0 0 1 .285.34c.108.15.568.76.568.78l.569-.78a3.01 3.01 0 0 1 .284-.34 2.751 2.751 0 0 1 2.059-.88 3.122 3.122 0 0 1 2.225.88 3.176 3.176 0 0 1 0 4.41z" fill="var(--icon-color, #1c1c1c)"/><path d="m0 0h16v16h-16z" fill="none"/></svg>