<svg xmlns="http://www.w3.org/2000/svg" width="16" height="16" viewBox="0 0 16 16"><path fill="var(--icon-color, #1c1c1c)" d="M2 11h1v3H2v-3zm6.5-9c1.154 0 2.224.359 3.11.968l.718-.704C11.251 1.474 9.93 1 8.5 1c-1.428 0-2.749.473-3.824 1.261l.71.71C6.272 2.36 7.344 2 8.5 2zM2 7.5V9h1V7.5c0-1.156.36-2.228.971-3.114l-.71-.71C2.473 4.751 2 6.072 2 7.5zM8.5 3C6.025 3 4 5.025 4 7.5V15h1V7.5C5 5.57 6.57 4 8.5 4S12 5.57 12 7.5v4c0 1.378-1.122 2.5-2.5 2.5S7 12.878 7 11.5v-4C7 6.673 7.673 6 8.5 6s1.5.673 1.5 1.5v4c0 .275-.224.5-.5.5s-.5-.225-.5-.5V8H8v3.5c0 .827.673 1.5 1.5 1.5s1.5-.673 1.5-1.5v-4C11 6.125 9.875 5 8.5 5S6 6.125 6 7.5v4C6 13.425 7.575 15 9.5 15c1.754 0 3.203-1.312 3.449-3 .019-.166.051-.329.051-.5V7h-.051c-.253-2.239-2.145-4-4.449-4zm5.24.677l-.716.703c.614.887.976 1.962.976 3.12V10h1V7.5c0-1.428-.472-2.747-1.26-3.823zM14 14h1v-2h-1v2z"/></svg>