<svg xmlns="http://www.w3.org/2000/svg" width="24" height="24" viewBox="0 0 24 24"><path fill="var(--icon-color, #1c1c1c)" d="M10 11H9v-.5C9 8.575 10.575 7 12.5 7S16 8.575 16 10.5V12h-1v-1.5C15 9.122 13.878 8 12.5 8S10 9.122 10 10.5v.5zM6 22h1v-8H6v8zm6.5-18C8.925 4 6 6.925 6 10.5V12h1v-1.5C7 7.467 9.467 5 12.5 5S18 7.467 18 10.5v.5h1v-.5C19 6.925 16.075 4 12.5 4zM21 19h1v-5h-1v5zM12.5 2c1.984 0 3.806.688 5.254 1.832l.708-.708C16.829 1.799 14.754 1 12.5 1c-2.508 0-4.79.992-6.492 2.593l.702.702C8.229 2.876 10.262 2 12.5 2zm7.377 2.537l-.708.708C20.312 6.694 21 8.516 21 10.5V12h1v-1.5c0-2.254-.799-4.329-2.123-5.963zM3 10.5V16h1v-5.5c0-1.727.521-3.334 1.409-4.676l-.714-.715C3.629 6.644 3 8.501 3 10.5zM3 20h1v-2H3v2zm10-10h-1v2h1v-2zm2 4v4c0 .551-.449 1-1 1s-1-.449-1-1v-4h-1v4c0 1.1.9 2 2 2s2-.9 2-2v-6h-1v2zm3-1v5c0 .87-.286 1.669-.759 2.326l.704.704C18.596 20.186 19 19.143 19 18v-7h-1v2zm-4 9c-2.206 0-4-1.794-4-4v-7H9v7c0 2.75 2.25 5 5 5 .884 0 1.704-.252 2.427-.659l-.732-.732c-.516.244-1.087.391-1.695.391z"/></svg>