<svg xmlns="http://www.w3.org/2000/svg" width="24" height="24" viewBox="0 0 24 24"><path fill="var(--icon-color, #1c1c1c)" d="M12 17c-4.07 0-6-4.912-6-14.5V2h12v.5c0 9.588-1.93 14.5-6 14.5zm0-1c3.202 0 4.935-4.26 4.998-13H7.002C7.065 11.74 8.798 16 12 16zm-1 5v-3h2v3h4v1H7v-1h4zM5.164 2.234l-.388.922c-1.018-.43-2.191.047-2.62 1.065-.287.679-.177 1.461.287 2.035l2.928 3.946-.803.596L1.65 6.865C.62 5.567.837 3.68 2.135 2.65c.858-.681 2.019-.84 3.029-.416zm13.673 0c1.527-.643 3.286.074 3.929 1.601.425 1.01.266 2.171-.415 3.029L19.433 10.8l-.803-.596 2.928-3.946c.694-.859.561-2.118-.298-2.813-.574-.464-1.356-.574-2.035-.287l-.388-.922v-.002z"/></svg>