<svg xmlns="http://www.w3.org/2000/svg" width="16" height="16" viewBox="0 0 16 16"><path fill="var(--icon-color, #1c1c1c)" d="M10.987 2.981c-1.991 0-3.999-.978-5.99-.978-.669 0-1.332.132-1.997.428V1H2v14h1v-3.569c.665-.295 1.327-.428 1.997-.428 1.991 0 4.014.994 6.006.994 1.004 0 1.993-.261 2.997-.997V2c-1.004.737-2.008.981-3.013.981zM13 10.461c-.612.353-1.247.536-1.997.536-.877 0-1.804-.236-2.768-.469-1.036-.25-2.123-.525-3.238-.525-.715 0-1.367.124-1.997.344V3.539c.612-.353 1.247-.536 1.997-.536.877 0 1.803.236 2.768.469 1.036.25 2.107.509 3.222.509.715 0 1.383-.108 2.013-.328v6.808z"/></svg>