<svg xmlns="http://www.w3.org/2000/svg" width="24" height="24" viewBox="0 0 24 24"><path fill="var(--icon-color, #1c1c1c)" d="M14 13.967L21 12l-2 6.965-1.311-1.265-.506-.504-4.674 4.672-4.013-3.903L3 22.963v-2.759l5.491-5.033 4 3.89 3.277-3.275-.223-.223L14 13.967zM19.395 1c-2.251 0-4.364.88-5.95 2.479C11.851 5.084 10.982 7.217 11 9.485c.002.239 0 .37-.002.52l-.004.503H11v4.456h1v-4.751h-.004l.002-.194c.002-.155.004-.292.002-.541-.015-1.999.75-3.879 2.154-5.294C15.551 2.775 17.412 2 19.395 2H20v.509c0 3.95-3.086 7.241-7.025 7.49l.062.998C17.502 10.714 21 6.985 21 2.509V1h-1.605zm-9.524 9.979L10 11V9.99c-2.713-.419-5.001-3.06-5.023-5.766l-.001-.203.236-.002h.046c1.929 0 3.704 1.014 4.756 2.719l.049-.03c.119-.352.264-.693.428-1.026C9.23 4.005 7.324 3.019 5.259 3.019h-.055l-1.236.008.009 1.205c.027 3.223 2.67 6.248 5.894 6.747z"/></svg>