<svg xmlns="http://www.w3.org/2000/svg" width="16" height="16" viewBox="0 0 16 16"><path fill="var(--icon-color, #1c1c1c)" d="M8 0C3.582 0 0 3.582 0 8s3.582 8 8 8 8-3.582 8-8-3.582-8-8-8zm1.685 14.796L8 13l-1.685 1.796c-2.512-.621-4.489-2.598-5.11-5.111L3 8 1.204 6.314c.621-2.512 2.598-4.489 5.11-5.11L8 3l1.685-1.796c2.512.621 4.489 2.598 5.11 5.11L13 8l1.796 1.685c-.621 2.513-2.599 4.49-5.111 5.111zM6.23 6.233l.001.001L4 12.001l5.768-2.233-.002-.002L12 4 6.23 6.233zM9 8.997L7 6.998l3.249-1.248L9 8.997z"/></svg>