<svg xmlns="http://www.w3.org/2000/svg" width="24" height="24" viewBox="0 0 24 24"><path fill="var(--icon-color, #1c1c1c)"  d="M18 4c-1.103 0-2 .897-2 2s.897 2 2 2 2-.897 2-2-.897-2-2-2zm0 3c-.551 0-1-.449-1-1s.449-1 1-1 1 .449 1 1-.449 1-1 1zm-1-6c-3.309 0-6 2.691-6 6 0 .672.111 1.331.331 1.962L1 19.293V23h3.707L6 21.707V20h2v-2h2v-2h1.707l3.331-3.331c.631.22 1.29.331 1.962.331 3.309 0 6-2.691 6-6s-2.691-6-6-6zm0 11c-.653 0-1.292-.126-1.897-.375l-.308-.126L11.293 15H9v2H7v2H5v2.293L4.293 22H2v-2.293L12.501 9.206l-.126-.308C12.126 8.292 12 7.653 12 7c0-2.757 2.243-5 5-5s5 2.243 5 5-2.243 5-5 5z"/></svg>