<svg xmlns="http://www.w3.org/2000/svg" width="24" height="24" viewBox="0 0 24 24"><title>KeyClub-24px</title><path d="M11,2a9,9,0,1,1-9,9,9,9,0,0,1,9-9m0-1A10,10,0,1,0,21,11,10,10,0,0,0,11,1ZM9,6A1,1,0,1,1,8,7,1,1,0,0,1,9,6M9,5a2,2,0,1,0,2,2A2,2,0,0,0,9,5Zm12.973,7c.008.167.027.331.027.5A9.511,9.511,0,0,1,12.5,22c-.169,0-.333-.018-.5-.028v1c.167.008.331.029.5.029A10.5,10.5,0,0,0,23,12.5h0c0-.168-.01-.334-.018-.5Z" fill="var(--icon-color, #1c1c1c)"/><rect width="24" height="24" fill="none"/></svg>