<svg height="16" viewBox="0 0 16 16" width="16" xmlns="http://www.w3.org/2000/svg"><path d="m3.908 3a1.5 1.5 0 0 1 -.908.908 1.483 1.483 0 0 1 -.5.092 1.483 1.483 0 0 1 -.5-.092 1.5 1.5 0 1 1 1.908-1.908 1.483 1.483 0 0 1 .092.5 1.483 1.483 0 0 1 -.092.5zm2.041-1a3.443 3.443 0 0 1 .051.5 3.443 3.443 0 0 1 -.051.5h4.1a3.443 3.443 0 0 1 -.049-.5 3.443 3.443 0 0 1 .051-.5zm-3.449 8a3.443 3.443 0 0 1 .5.051v-4.1a3.443 3.443 0 0 1 -.5.049 3.443 3.443 0 0 1 -.5-.051v4.1a3.443 3.443 0 0 1 .5-.049zm12.5-7.5a1.5 1.5 0 0 0 -2.908-.5 1.483 1.483 0 0 0 -.092.5 1.483 1.483 0 0 0 .092.5 1.5 1.5 0 0 0 .908.908 1.4 1.4 0 0 0 1 0 1.5 1.5 0 0 0 1-1.408zm-1 9.592a1.4 1.4 0 0 0 -1 0 1.5 1.5 0 0 0 -.908.908 1.4 1.4 0 0 0 0 1 1.5 1.5 0 1 0 1.908-1.908zm-10.092 1.908a1.4 1.4 0 0 0 0-1 1.5 1.5 0 0 0 -.908-.908 1.483 1.483 0 0 0 -.5-.092 1.483 1.483 0 0 0 -.5.092 1.5 1.5 0 1 0 1.908 1.908zm9.592-8a3.443 3.443 0 0 1 -.5-.051v4.1a3.443 3.443 0 0 1 .5-.049 3.443 3.443 0 0 1 .5.051v-4.1a3.443 3.443 0 0 1 -.5.049zm-3.449 8a3.443 3.443 0 0 1 -.051-.5 3.443 3.443 0 0 1 .051-.5h-4.1a3.443 3.443 0 0 1 .049.5 3.443 3.443 0 0 1 -.051.5z" fill="var(--icon-color, #1c1c1c)"/></svg>