<svg xmlns="http://www.w3.org/2000/svg" width="24" height="24" viewBox="0 0 24 24"><path fill="var(--icon-color, #1c1c1c)" d="M17.5 12c-3.038 0-5.5 2.462-5.5 5.5s2.462 5.5 5.5 5.5 5.5-2.462 5.5-5.5-2.462-5.5-5.5-5.5zM13 17.5c0-2.481 2.019-4.5 4.5-4.5 1.06 0 2.023.384 2.793 1L14 20.293c-.616-.77-1-1.733-1-2.793zm4.5 4.5c-1.06 0-2.023-.384-2.793-1L21 14.707c.616.77 1 1.733 1 2.793 0 2.481-2.019 4.5-4.5 4.5zM8 3h12v1H8V3zm0 3h12v1H8V6zM6 3H2v4h4V3zM5 6H3V4h2v2zm1 3H2v4h4V9zm-1 3H3v-2h2v2zm1 3H2v4h4v-4zm-1 3H3v-2h2v2zm3-9h12v1H8V9zm0 3h3v1H8v-1zm0 3h2v1H8v-1zm0 3h2v1H8v-1z"/></svg>