<svg xmlns="http://www.w3.org/2000/svg" width="16" height="16" viewBox="0 0 16 16"><path fill="var(--icon-color, #1c1c1c)" d="M8 2c2.206 0 4 1.794 4 4 0 .579-.136 1.157-.405 1.718l-.019.04L8 13.183 4.426 7.761l-.021-.043C4.136 7.157 4 6.579 4 6c0-2.206 1.794-4 4-4m0-1C5.239 1 3 3.239 3 6c0 .773.19 1.496.503 2.15L8 15l4.497-6.85C12.81 7.496 13 6.773 13 6c0-2.761-2.239-5-5-5zm0 3.974c.566 0 1.026.46 1.026 1.026S8.566 7.026 8 7.026 6.974 6.566 6.974 6 7.434 4.974 8 4.974M8 4c-1.105 0-2 .895-2 2s.895 2 2 2 2-.895 2-2-.895-2-2-2z"/></svg>