<svg height="24" viewBox="0 0 24 24" width="24" xmlns="http://www.w3.org/2000/svg"><path d="m22 12a6 6 0 0 1 -5 5.91v-1.01a4.994 4.994 0 0 0 2.29-8.657l.7-.7a5.954 5.954 0 0 1 2.01 4.457zm-8 7.069-3.248-2.289-.717.718 4.965 3.502v-8.467l-1 1zm6.354-14.715-16 16-.708-.708 3.647-3.646h-3.293a2 2 0 0 1 -2-2v-4a2 2 0 0 1 2-2h3.909l7.091-5v5.3l4.646-4.647zm-6.354.572-5.514 3.891-.26.183h-4.226a1 1 0 0 0 -1 1v4a1 1 0 0 0 1 1h4.226l.039.028 5.735-5.735zm3 8.8v1.094a2.974 2.974 0 0 0 .864-5.148l-.72.721a1.972 1.972 0 0 1 .856 1.607 1.993 1.993 0 0 1 -1 1.722z" fill="var(--icon-color, #1c1c1c)"/></svg>