<?xml version="1.0" encoding="utf-8"?>
<!-- Generator: Adobe Illustrator 22.1.0, SVG Export Plug-In . SVG Version: 6.00 Build 0)  -->
<svg version="1.1" id="Layer_1" xmlns="http://www.w3.org/2000/svg" xmlns:xlink="http://www.w3.org/1999/xlink" x="0px" y="0px"
	 width="12px" height="12px" viewBox="0 0 12 12" enable-background="new 0 0 12 12" xml:space="preserve">
<rect fill="none" width="12" height="12"/>
<path fill="var(--icon-color, #1c1c1c)" d="M7,10c0-0.55-0.45-1-1-1s-1,0.45-1,1s0.45,1,1,1S7,10.55,7,10z"/>
<path fill="var(--icon-color, #1c1c1c)" d="M7,2c0-0.55-0.45-1-1-1S5,1.45,5,2s0.45,1,1,1S7,2.55,7,2z"/>
<path fill="var(--icon-color, #1c1c1c)" d="M7,6c0-0.55-0.45-1-1-1S5,5.45,5,6s0.45,1,1,1S7,6.55,7,6z"/>
</svg>
