<?xml version="1.0" encoding="utf-8"?>
<!-- Generator: Adobe Illustrator 21.0.2, SVG Export Plug-In . SVG Version: 6.00 Build 0)  -->
<svg version="1.1" id="Layer_1" xmlns="http://www.w3.org/2000/svg" xmlns:xlink="http://www.w3.org/1999/xlink" x="0px" y="0px"
	 width="16px" height="16px" viewBox="0 0 16 16" enable-background="new 0 0 16 16" xml:space="preserve">
<rect fill="none" width="16" height="16"/>
<path fill-rule="evenodd" clip-rule="evenodd" fill="var(--icon-color, #1c1c1c)" d="M10,14c0-1.1-0.9-2-2-2s-2,0.9-2,2s0.9,2,2,2S10,15.1,10,14z"/>
<path fill-rule="evenodd" clip-rule="evenodd" fill="var(--icon-color, #1c1c1c)" d="M10,2c0-1.1-0.9-2-2-2S6,0.9,6,2s0.9,2,2,2S10,3.1,10,2z"/>
<path fill-rule="evenodd" clip-rule="evenodd" fill="var(--icon-color, #1c1c1c)" d="M10,8c0-1.1-0.9-2-2-2S6,6.9,6,8s0.9,2,2,2S10,9.1,10,8z"/>
</svg>
