<svg xmlns="http://www.w3.org/2000/svg" width="17.986" height="22" viewBox="0 0 17.986 22"><circle cx="6" cy="19" r="1"/><path fill="var(--icon-color, #1c1c1c)" d="M10 21H2a1 1 0 0 1-1-1v-3h10v3a1 1 0 0 1-1 1zm1-6.86V16H1V2a1 1 0 0 1 1-1h8a1 1 0 0 1 1 1v2.54l1-.7V2a2 2 0 0 0-2-2H2a2 2 0 0 0-2 2v18a2 2 0 0 0 2 2h8a2 2 0 0 0 2-2v-5.16z"/><path fill="var(--icon-color, #1c1c1c)" d="M10 7.24l-1 .7a2.4 2.4 0 0 1 0 2.8l1 .7a3.63 3.63 0 0 0 0-4.2zm2-1.4l-1 .7a4.848 4.848 0 0 1 0 5.6l1 .7a6.07 6.07 0 0 0 0-7z"/><path fill="var(--icon-color, #1c1c1c)" d="M14 4.44l-1 .7a7.3 7.3 0 0 1 0 8.4l1 .7a8.479 8.479 0 0 0 0-9.8z"/><path fill="var(--icon-color, #1c1c1c)" d="M16 3l-1 .7a9.7 9.7 0 0 1 0 11.2l1 .71A11 11 0 0 0 16 3z"/></svg>