<svg xmlns="http://www.w3.org/2000/svg" width="24" height="24" viewBox="0 0 24 24"><path fill="var(--icon-color, #1c1c1c)" d="M6 5v2H5V5h1zm2 0H7v2h1V5zm4 0h-1v2h1V5zm-2 0H9v2h1V5zm-5 6h1V9H5v2zm2 0h1V9H7v2zm4 0h1V9h-1v2zm6 2h-1v2h1v-2zm-1 6h1v-2h-1v2zm3-6h-1v2h1v-2zm-1 6h1v-2h-1v2zM5 15h1v-2H5v2zm2 0h1v-2H7v2zm4 0h1v-2h-1v2zm-6 4h1v-2H5v2zm6 0h1v-2h-1v2zm-2-8h1V9H9v2zm0 4h1v-2H9v2zm0 4h1v-2H9v2zm-2 0h1v-2H7v2zm16 2v1H1v-1h2V2.886C3 2.397 3.397 2 3.886 2h9.227c.49 0 .887.397.887.886V21h6v-9.92c0-.044.044-.08 0-.08h-5v-1h4.92c.597 0 1.08.484 1.08 1.08V21h2zm-10 0V3H4v18h9z"/></svg>