<svg height="16" viewBox="0 0 16 16" width="16" xmlns="http://www.w3.org/2000/svg"><path d="m3 8v-7h10v8h-1v-7h-8v6zm2-1h3v-1h-3zm6-2v-1h-6v1zm-10 3h-1v7h1zm9.153 8a4.142 4.142 0 0 0 3.163-1.478l2.418-2.662a1.214 1.214 0 0 0 .119-1.322 1.24 1.24 0 0 0 -.822-.662 1.389 1.389 0 0 0 -1.167.315l-2.864 1.971.562.838 2.9-2.008a.46.46 0 0 1 .358-.138c.02 0 .091 0 .149.118a.294.294 0 0 1 -.006.253l-2.4 2.639a3.156 3.156 0 0 1 -2.413 1.136h-2.491a3.631 3.631 0 0 1 -2.008-.6l-1.092-.936a2.713 2.713 0 0 0 -1.526-.464h-1.033v1h1.033a1.714 1.714 0 0 1 .919.261l1.092.936a4.642 4.642 0 0 0 2.618.8zm-.153-4.5a1.5 1.5 0 0 0 -1.5-1.5h-2.379a1.658 1.658 0 0 1 -.679-.146l-1.265-.574a3.116 3.116 0 0 0 -1.294-.28h-.883v1h.883a2.125 2.125 0 0 1 .881.19l1.266.574a2.619 2.619 0 0 0 1.091.236h2.379a.5.5 0 0 1 0 1h-2.5v1h2.5a1.5 1.5 0 0 0 1.5-1.5z" fill="var(--icon-color, #1c1c1c)"/></svg>