<svg xmlns="http://www.w3.org/2000/svg" width="24" height="24" viewBox="0 0 24 24"><path fill="var(--icon-color, #1c1c1c)" d="M13 2h-1v10H2v1c.261 5.567 4.869 10 10.5 10C18.299 23 23 18.299 23 12.5 23 6.869 18.567 2.26 13 2zm-.003 19.99c-5.24.275-9.71-3.75-9.984-8.99H13V3.013c5.014.26 9 4.408 9 9.487.002 5.055-3.955 9.226-9.003 9.49zM4.111 4.287C5.94 2.402 8.384 1.235 11 1v8.995L4.111 4.287zM1.466 8.842l.907-2.159c-.376.679-.681 1.402-.907 2.159zm2.781-3.147l-.775-.639c-.413.507-.781 1.051-1.1 1.627l-.906 2.159C1.258 9.535 1.067 10.257 1 11l1 .001c.199-2 1.042-3.827 2.247-5.306z"/></svg>