<svg enable-background="new 0 0 24 24" height="24" viewBox="0 0 24 24" width="24" xmlns="http://www.w3.org/2000/svg"><path d="m11 9.995-6.889-5.708c1.829-1.885 4.273-3.052 6.889-3.287zm-6.753-4.3-.775-.639c-.413.507-.781 1.051-1.1 1.627-.376.679-.68 1.402-.907 2.159-.207.693-.398 1.415-.465 2.158l1 .001c.199-2 1.042-3.827 2.247-5.306zm-1.234 7.305h9.987v-9.987c4.509.234 8.176 3.615 8.871 7.987h1.01c-.706-4.927-4.819-8.764-9.881-9h-1v10h-10v1c.221 4.714 3.563 8.603 8 9.688v-1.024c-3.848-1.049-6.767-4.463-6.987-8.664zm19.726 1.173-2.246 2.246-1.911-1.911 2.246-2.246c-1.267-.519-2.775-.265-3.803.763-1.122 1.123-1.308 2.812-.587 4.139l-4.007 3.598c-.038.034-.074.069-.108.108-.469.529-.421 1.338.108 1.807s1.338.421 1.807-.108l3.604-4.004c1.327.717 3.012.531 4.133-.59 1.029-1.027 1.283-2.536.764-3.802z" fill="var(--icon-color, #1c1c1c)"/></svg>