<svg xmlns="http://www.w3.org/2000/svg" width="16" height="16" viewBox="0 0 16 16"><path fill="var(--icon-color, #1c1c1c)"  d="M4.5 8c0 .552-.448 1-1 1s-1-.448-1-1 .448-1 1-1 1 .448 1 1zm2-1c-.552 0-1 .448-1 1s.448 1 1 1 1-.448 1-1-.448-1-1-1zm3 0c-.552 0-1 .448-1 1s.448 1 1 1 1-.448 1-1-.448-1-1-1zm3 0c-.552 0-1 .448-1 1s.448 1 1 1 1-.448 1-1-.448-1-1-1zm2.293 5H1.207C.542 12 0 11.459 0 10.793V5.207C0 4.541.542 4 1.207 4h13.586C15.458 4 16 4.541 16 5.207v5.586c0 .666-.542 1.207-1.207 1.207zM1.207 5C1.093 5 1 5.093 1 5.207v5.586c0 .114.093.207.207.207h13.586c.114 0 .207-.093.207-.207V5.207c0-.114-.093-.207-.207-.207H1.207z"/></svg>