<svg viewBox="0 0 24 24" xmlns="http://www.w3.org/2000/svg"><path d="m6 6.51a1.5 1.5 0 1 1 -1.49-1.51 1.5 1.5 0 0 1 1.49 1.51zm5 0a1.5 1.5 0 1 1 -1.5-1.51 1.5 1.5 0 0 1 1.5 1.51zm5 0a1.5 1.5 0 1 1 -1.5-1.51 1.5 1.5 0 0 1 1.5 1.51zm5 0a1.5 1.5 0 1 1 -1.51-1.51 1.5 1.5 0 0 1 1.51 1.51zm3 4v-8a1.52 1.52 0 0 0 -1.51-1.51h-21a1.52 1.52 0 0 0 -1.49 1.51v8a1.52 1.52 0 0 0 1.51 1.49h8.49v-1h-8.49a.48.48 0 0 1 -.51-.49v-8a.49.49 0 0 1 .51-.51h21a.49.49 0 0 1 .48.48v8a.48.48 0 0 1 -.48.48h-.51v1h.5a1.52 1.52 0 0 0 1.5-1.45z" fill="var(--icon-color, #1c1c1c)"/><path d="m16.19 12.16a5.34 5.34 0 0 0 -2.6 1.5l-2.52-1.52v6.43l5.69-3-2.28-1.37a4.35 4.35 0 0 1 1.94-1.07 4.5 4.5 0 1 1 2.16 8.74 4.46 4.46 0 0 1 -4.8-1.87l-1.06.26a5.5 5.5 0 1 0 3.47-8.06z" fill="var(--icon-color, #1c1c1c)"/></svg>