<svg xmlns="http://www.w3.org/2000/svg" width="16" height="16" viewBox="0 0 16 16"><path d="M2.5,4a1,1,0,1,0,1-1A1,1,0,0,0,2.5,4Zm5,0a1,1,0,1,0-1,1A1,1,0,0,0,7.5,4Zm2,1a1,1,0,1,0-1-1A1,1,0,0,0,9.5,5Zm4-1a1,1,0,1,0-1,1A1,1,0,0,0,13.5,4Zm1.293-4H1.207A1.208,1.208,0,0,0,0,1.207V6.793A1.208,1.208,0,0,0,1.207,8H5V7H1.207A.207.207,0,0,1,1,6.793V1.207A.207.207,0,0,1,1.207,1H14.793A.207.207,0,0,1,15,1.207V6h1V1.207A1.208,1.208,0,0,0,14.793,0ZM11.5,7A4.461,4.461,0,0,0,8.612,8.056L7,7l0,4.717,4.184-1.974-1.678-1.1A3.448,3.448,0,0,1,11.5,8a3.5,3.5,0,1,1-2.88,5.482l-.909.428A4.5,4.5,0,1,0,11.5,7Z" fill="var(--icon-color, #1c1c1c)"/></svg>