<svg xmlns="http://www.w3.org/2000/svg" width="24" height="24" viewBox="0 0 24 24"><path fill="var(--icon-color, #1c1c1c)" d="M24 21h-4.5L16 24V11l8 10zM4.491 4.494l.001-.001L10.5 10.5l6.717-6.718c-.215-.215-.44-.419-.674-.613-1.408-1.162-3.155-1.926-5.072-2.12C11.152 1.017 10.828 1 10.5 1c-.458 0-.904.043-1.345.106-2.084.296-3.953 1.257-5.373 2.676l-.001.001.71.711zm13.394.035L5.246 17.168c-.264-.208-.519-.427-.757-.665l5.299-5.299-.707-.707-5.253 5.253c-.211-.267-.403-.549-.581-.84L8.37 9.787l-.707-.707-4.907 4.907c-.151-.333-.284-.676-.391-1.03L6.952 8.37l-.707-.708-4.135 4.136C2.044 11.373 2 10.942 2 10.5c0-.005.001-.01.001-.015l3.534-3.534-.707-.707-2.675 2.674C2.414 7.552 3 6.3 3.83 5.247l-.716-.716C1.794 6.163 1 8.238 1 10.5c0 5.247 4.253 9.5 9.5 9.5 1.237 0 2.416-.244 3.5-.674v-1.089c-1.069.486-2.252.763-3.5.763-1.62 0-3.129-.464-4.419-1.253L17.747 6.081C18.537 7.371 19 8.88 19 10.5c0 .329-.02.654-.057.974l.828 1.037c.142-.65.229-1.319.229-2.011 0-2.263-.794-4.339-2.115-5.971z"/></svg>