<svg xmlns="http://www.w3.org/2000/svg" width="16" height="16" viewBox="0 0 16 16"><path fill="var(--icon-color, #1c1c1c)" d="M15 10v-.5C15 8.119 13.881 7 12.5 7S10 8.119 10 9.5v.5c-.552 0-1 .448-1 1v4c0 .552.448 1 1 1h5c.552 0 1-.448 1-1v-4c0-.552-.448-1-1-1zm-4-.5c0-.828.672-1.5 1.5-1.5s1.5.672 1.5 1.5v.5h-3v-.5zm4 5.5h-5v-4h5v4zM6 3H5V1h6v2h-1V2H6v1zM4.64 9L7 9.674v1.04L3 9.571V14h4v1H2V9.286l-.275-.079C1.296 9.084 1 8.692 1 8.246V4h14v2h-1V5H2v3.246L4.64 9z"/><path fill="none" d="M0 0h16v16H0V0z"/></svg>