<svg xmlns="http://www.w3.org/2000/svg" width="24" height="24" viewBox="0 0 24 24"><path fill="var(--icon-color, #1c1c1c)" d="M9 5H8V2h8v3h-1V3H9v2zm-6.342 6.539C2.263 11.395 2 11.02 2 10.6V7h20v2h1V6H1v4.599c0 .718.397 1.351 1 1.706V22h10v-1H3v-8.273L12 16v-1.064l-9.342-3.397zM24 17v6c0 .552-.448 1-1 1h-8c-.552 0-1-.448-1-1v-6c0-.552.448-1 1-1h1v-1.85c-.038-1.486.987-2.788 2.44-3.1 1.628-.309 3.198.76 3.507 2.387.036.186.053.374.053.563v2h1c.552 0 1 .448 1 1zm-7-1h4v-1.9c.025-.887-.518-1.692-1.35-2-1.045-.359-2.182.197-2.541 1.241-.073.212-.11.435-.109.659v2zm6 1h-8v6h8v-6z"/><path fill="none" d="M0 0h24v24H0V0z"/></svg>