<svg xmlns="http://www.w3.org/2000/svg" width="16" height="16" viewBox="0 0 16 16"><path fill="var(--icon-color, #1c1c1c)" d="M16 7.502l-1.436 5.632-1.752-1.756-.071-.071-3.234 3.43-3.008-3.057L2.002 16 2 14.58l4.501-4.323 2.991 3.037 2.542-2.697-1.702-1.706L16 7.502zm-3.025-1.501C12.718 2.647 9.918 0 6.503 0 2.919 0 0 2.914 0 6.501c0 1.733.708 3.324 1.845 4.503h1.544c-1.299-.91-2.192-2.359-2.345-4.003h2.982c.024.687.108 1.353.222 2.002h1.018c-.125-.642-.213-1.31-.24-2.002h2.957c-.013.341-.058.67-.094 1.001h1.01c.033-.332.074-.661.085-1.001H13v-1h-.025zm-8.95 0H1.043c.213-2.328 1.865-4.242 4.068-4.819-.647 1.371-1.023 3.031-1.086 4.819zm1.004 0c.071-1.892.515-3.682 1.276-4.994.065-.002.13-.01.196-.01.065 0 .128.007.192.01.761 1.311 1.209 3.102 1.279 4.994H5.029zm3.942 0c-.06-1.788-.436-3.447-1.082-4.819 2.205.577 3.874 2.488 4.086 4.819H8.971z"/></svg>