<svg enable-background="new 0 0 16 16" height="16" viewBox="0 0 16 16" width="16" xmlns="http://www.w3.org/2000/svg"><path d="m13.501 0h-9.002c-.826 0-1.499.673-1.499 1.499v2.002c0 .826.673 1.499 1.499 1.499h9.002c.826 0 1.499-.673 1.499-1.499v-2.002c0-.826-.673-1.499-1.499-1.499zm.499 3.501c0 .275-.224.499-.499.499h-9.002c-.275 0-.499-.224-.499-.499v-2.002c0-.275.224-.499.499-.499h9.002c.275 0 .499.224.499.499zm-5 2.499h-7v-4h-1v5h7v1h-1v6.5c0 .827.673 1.5 1.5 1.5s1.5-.673 1.5-1.5v-6.5h-1z" fill="var(--icon-color, #1c1c1c)"/></svg>