<svg xmlns="http://www.w3.org/2000/svg" width="24" height="24" viewBox="0 0 24 24"><path fill="var(--icon-color, #1c1c1c)"  d="M5 7.5H4C4.003 4.464 6.464 2.003 9.5 2h5c3.036.004 5.496 2.464 5.5 5.5h-1c-.003-2.484-2.016-4.497-4.5-4.5h-5C7.016 3.003 5.003 5.016 5 7.5zM20 14v7H4v-7c-1.105 0-2-.895-2-2s.895-2 2-2 2 .895 2 2v7h12v-7c0-1.105.895-2 2-2s2 .895 2 2-.895 2-2 2zM9 13h6c1.105 0 2 .895 2 2v3H7v-3c0-1.105.895-2 2-2zm14-1c0-1.657-1.343-3-3-3s-3 1.343-3 3v.779c-.547-.499-1.26-.777-2-.779H9c-.74.002-1.453.28-2 .779V12c.006-1.527-1.136-2.815-2.653-2.992-1.517-.177-2.924.814-3.269 2.302-.345 1.487.482 2.997 1.922 3.506V22h18v-7.184c1.196-.42 1.998-1.548 2-2.816z"/></svg>