<svg xmlns="http://www.w3.org/2000/svg" width="16" height="16" viewBox="0 0 16 16"><path fill="var(--icon-color, #1c1c1c)"  d="M4 4H3c0-1.657 1.343-3 3-3h4c1.657 0 3 1.343 3 3h-1c0-1.105-.895-2-2-2H6c-1.104 0-2 .895-2 2zm9 4v6H3V8c-.552 0-1-.448-1-1s.448-1 1-1 1 .448 1 1v5h8V7c0-.552.448-1 1-1s1 .448 1 1-.448 1-1 1zM7 9h2c1.104 0 2 .895 2 2H5c0-1.105.896-2 2-2zm6-4c-1.104 0-2 .895-2 2v1.779C10.453 8.28 9.74 8.002 9 8H7c-.74.002-1.453.28-2 .779V7c.004-.972-.69-1.806-1.647-1.978-.956-.171-1.897.369-2.231 1.282-.333.913.037 1.933.878 2.419V15h12V8.723c.784-.451 1.167-1.373.932-2.246C14.697 5.603 13.904 4.997 13 5z"/></svg>