<svg xmlns="http://www.w3.org/2000/svg" width="24" height="24" viewBox="0 0 24 24"><path fill="var(--icon-color, #1c1c1c)"  d="M14 11c0 1.105-.895 2-2 2s-2-.895-2-2 .895-2 2-2 2 .895 2 2zm-5 0c0 1.657 1.343 3 3 3s3-1.343 3-3-1.343-3-3-3-3 1.343-3 3zm8.777-1.6c.434 1.549.225 3.208-.58 4.601-.805 1.393-2.138 2.402-3.697 2.799v-1.055c2.481-.755 3.955-3.3 3.375-5.827l.902-.518zM10.5 15.745V16.8c-1.559-.397-2.892-1.407-3.697-2.799-.805-1.393-1.014-3.051-.58-4.601l.9.521c-.578 2.527.897 5.07 3.377 5.824zM8.636 7.327L7.721 6.8C8.848 5.65 10.39 5.003 12 5.003s3.152.647 4.279 1.797l-.915.529c-1.894-1.768-4.834-1.768-6.728 0v-.002zM8.313 9.45L3.956 6.933l.5-.866 4.37 2.523c-.207.264-.379.552-.513.86zm3.187 5.5h1V20h-1v-5.05zm8.044-8.883l.5.866-4.357 2.515c-.134-.307-.306-.595-.513-.858l4.37-2.523zM22 21c0 .552-.448 1-1 1H3c-.552 0-1-.448-1-1V3c0-.552.448-1 1-1h18c.552 0 1 .448 1 1v18zM21 1H3c-1.105 0-2 .895-2 2v18c0 1.105.895 2 2 2h18c1.105 0 2-.895 2-2V3c0-1.105-.895-2-2-2z"/></svg>