<svg xmlns="http://www.w3.org/2000/svg" width="16" height="16" viewBox="0 0 16 16"><path fill="var(--icon-color, #1c1c1c)"  d="M5 .775v2.451C5 3.653 4.653 4 4.225 4H.775C.347 4 0 3.653 0 3.225V.775C0 .347.347 0 .775 0h3.451C4.653 0 5 .347 5 .775zM.909 10H3V9H1V7h2V6H.909C.408 6 0 6.408 0 6.909v2.182c0 .501.408.909.909.909zM5 12.866v2.268c0 .477-.388.866-.866.866H.866C.388 16 0 15.611 0 15.134v-2.268C0 12.389.388 12 .866 12h3.269c.477 0 .865.389.865.866zM4 13H1v2h3v-2zm11 2.271c0-.238.292-.657.542-.933.3-.448.458-.972.458-1.512V10.18c0-.619-.373-1.167-.956-1.398L11.253 7.31 11 2.5c0-.827-.673-1.5-1.5-1.5S8 1.673 8 2.5v6.415L6.122 7.321c-.503-.431-1.265-.401-1.732.068-.461.46-.502 1.19-.134 1.644l2.408 4.045c.478.772.534.828.581.874.486.486.755 1.135.755 1.823V16h1v-.225c0-.956-.372-1.854-1.025-2.506-.089-.113-.4-.62-.463-.722L5.076 8.465c-.088-.111-.08-.27.021-.369.102-.103.267-.108.376-.014l2.161 1.834c.25.212.589.257.885.121.297-.138.481-.426.481-.753V2.5c0-.275.224-.5.5-.5s.5.225.5.526l.253 4.811c0 .389.216.737.61.932l3.819 1.446c.193.076.318.26.318.466v2.646c0 .342-.1.673-.235.889-.128.133-.765.837-.765 1.555V16h1v-.729z"/></svg>