<svg xmlns="http://www.w3.org/2000/svg" width="16" height="16" viewBox="0 0 16 16"><path fill="var(--icon-color, #1c1c1c)" d="M15.707 8.708c.713 1.496.079 3.287-1.417 4-.848.404-1.829.374-2.66-.053l-2.766 2.997c-.4.437-1.079.466-1.516.066-.437-.4-.466-1.079-.066-1.516.021-.023.043-.045.066-.066 0 0 1.8-1.662 2.991-2.761-.746-1.447-.208-3.231 1.23-4.011.845-.458 1.857-.485 2.724-.071l-2 2 1.414 1.415 2-2zm-4.818-6.304l-.502.501-.535.535-.66-.369c-.299-.167-.623-.3-.964-.397L7.5 2.468V1h-1v1.468l-.728.207c-.342.097-.666.23-.964.397l-.66.369-.535-.535-.502-.502-.707.707.502.502.534.536-.369.66c-.167.298-.3.623-.397.964l-.206.727H1v1h1.468l.206.727c.097.343.231.667.399.967l.369.66-.535.535-.502.502.707.707.502-.502.535-.535.66.369c.298.167.622.3.964.397l.727.206v1.468h-1v-.712c-.415-.118-.811-.281-1.18-.487l-1.209 1.209L.99 10.89l1.209-1.209c-.207-.369-.369-.765-.487-1.18H0v-3h1.712c.118-.416.281-.812.487-1.181L.99 3.111 3.111.99 4.32 2.199c.369-.206.765-.369 1.18-.487V0h3v1.712c.415.118.811.281 1.179.488l1.21-1.21 2.122 2.119-1.21 1.21c.206.369.564 1.198.611 1.68h-1.024c-.071-.294-.34-.977-.46-1.191l-.369-.66.535-.535.502-.502-.707-.707zM8 8.724v1.093c-.314.112-.648.184-1 .184-1.654 0-3-1.346-3-3s1.346-3 3-3c1.302 0 2.401.839 2.816 2H8.723C8.376 5.405 7.738 5 7 5c-1.105 0-2 .895-2 2s.895 2 2 2c.366.001.705-.105 1-.276z"/></svg>