<svg height="12" viewBox="0 0 12 12" width="12" xmlns="http://www.w3.org/2000/svg"><g fill="var(--icon-color, #1c1c1c)"><path d="m6 2.59v3.41h-2l-.27-2.94z"/><path d="m7.91 6.01c-.66 3.45-1.86 3.49-1.91 3.49v-3.5z"/><path d="m6 2.59v3.41h-2l-.27-2.94z"/><path d="m7.91 6.01c-.66 3.45-1.86 3.49-1.91 3.49v-3.5z"/><path d="m6 0-5 1s0 11 5 11 5-11 5-11zm0 11c-3.63 0-3.91-9.2-3.91-9.2l3.91-.78 3.91.78s-.28 9.2-3.91 9.2zm0-8.41v3.41h-2l-.27-2.94zm1.91 3.42c-.66 3.45-1.86 3.49-1.91 3.49v-3.5z"/></g><path d="m0 0h12v12h-12z" fill="none"/></svg>