<svg xmlns="http://www.w3.org/2000/svg" width="24" height="24" viewBox="0 0 24 24"><path fill="var(--icon-color, #1c1c1c)"  d="M9 20c.551 0 1 .449 1 1s-.449 1-1 1-1-.449-1-1 .449-1 1-1m0-1c-1.105 0-2 .895-2 2s.895 2 2 2 2-.895 2-2-.895-2-2-2zm9 1c.551 0 1 .449 1 1s-.449 1-1 1-1-.449-1-1 .449-1 1-1m0-1c-1.105 0-2 .895-2 2s.895 2 2 2 2-.895 2-2-.895-2-2-2zM8 15h12.975L23 7H5.672L4.418 3H1v1h2.684L6.92 14.322C6.368 14.678 6 15.296 6 16c0 1.103.897 2 2 2h12v-1H8c-.551 0-1-.448-1-1s.449-1 1-1zm-.133-1L5.986 8h15.715l-1.506 6H7.867z"/></svg>