<svg height="24" viewBox="0 0 24 24" width="24" xmlns="http://www.w3.org/2000/svg"><path d="m15 7c3.313 0 6-1.343 6-3s-2.681-3-6-3-6 1.345-6 3 2.683 3 6 3zm0-5c2.832 0 5 1.083 5 2s-2.167 2-5 2-5-1.083-5-2 2.163-2 5-2zm-8 12.005a10.147 10.147 0 0 0 2-.2v1.015a11.251 11.251 0 0 1 -2 .18c-3.314 0-6-1.336-6-2.993h1c0 .916 2.168 1.999 5 1.998zm0 2.995a10.236 10.236 0 0 0 2-.2v1.006a11.335 11.335 0 0 1 -2 .194c-3.314 0-6-1.335-6-2.993h1c0 .916 2.169 1.993 5 1.993zm13-4v-1h-1v1h-5v-1h-1v1h-2v9h11v-9zm1 8h-9v-5h9zm0-6h-9v-1h9zm-14-3c2.785 0 5.12-.949 5.8-2.236a11.07 11.07 0 0 0 2.2.236c3.313 0 6-1.343 6-3h-1c0 .917-2.168 2-5 2a9.976 9.976 0 0 1 -2.026-.215c-.222-1.557-2.81-2.785-5.974-2.785-3.318 0-6 1.343-6 3s2.684 3 6 3zm0-5c2.831 0 5 1.083 5 2s-2.167 2-5 2-5-1.081-5-2 2.164-2 5-2z" fill="var(--icon-color, #1c1c1c)"/></svg>