<?xml version="1.0" encoding="UTF-8"?>
<svg width="24px" height="24px" viewBox="0 0 24 24" version="1.1" xmlns="http://www.w3.org/2000/svg" xmlns:xlink="http://www.w3.org/1999/xlink">
    <!-- Generator: Sketch 61.1 (89650) - https://sketch.com -->
    <title>Status / Locked</title>
    <desc>Created with Sketch.</desc>
    <defs>
        <path d="M6,9.81818182 L17.5555556,9.81818182 L17.5555556,20 L6,20 L6,9.81818182 Z M7.44444444,11.2727273 L7.44444444,18.5454545 L16.1111111,18.5454545 L16.1111111,11.2727273 L7.44444444,11.2727273 Z M16.1111111,8.36363636 L16.1111111,9.81818182 L14.6666667,9.81818182 L14.6666667,8.36363636 C14.6666667,6.35532818 13.7721394,5.45454545 11.7777778,5.45454545 C9.78341618,5.45454545 8.88888889,6.35532818 8.88888889,8.36363636 L8.88888889,9.81818182 L7.44444444,9.81818182 L7.44444444,8.36363636 C7.44444444,5.55200491 8.98567154,4 11.7777778,4 C14.569884,4 16.1111111,5.55200491 16.1111111,8.36363636 Z M11.7777778,12.7272727 C12.5755224,12.7272727 13.2222222,13.3784949 13.2222222,14.1818182 C13.2222222,14.7196955 12.9322953,15.1893832 12.5012262,15.4410563 L12.5,17.0909091 L11.0555556,17.0909091 L11.0547107,15.4412788 C10.6234312,15.1896602 10.3333333,14.7198541 10.3333333,14.1818182 C10.3333333,13.3784949 10.9800331,12.7272727 11.7777778,12.7272727 Z" id="path-1"></path>
    </defs>
    <g id="Status-/-Locked" stroke="none" stroke-width="1" fill="none" fill-rule="evenodd">
        <mask id="mask-2" fill="white">
            <use xlink:href="#path-1"></use>
        </mask>
        <use id="Mask" fill="#444444" xlink:href="#path-1"></use>
        <g id="Grays-/-900" mask="url(#mask-2)" fill="var(--icon-color, #1c1c1c)">
            <rect id="NW900" x="0" y="0" width="24" height="24"></rect>
        </g>
    </g>
</svg>