<svg enable-background="new 0 0 24 24" height="24" viewBox="0 0 24 24" width="24" xmlns="http://www.w3.org/2000/svg"><path d="m3 19h3v1h-3zm6 1h11v-1h-11zm-7-2h4v-1h-4zm7 0h12v-1h-12zm-8-2h5v-1h-4v-10h4v-1h-5zm8-12v1h13v10h-13v1h14v-12zm-2-1h1v-2h-1zm0 4h1v-2h-1zm0 4h1v-2h-1zm0 4h1v-2h-1zm0 4h1v-2h-1zm0 4h1v-2h-1zm4-14v4h1v-4zm7.5 4c-.828 0-1.5-.672-1.5-1.5v-1c0-.828.672-1.5 1.5-1.5s1.5.672 1.5 1.5v1c0 .828-.672 1.5-1.5 1.5zm0-1c.276 0 .5-.224.5-.5v-1c0-.276-.224-.5-.5-.5s-.5.224-.5.5v1c0 .276.224.5.5.5zm-4 1c-.828 0-1.5-.672-1.5-1.5v-1c0-.828.672-1.5 1.5-1.5s1.5.672 1.5 1.5v1c0 .828-.672 1.5-1.5 1.5zm0-1c.276 0 .5-.224.5-.5v-1c0-.276-.224-.5-.5-.5s-.5.224-.5.5v1c0 .276.224.5.5.5z" fill="var(--icon-color, #1c1c1c)"/></svg>