<svg xmlns="http://www.w3.org/2000/svg" width="24" height="24" viewBox="0 0 24 24"><path fill="var(--icon-color, #1c1c1c)"  d="M8.311 13.002c.932 0 1.849.194 2.689.545l-.576.856c-.673-.257-1.386-.403-2.113-.402-2.319 0-4.386 1.353-5.397 3.421l-.914-.4c1.18-2.4 3.607-4.02 6.311-4.02zM14 6c0 2.761-2.239 5-5 5S4 8.761 4 6s2.239-5 5-5 5 2.239 5 5zm-1 0c0-2.209-1.791-4-4-4S5 3.791 5 6s1.791 4 4 4 4-1.791 4-4zm8 16v-6h-8v6h8zm-6-9v2h4v-1.9c.025-.887-.518-1.692-1.35-2-.613-.211-1.289-.111-1.815.266S14.997 12.352 15 13zm6 2c.552 0 1 .448 1 1v6c0 .552-.448 1-1 1h-8c-.552 0-1-.448-1-1v-6c0-.552.448-1 1-1h1v-1.85c-.038-1.486.987-2.788 2.44-3.1.878-.167 1.786.067 2.474.637.689.571 1.087 1.419 1.086 2.313v2h1z"/></svg>