<svg xmlns="http://www.w3.org/2000/svg" width="24" height="24" viewBox="0 0 24 24"><title>User-manage-24px</title><path d="M21.973,17.981a3.5,3.5,0,0,1-4.158.595l-3.582,4a1.279,1.279,0,0,1-1.806.1l-.052-.049a1.278,1.278,0,0,1,0-1.809l.052-.049,4-3.581a3.5,3.5,0,0,1,4.4-4.922l-2.39,2.391,1.912,1.912,2.392-2.39A3.5,3.5,0,0,1,21.973,17.981ZM4,7a5,5,0,1,1,5,5A5,5,0,0,1,4,7ZM5,7A4,4,0,1,0,9,3,4,4,0,0,0,5,7Zm7.816,10,.95-.406A7,7,0,0,0,8.388,14H8.311A7.1,7.1,0,0,0,2,18.022l.914.4a6.154,6.154,0,0,1,2.261-2.515A6.824,6.824,0,0,1,8.366,15h.111c.163,0,.322.02.482.035.187.021.38.049.576.085A6,6,0,0,1,12.816,17Z" fill="var(--icon-color, #1c1c1c)"/><path d="M0,24V0H24V24" fill="none"/></svg>